<svg xmlns="http://www.w3.org/2000/svg" viewBox="0 0 97.5723 45.6463"><defs><style>.a,.b{fill:#e64e53;}.b,.d{fill-rule:evenodd;}.c{fill:#c2944f;}.d,.e{fill:none;stroke:#231f20;stroke-linecap:round;stroke-linejoin:round;stroke-width:1.9998px;}</style></defs><rect class="a" x="10.301" y="5.4262" width="4.765" height="18.1619"/><path class="b" d="M32.9263,5.4376V23.5884H28.1612V5.4265H32.333C32.5323,5.4265,32.7287,5.4308,32.9263,5.4376Z"/><path class="c" d="M7.485,23.077H70.9559a2.3119,2.3119,0,0,1,2.3119,2.3119V27.99a2.3122,2.3122,0,0,1-2.3122,2.3122H7.4848a2.312,2.312,0,0,1-2.312-2.312V25.3892A2.3122,2.3122,0,0,1,7.485,23.077Z"/><path class="b" d="M50.2873,23.077h5.2541C54.6819,10.8537,44.4956,1,32.8293,1H5.1711V5.9373H32.3333C42.0859,5.9373,49.5064,13.5172,50.2873,23.077Z"/><path class="d" d="M1,44.6464H82.8517c6.19,0,11.5878-2.2581,13.3487-8.8007,2.5894-9.6285-8.932-14.6639-16.2326-17.085"/><path class="e" d="M5.0608,23.077H68.5317a2.3119,2.3119,0,0,1,2.3119,2.3119V27.99a2.3122,2.3122,0,0,1-2.3122,2.3122H5.0606a2.312,2.312,0,0,1-2.312-2.312V25.3892A2.3122,2.3122,0,0,1,5.0608,23.077Z"/><path class="d" d="M52.3855,18.67C49.717,8.57,40.6294,1,30.4051,1H2.7469V5.9376H29.9088A17.8437,17.8437,0,0,1,46.9963,18.67"/><polyline class="d" points="7.876 18.67 7.876 5.937 12.641 5.937 12.641 18.67"/><path class="d" d="M25.7368,18.67V5.9376h4.172c.199,0,.3957.004.593.0105V18.67"/><line class="e" x1="17.9024" y1="34.9845" x2="17.9024" y2="44.3079"/><line class="e" x1="38.7157" y1="34.9845" x2="38.7157" y2="44.3079"/><line class="e" x1="59.53" y1="34.9845" x2="59.53" y2="44.3079"/></svg>