<svg xmlns="http://www.w3.org/2000/svg" viewBox="0 0 42.1663 73.9998"><defs><style>.a{fill:#fffcd5;}.b{fill:#fff;}.b,.c,.e{fill-rule:evenodd;}.c{fill:#e64e53;}.d,.e{fill:none;stroke:#231f20;stroke-linecap:round;stroke-linejoin:round;stroke-width:1.9998px;}</style></defs><rect class="a" x="3.8799" y="0.9999" width="38.2864" height="72" rx="4.2667"/><path class="b" d="M23.0228,9.2981h.0009a4.322,4.322,0,0,1,4.31,4.31V52.2171a7.813,7.813,0,1,1-8.621,0V13.6084A4.322,4.322,0,0,1,23.0228,9.2981Z"/><path class="c" d="M27.3337,42.4339v9.7832a7.813,7.813,0,1,1-8.621,0V42.4339Z"/><path class="d" d="M5.2666,1H35.019a4.267,4.267,0,0,1,4.267,4.267V68.7332A4.2667,4.2667,0,0,1,35.0193,73H5.2666A4.2667,4.2667,0,0,1,1,68.7332V5.2666A4.2667,4.2667,0,0,1,5.2666,1Z"/><path class="e" d="M15.8325,38.4615V13.6084a4.322,4.322,0,0,1,4.31-4.31h.0009a4.3231,4.3231,0,0,1,4.31,4.31V38.4615"/><path class="e" d="M24.4535,42.4339v9.7832a7.813,7.813,0,1,1-8.621,0V42.4339Z"/><line class="d" x1="11.4373" y1="13.1841" x2="5.9651" y2="13.1841"/><line class="d" x1="11.4373" y1="19.0549" x2="8.0049" y2="19.0549"/><line class="d" x1="11.4373" y1="24.9249" x2="5.9651" y2="24.9249"/><line class="d" x1="11.4373" y1="30.7949" x2="8.0049" y2="30.7949"/><line class="d" x1="11.4373" y1="36.6649" x2="5.9651" y2="36.6649"/><line class="d" x1="11.4373" y1="42.5348" x2="8.0049" y2="42.5348"/><line class="d" x1="11.4373" y1="48.4048" x2="5.9651" y2="48.4048"/><line class="d" x1="28.8486" y1="13.1841" x2="34.3209" y2="13.1841"/><line class="d" x1="28.8486" y1="19.0549" x2="32.2811" y2="19.0549"/><line class="d" x1="28.8486" y1="24.9249" x2="34.3209" y2="24.9249"/><line class="d" x1="28.8486" y1="30.7949" x2="32.2811" y2="30.7949"/><line class="d" x1="28.8486" y1="36.6649" x2="34.3209" y2="36.6649"/><line class="d" x1="28.8486" y1="42.5348" x2="32.2811" y2="42.5348"/><line class="d" x1="28.8486" y1="48.4048" x2="34.3209" y2="48.4048"/></svg>