<svg xmlns="http://www.w3.org/2000/svg" viewBox="0 0 45.9433 73.9987"><defs><style>.a{fill:#808285;}.a,.b,.c,.d,.e{fill-rule:evenodd;}.b{fill:#f08a3a;}.c{fill:#fffcd5;}.d{fill:none;stroke:#231f20;stroke-linecap:round;stroke-linejoin:round;stroke-width:1.9998px;}.e{fill:#231f20;}</style></defs><path class="a" d="M45.9433,8.5432c-1.37-3.5688-8.7384-3.8775-10.848-3.4084-4.5379-8.6136-21.5322-2.7967-15.811,8.5022C7.2382,23.88,6.6321,45.4894,10.6182,62.48c.9227,3.934-5.2277,7.3922-6.738,8.2378,4.4932,3.4441,8.9887,2.61,13.9363,0h7.1243c10.7912-.1791,16.8823-41.3424,7.6944-57.3817C36.2882,9.7924,40.0415,8.5205,45.9433,8.5432Z"/><path class="b" d="M45.9433,8.5432c-1.3553-3.5326-8.5876-3.871-10.7808-3.4226a10.1125,10.1125,0,0,0-.4748,6.4746C37.7523,9.3661,41.1343,8.5245,45.9433,8.5432Z"/><path class="c" d="M25.0457,70.718c12.321,0,19.5675-40.9813,7.6323-57.3222a7.0781,7.0781,0,0,1-4.5919,1.6617c4.8252,4.27-.343,13.5825-.343,16.9452C28.21,36.8621,32.6267,43.78,32.295,47.2769c-.2064,2.1767-3.47,7.6371-5.15,9.4575,1.0389-4.3633-.7336-11.0049-3.5521-14.7209-1.0712,3.333,1.7745,5.9925-1.2517,12.0725-3.6182,7.268-.7336,7.6459,1.8949,13.7636A13.7974,13.7974,0,0,1,25.0457,70.718Z"/><path class="b" d="M33.1871,63.9489c3.3018,1.45,6.097,5.4113,6.9678,6.77H24.3929V70.718h.5479C28.1119,70.718,30.9318,68.11,33.1871,63.9489Z"/><path class="d" d="M13.8709,16.1417C4.2935,27.1127,4.054,46.7715,7.7382,62.48,8.66,66.413,2.5105,69.8724,1,70.718c4.4935,3.4441,8.989,2.61,13.9363,0h7.1246c12.585,0,19.6634-41.0635,7.6944-57.3817,3.653-3.5439,7.4063-4.8158,13.3081-4.7931-1.37-3.5688-8.7384-3.8775-10.848-3.4084-4.5382-8.6136-21.5325-2.7967-15.811,8.5022"/><path class="d" d="M43.0633,8.5432c-1.3553-3.5326-8.5879-3.871-10.7808-3.4226a10.1125,10.1125,0,0,0-.4748,6.4746C34.872,9.3661,38.254,8.5245,43.0633,8.5432Z"/><path class="d" d="M25.2058,15.0575c4.8255,4.27-.3427,13.5825-.3427,16.9452.4663,4.8594,4.8836,11.7768,4.5516,15.2742-.2063,2.1767-3.47,7.6371-5.15,9.4575,1.0389-4.3633-.7336-11.0049-3.5521-14.7209-1.0715,3.333,1.7745,5.9925-1.2517,12.0725-3.5142,7.0586-.8941,7.6193,1.667,13.2494"/><path class="d" d="M33.1893,65.87a24.5534,24.5534,0,0,1,4.0853,4.85L22.0608,70.718"/><path class="e" d="M26.3885,7.9159A1.4964,1.4964,0,1,0,24.8923,6.42,1.4993,1.4993,0,0,0,26.3885,7.9159Z"/></svg>