<svg xmlns="http://www.w3.org/2000/svg" viewBox="0 0 102.9423 73.9995"><defs><style>.a{fill:#cee2eb;}.b{fill:#c2944f;}.b,.c,.d,.e{fill-rule:evenodd;}.c{fill:#bcbec0;}.d{fill:#fffcd5;}.e,.f{fill:none;stroke:#231f20;stroke-linecap:round;stroke-linejoin:round;stroke-width:1.9998px;}</style></defs><ellipse class="a" cx="29.6792" cy="62.2309" rx="26.1742" ry="10.7699"/><path class="b" d="M87.9365,41.6632l.6616-.2588a3.35,3.35,0,0,1,4.3226,1.8924L102.7141,68.19a3.3509,3.3509,0,0,1-1.8944,4.3234l-.6619.2588a3.3544,3.3544,0,0,1-4.3242-1.8944L90.0614,56.2058,86.3888,46.869l-.3478-.8833A3.3447,3.3447,0,0,1,87.9365,41.6632Z"/><path class="c" d="M85.4755,58.4423A5.8224,5.8224,0,1,0,79.6531,52.62,5.8337,5.8337,0,0,0,85.4755,58.4423Z"/><path class="d" d="M29.68,51.4606c14.4555,0,26.1737,4.822,26.1737,10.77a5.3568,5.3568,0,0,1-1.2768,3.33c-3.4081-4.3189-13.2658-7.4415-24.8969-7.4415S8.1906,61.2412,4.7814,65.56a5.3582,5.3582,0,0,1-1.2765-3.33C3.5049,56.2826,15.2239,51.4606,29.68,51.4606Z"/><path class="e" d="M32.5405,51.6885c11.8828,1.0193,20.8088,5.3521,20.8088,10.542C53.3493,68.1765,41.6312,73,27.1748,73S1.0008,68.1765,1.0008,62.2305c0-5.19,8.9269-9.5227,20.8088-10.542"/><line class="f" x1="27.1756" y1="5.6348" x2="27.1756" y2="63.7352"/><path class="e" d="M26.912,1.767C49.8451-1.9257,69.2554,7.3954,83.5783,36.6535q1.1463,2.3407,2.2495,4.8552"/><path class="e" d="M83.885,46.869l-.3478-.8833a3.3453,3.3453,0,0,1,1.8952-4.3225l.6619-.2588a3.35,3.35,0,0,1,4.3223,1.8924L100.21,68.19a3.3513,3.3513,0,0,1-1.8944,4.3234l-.6619.2588A3.3545,3.3545,0,0,1,93.33,70.8782l-4.339-10.9724"/><path class="e" d="M82.9717,58.4423A5.8224,5.8224,0,1,0,77.1493,52.62,5.8336,5.8336,0,0,0,82.9717,58.4423Z"/><line class="f" x1="81.4971" y1="54.192" x2="77.4316" y2="60.697"/><line class="f" x1="40.8888" y1="1.3214" x2="40.4049" y2="5.6805"/><line class="f" x1="63.1459" y1="10.3318" x2="60.4637" y2="13.802"/><line class="f" x1="78.553" y1="28.3435" x2="74.7206" y2="30.4763"/><path class="e" d="M30.8941,51.5881q.8237.0405,1.6472.1007c11.8812,1.0185,20.808,5.35,20.808,10.5426a5.3565,5.3565,0,0,1-1.277,3.3284c-2.8689-3.636-10.31-6.4224-19.531-7.213q-.8235-.08-1.6472-.1338m-7.4375.0079q-.8227.0528-1.6461.1259c-9.2211.7906-16.6635,3.577-19.5327,7.213A5.3559,5.3559,0,0,1,1,62.2314c0-5.1922,8.9272-9.5233,20.8106-10.5426q.8232-.0554,1.6461-.0944"/></svg>