<svg xmlns="http://www.w3.org/2000/svg" viewBox="0 0 70.4783 73.9993"><defs><style>.a{fill:#d24648;}.a,.b,.c,.d,.f{fill-rule:evenodd;}.b{fill:#e64e53;}.c,.e{fill:#a7a9ac;}.d{fill:#808285;}.f,.g{fill:none;stroke:#231f20;stroke-linecap:round;stroke-linejoin:round;stroke-width:2.0001px;}</style></defs><path class="a" d="M8.509,38.383C4.371,47.2257,2.2946,59.5386,7.452,67.5144H67.3449c.6375-6.209-.1967-11.2088-6.3779-13.3279-2.2984-.7883-4.4915-1.5815-6.5569-2.4517L49,49.0478a28.2181,28.2181,0,0,1-3.312-2.2935l-4.1641-4.3789A23.6825,23.6825,0,0,1,39.0744,38.07l-.9382-.1695Z"/><path class="b" d="M10.9445,13.7647,8.1079,35.6008a5.97,5.97,0,0,0,1.6733,4.74l5.8113,5.8723c3.3324,3.3667,6.5659,3.4906,10.5.754l10.5551-7.34a5.0624,5.0624,0,0,0,1.4891-1.7263l1.42-5.8808.7807-4.1695,1.1117-5.9366.35-1.87c1.4814-8.16-11.1019-4.46-23.9034-9.1123C12.1629,8.8474,11.7056,7.9129,10.9445,13.7647Z"/><path class="c" d="M21.2371,44.2148a3.5214,3.5214,0,1,0-3.5214-3.5212A3.5282,3.5282,0,0,0,21.2371,44.2148Z"/><path class="d" d="M13.9025,6.69,13.5649,9.405c.9538.2035,2.3159.7932,4.33,1.5256,9.7832,3.5552,19.4357,2.2351,22.7854,5.0531C41.8617,7.249,35.6,10.3875,30.8378,8.7584,28.8357,8.0736,26.865,6.5471,24.5956,3.81,20.85-.749,14.6168.2593,13.9025,6.69Z"/><path class="e" d="M35.3911,15.5989h.8856a2.5773,2.5773,0,0,1,2.5773,2.5773v11.581a2.5763,2.5763,0,0,1-2.5763,2.5763h-.8863a2.5769,2.5769,0,0,1-2.5769-2.5769V18.1755a2.5766,2.5766,0,0,1,2.5766-2.5766Z" transform="translate(5.8678 54.9579) rotate(-79.7384)"/><path class="e" d="M33.6238,25.7278h.8848a2.5775,2.5775,0,0,1,2.5775,2.5775v11.58a2.577,2.577,0,0,1-2.577,2.577h-.8856a2.5768,2.5768,0,0,1-2.5768-2.5768v-11.58a2.5772,2.5772,0,0,1,2.5772-2.5772Z" transform="matrix(0.1781, -0.984, 0.984, 0.1781, -5.5512, 61.544)"/><path class="e" d="M33.7639,45.137h11.58a2.5775,2.5775,0,0,1,2.5775,2.5775V48.6a2.5762,2.5762,0,0,1-2.5762,2.5762H33.7639A2.5769,2.5769,0,0,1,31.187,48.6v-.8857a2.5769,2.5769,0,0,1,2.5769-2.5769Z" transform="translate(-21.9897 38.3611) rotate(-41.5579)"/><path class="e" d="M43.4036,52.2463H54.9871a2.5763,2.5763,0,0,1,2.5763,2.5763V55.71a2.5759,2.5759,0,0,1-2.5759,2.5759H43.4058a2.5771,2.5771,0,0,1-2.5771-2.5771v-.8879a2.5749,2.5749,0,0,1,2.5749-2.5749Z" transform="translate(-22.4565 73.7195) rotate(-62.7677)"/><path class="d" d="M28.1973,71.5079l3.5277-3.9938H6.2966a2.2676,2.2676,0,0,0-2.4157,2.0642v1.355a2.2682,2.2682,0,0,0,2.4157,2.0642H23.851C26.1555,72.9975,26.7814,73.112,28.1973,71.5079Z"/><path class="d" d="M46.1616,71.5079l-3.5274-3.9938H68.0627a2.2675,2.2675,0,0,1,2.4156,2.0642v1.355a2.2681,2.2681,0,0,1-2.4156,2.0642H50.5083C48.2037,72.9975,47.5778,73.112,46.1616,71.5079Z"/><path class="f" d="M38.5682,21.9137l.35-1.87c1.4814-8.16-11.1018-4.46-23.9034-9.1123-5.7328-2.0835-6.19-3.018-6.9511,2.8338L5.2271,35.6008A5.9691,5.9691,0,0,0,6.9,40.3409l5.8113,5.8723c3.3321,3.3667,6.5658,3.4906,10.5.754l10.5551-7.34a5.0611,5.0611,0,0,0,1.489-1.7263"/><path class="f" d="M18.3563,44.2148a3.5214,3.5214,0,1,0-3.5215-3.5212A3.5282,3.5282,0,0,0,18.3563,44.2148Z"/><path class="f" d="M37.6324,11.87c-1.2393-3.5031-5.9244-1.8281-9.6755-3.1111-2.0012-.684-3.9727-2.2113-6.2421-4.9487C18.1709-.5035,12.399.1672,11.1835,5.6987"/><path class="g" d="M32.5113,15.599h.8852a2.5766,2.5766,0,0,1,2.5766,2.5766V29.7564a2.577,2.577,0,0,1-2.577,2.577H32.51a2.5765,2.5765,0,0,1-2.5765-2.5765v-11.58a2.5777,2.5777,0,0,1,2.5777-2.5777Z" transform="translate(3.5001 52.1231) rotate(-79.7383)"/><path class="g" d="M30.7425,25.7278h.8852a2.5775,2.5775,0,0,1,2.5775,2.5775v11.58a2.577,2.577,0,0,1-2.577,2.577h-.8855a2.5769,2.5769,0,0,1-2.5769-2.5769V28.3046a2.5768,2.5768,0,0,1,2.5768-2.5768Z" transform="translate(-7.9189 58.7092) rotate(-79.7403)"/><path class="g" d="M30.8833,45.137h11.58a2.5767,2.5767,0,0,1,2.5767,2.5767V48.6a2.5765,2.5765,0,0,1-2.5765,2.5765H30.8828A2.5767,2.5767,0,0,1,28.3061,48.6v-.8856a2.5772,2.5772,0,0,1,2.5772-2.5772Z" transform="translate(-22.7148 36.4497) rotate(-41.5576)"/><path class="g" d="M40.5242,52.2463H52.1079a2.5746,2.5746,0,0,1,2.5746,2.5746V55.71a2.5759,2.5759,0,0,1-2.5759,2.5759H40.5233a2.5755,2.5755,0,0,1-2.5755-2.5755v-.888A2.5763,2.5763,0,0,1,40.5242,52.2463Z" transform="translate(-24.019 71.158) rotate(-62.7677)"/><path class="f" d="M25.3165,71.5079l3.5277-3.9938H3.4157A2.2676,2.2676,0,0,0,1,69.5783v1.355a2.2682,2.2682,0,0,0,2.4157,2.0642H20.97C23.2747,72.9975,23.9006,73.112,25.3165,71.5079Z"/><path class="f" d="M43.2808,71.5079l-3.5275-3.9938H65.1818a2.2676,2.2676,0,0,1,2.4157,2.0642v1.355a2.2682,2.2682,0,0,1-2.4157,2.0642H47.6274C45.3228,72.9975,44.6969,73.112,43.2808,71.5079Z"/><path class="f" d="M3.7505,43.07c-2.7512,8.15-3.4749,17.8016.8206,24.4446h59.893c.6375-6.209-.1968-11.2088-6.378-13.3279-2.2983-.7883-4.4915-1.5815-6.5568-2.4517"/></svg>