<svg xmlns="http://www.w3.org/2000/svg" viewBox="0 0 101.0351 74.0004"><defs><style>.a,.c{fill:#007492;}.a,.d,.e{fill-rule:evenodd;}.b,.d{fill:#009ec6;}.e,.f{fill:none;stroke:#231f20;stroke-linecap:round;stroke-linejoin:round;stroke-width:1.9998px;}</style></defs><path class="a" d="M52.4787,1c7.0027,0,12.7029,2.3006,12.899,5.1687-.5184,5.8618-25.8321,5.2166-25.7992,0C39.7747,3.3005,45.4748,1,52.4787,1Z"/><path class="a" d="M31.8283,12.61c-3.9943-.3853-8.2848,2.1132-8.574,5.5647a2.4244,2.4244,0,0,1,.9142.1621l6.9622,2.6614c1.4646-1.87.8813-6.4975.6786-8.3644Z"/><path class="a" d="M10.1546,54.7879l9.949,3.805a2.47,2.47,0,0,1,1.4225,3.1818l-2.9172,7.63a2.4725,2.4725,0,0,1-3.1827,1.4233l-9.9493-3.805A2.4705,2.4705,0,0,1,4.0547,63.84l2.9172-7.63A2.4712,2.4712,0,0,1,10.1546,54.7879Z"/><path class="b" d="M13.3855,42.8539h8.1689a2.4641,2.4641,0,0,1,2.4641,2.4641V55.9711a2.4646,2.4646,0,0,1-2.4646,2.4646H13.3861A2.4658,2.4658,0,0,1,10.92,55.97V45.3191a2.4652,2.4652,0,0,1,2.4652-2.4652Z" transform="translate(-36.0744 48.8752) rotate(-69.0757)"/><path class="c" d="M18.0524,30.6788h8.1685a2.4657,2.4657,0,0,1,2.4657,2.4657v10.65A2.4649,2.4649,0,0,1,26.2217,46.26H18.0534a2.4652,2.4652,0,0,1-2.4652-2.4652V33.1431a2.4643,2.4643,0,0,1,2.4643-2.4643Z" transform="translate(-21.7006 45.4101) rotate(-69.0784)"/><path class="d" d="M24.1685,18.2734l6.9622,2.6615c2.1631,2.2141,4.4045,4.066,4.84,4.9728.9915,2.0639-3.2131,3.9914-4.84,8.4268a2.45,2.45,0,0,1-1.6909-.0227l-9.949-3.8038a2.4711,2.4711,0,0,1-1.4222-3.183l2.9172-7.6294A2.4716,2.4716,0,0,1,24.1685,18.2734Z"/><path class="a" d="M73.1,12.61c3.9943-.3853,8.2845,2.1132,8.574,5.5647a2.4244,2.4244,0,0,0-.9142.1621l-6.9622,2.6614c-1.4647-1.87-.8813-6.4975-.6786-8.3644Z"/><path class="a" d="M94.7733,54.7879l-9.949,3.805a2.47,2.47,0,0,0-1.4225,3.1818l2.9172,7.63a2.4725,2.4725,0,0,0,3.1827,1.4233l9.949-3.805a2.4707,2.4707,0,0,0,1.4225-3.1827L97.956,56.21A2.4712,2.4712,0,0,0,94.7733,54.7879Z"/><path class="b" d="M82.1329,44.0956H92.7844A2.4647,2.4647,0,0,1,95.2491,46.56v8.1691a2.4646,2.4646,0,0,1-2.4646,2.4646H82.133a2.4655,2.4655,0,0,1-2.4655-2.4655V46.5611a2.4655,2.4655,0,0,1,2.4655-2.4655Z" transform="translate(-12.3195 34.5748) rotate(-20.9247)"/><path class="c" d="M77.4648,31.92H88.1165a2.4642,2.4642,0,0,1,2.4642,2.4642v8.1693a2.4649,2.4649,0,0,1-2.4649,2.4649H77.4641A2.4641,2.4641,0,0,1,75,42.5544v-8.17A2.4647,2.4647,0,0,1,77.4648,31.92Z" transform="translate(-8.2786 32.0999) rotate(-20.9216)"/><path class="d" d="M80.7594,18.2734l-6.9622,2.6615c-2.1631,2.2141-4.4045,4.066-4.84,4.9728-.9915,2.0639,3.2131,3.9914,4.84,8.4268a2.45,2.45,0,0,0,1.6909-.0227l9.949-3.8038a2.4711,2.4711,0,0,0,1.4222-3.183l-2.9172-7.6294A2.4716,2.4716,0,0,0,80.7594,18.2734Z"/><path class="d" d="M34.0016,57.5131H70.9543a2.8978,2.8978,0,0,1,2.8922,2.8851v9.5647a2.8978,2.8978,0,0,1-2.8922,2.8857H34.0016a2.8981,2.8981,0,0,1-2.8925-2.8857V60.3982A2.8981,2.8981,0,0,1,34.0016,57.5131Z"/><path class="a" d="M34.0016,42.21H70.9543a2.898,2.898,0,0,1,2.8922,2.886V54.66a2.8973,2.8973,0,0,1-2.8922,2.8851H34.0016A2.8975,2.8975,0,0,1,31.1091,54.66V45.0957A2.8983,2.8983,0,0,1,34.0016,42.21Z"/><path class="d" d="M34.0016,26.9072H70.9543a2.897,2.897,0,0,1,2.8922,2.8848v9.5647a2.8977,2.8977,0,0,1-2.8922,2.8856H34.0016a2.898,2.898,0,0,1-2.8925-2.8856V29.792A2.8972,2.8972,0,0,1,34.0016,26.9072Z"/><path class="a" d="M34.0016,11.6012H70.9543a2.8973,2.8973,0,0,1,2.8922,2.8851v9.5644a2.898,2.898,0,0,1-2.8922,2.886H34.0016a2.8983,2.8983,0,0,1-2.8925-2.886V14.4863A2.8975,2.8975,0,0,1,34.0016,11.6012Z"/><path class="d" d="M41.1937,5.2511l9.6026,2.5217a2.4328,2.4328,0,0,1,1.6654,1.9766,2.4327,2.4327,0,0,1,1.669-1.9766l9.6268-2.5217A1.3019,1.3019,0,0,1,65.4444,6.608v6.1447c0,3.5333-8.95,4.9269-11.3137,4.7605-.8711-.061-1.5522-.3147-1.669-1.1033-.1154.8065-.7957,1.1475-1.6654,1.1033-2.3354-.1194-11.2847-1.5089-11.2847-4.76V6.608A1.2991,1.2991,0,0,1,41.1937,5.2511Z"/><path class="e" d="M54.3229,57.6294H68.0205a2.8941,2.8941,0,0,1,2.8856,2.8848v9.5646a2.8943,2.8943,0,0,1-2.8856,2.8857H31.15a2.8946,2.8946,0,0,1-2.8857-2.8857V60.5142A2.8944,2.8944,0,0,1,31.15,57.6294H44.8481"/><path class="e" d="M44.8481,57.6223H31.15a2.8941,2.8941,0,0,1-2.8857-2.8851V45.1728a2.8948,2.8948,0,0,1,2.8857-2.886H44.8481m9.4748,0H68.0205a2.8945,2.8945,0,0,1,2.8856,2.886v9.5644a2.8938,2.8938,0,0,1-2.8856,2.8851H54.3229"/><path class="e" d="M44.8481,42.2806H31.15a2.8948,2.8948,0,0,1-2.8857-2.886V29.83A2.894,2.894,0,0,1,31.15,26.9452H44.8481m9.4748,0H68.0205A2.8938,2.8938,0,0,1,70.9061,29.83v9.5643a2.8945,2.8945,0,0,1-2.8856,2.886H54.3229"/><path class="e" d="M44.8481,26.9367H31.15a2.8948,2.8948,0,0,1-2.8857-2.886V14.4863A2.8941,2.8941,0,0,1,31.15,11.6012H32.618m33.935,0h1.4675a2.8938,2.8938,0,0,1,2.8856,2.8851v9.5644a2.8945,2.8945,0,0,1-2.8856,2.886H54.3229"/><path class="e" d="M7.2618,55.058l9.9491,3.805a2.47,2.47,0,0,1,1.4221,3.1819l-2.9171,7.6294a2.4724,2.4724,0,0,1-3.1828,1.4233l-9.949-3.8049A2.47,2.47,0,0,1,1.162,64.11l2.9168-7.63A2.4716,2.4716,0,0,1,7.2618,55.058Z"/><path class="f" d="M10.4917,43.0471h8.17a2.4643,2.4643,0,0,1,2.4643,2.4643V56.1639a2.4648,2.4648,0,0,1-2.4648,2.4648H10.4928a2.4653,2.4653,0,0,1-2.4653-2.4653V45.5113a2.4642,2.4642,0,0,1,2.4642-2.4642Z" transform="translate(-38.1144 46.2967) rotate(-69.0751)"/><path class="e" d="M24.878,45.5971a2.4727,2.4727,0,0,1-2.9849,1.02l-9.95-3.8041A2.47,2.47,0,0,1,10.522,39.63l2.9168-7.63a2.4707,2.4707,0,0,1,3.1819-1.4222l9.95,3.8041a2.9012,2.9012,0,0,1,1.54,1.5333"/><path class="e" d="M21.3013,18.3372l6.9621,2.6614v3.0521a2.8936,2.8936,0,0,0,2.886,2.886h.9068l-.0028.0082h-.904a2.8936,2.8936,0,0,0-2.886,2.8859v4.5675a2.45,2.45,0,0,1-1.6908-.0227l-9.9491-3.8038a2.471,2.471,0,0,1-1.4221-3.1827l2.9171-7.63A2.4717,2.4717,0,0,1,21.3013,18.3372Z"/><path class="e" d="M28.961,12.61c-3.9943-.3853-8.2845,2.1132-8.5739,5.5647a2.425,2.425,0,0,1,.9142.1621l6.9621,2.6614V14.4532l.0012-.0332v-.0074l.0008-.0255.0009-.034.0011-.0142.0009-.0187.0019-.0329.0017-.0218.0012-.0113.0028-.0321.0028-.0292v-.0036l.0037-.0332.0037-.032.0012-.0037.0036-.0292.0046-.0321.0011-.01.0037-.0216.0057-.032.0028-.017.0028-.015.0057-.0321.0048-.0235.0017-.0077.0065-.032.0077-.0312.0076-.0309.0074-.0311.002-.0066.0065-.0246.0085-.0312.0037-.0131.0048-.0178.0094-.03.0057-.02.0039-.01.0094-.0312.0085-.0263.0017-.0037.0105-.0292.0226-.06.0114-.0292.0028-.0093.0085-.02.0122-.0292.0337-.0811.004-.0068.0264-.0564H28.55l.0142-.0283.0142-.0284.002-.0056.0121-.0224.0151-.0275.015-.0272.015-.0284.01-.017.0065-.0093.0158-.0272.0134-.0239.0028-.0036.0159-.0264.017-.0264.0011-.0028.0159-.0235.0179-.0264.0048-.0076.0133-.0179.0536-.0763.0133-.019.0057-.0065.0187-.0246.0385-.0488.02-.0246.0028-.0049.0179-.02Z"/><path class="e" d="M91.9061,55.058,81.957,58.863a2.47,2.47,0,0,0-1.4221,3.1819l2.9168,7.6294a2.4726,2.4726,0,0,0,3.183,1.4233l9.9491-3.8049A2.4706,2.4706,0,0,0,98.0059,64.11l-2.9171-7.63A2.4713,2.4713,0,0,0,91.9061,55.058Z"/><path class="f" d="M79.2645,44.2887H89.917a2.465,2.465,0,0,1,2.465,2.465v8.1672a2.4661,2.4661,0,0,1-2.4661,2.4661H79.266A2.4657,2.4657,0,0,1,76.8,54.9213V46.7529a2.4642,2.4642,0,0,1,2.4642-2.4642Z" transform="translate(-12.5776 33.5639) rotate(-20.9249)"/><path class="e" d="M77.8666,18.3372l-6.9624,2.6614v3.0521a2.8934,2.8934,0,0,1-2.886,2.886h-.9065l.0028.0082h.9037a2.8934,2.8934,0,0,1,2.886,2.8859v4.5675a2.45,2.45,0,0,0,1.6908-.0227l9.9491-3.8038a2.4711,2.4711,0,0,0,1.4224-3.1827l-2.9171-7.63A2.4718,2.4718,0,0,0,77.8666,18.3372Z"/><path class="e" d="M70.2068,12.61c3.9943-.3853,8.2846,2.1132,8.574,5.5647a2.424,2.424,0,0,0-.9142.1621l-6.9624,2.6614V14.4532l-.0009-.0332v-.0074l-.0008-.0255-.0012-.034-.0008-.0142L70.9,14.32l-.002-.0329-.0019-.0218-.0009-.0113-.0028-.0321-.0029-.0292v-.0036l-.0036-.0332-.0037-.032-.0012-.0037-.0036-.0292-.0049-.0321-.0008-.01-.0037-.0216-.0057-.032-.0028-.017-.0028-.015-.0057-.0321-.0048-.0235L70.8441,13.9l-.0068-.032-.0074-.0312-.0077-.0309-.0076-.0311-.0017-.0066-.0065-.0246-.0085-.0312-.004-.0131-.0045-.0178-.01-.03-.0054-.02-.0039-.01L70.761,13.59l-.0085-.0263-.002-.0037-.01-.0292-.0227-.06-.0113-.0292-.0028-.0093-.0085-.02-.0122-.0292-.034-.0811-.0037-.0068-.0264-.0564h-.0008l-.0142-.0283-.0142-.0284-.002-.0056-.0122-.0224-.015-.0275-.015-.0272L70.53,13.07l-.0094-.017-.0065-.0093-.0161-.0272-.0131-.0239-.0028-.0036-.0162-.0264-.017-.0264-.0008-.0028-.0159-.0235-.0181-.0264-.0046-.0076-.0133-.0179-.0536-.0763-.0133-.019-.0057-.0065-.0187-.0246-.0388-.0488-.02-.0246-.0028-.0049-.0181-.02Z"/><path class="e" d="M38.3012,5.2513l9.6024,2.5215a2.424,2.424,0,0,1,1.6823,2.24v6.1441c0,.9887-.7268,1.4054-1.6823,1.3563-2.3358-.12-11.2848-1.5088-11.2848-4.76V6.6077A1.2993,1.2993,0,0,1,38.3012,5.2513Z"/><path class="e" d="M60.87,5.2513,51.2672,7.7728a2.4239,2.4239,0,0,0-1.6824,2.24v6.1441c0,.9887.7276,1.29,1.6824,1.3563,2.3581.1659,11.2847-1.2271,11.2847-4.76V6.6077A1.2993,1.2993,0,0,0,60.87,5.2513Z"/><path class="e" d="M49.5859,1C56.5886,1,62.2888,3.3005,62.485,6.17a1.5047,1.5047,0,0,0-1.9511-.83L51.6028,7.6846A2.6885,2.6885,0,0,0,49.5848,9.99a2.6872,2.6872,0,0,0-2.0169-2.3054Q43.1017,6.5115,38.6368,5.34a1.5047,1.5047,0,0,0-1.9511.83C36.8819,3.3005,42.5821,1,49.5859,1Z"/><line class="f" x1="49.5848" y1="73.0005" x2="49.5848" y2="22.6884"/><path class="e" d="M74.29,45.5971a2.4725,2.4725,0,0,0,2.9848,1.02l9.95-3.8041A2.47,2.47,0,0,0,88.6459,39.63l-2.9171-7.63a2.4705,2.4705,0,0,0-3.1819-1.4222l-9.95,3.8041a2.9,2.9,0,0,0-1.54,1.5333"/></svg>