<svg xmlns="http://www.w3.org/2000/svg" viewBox="0 0 43.4717 81.2004"><defs><style>.a{fill:#f8ee5c;}.a,.c{fill-rule:evenodd;}.b{fill:#b8cdd8;}.c,.d{fill:none;stroke:#231f20;stroke-linecap:round;stroke-linejoin:round;stroke-width:1.9998px;}</style></defs><path class="a" d="M12.5185,50.206H34.8334a8.6638,8.6638,0,0,1,8.6383,8.6383V80.2005H3.88V58.8443A8.6637,8.6637,0,0,1,12.5185,50.206Z"/><rect class="b" x="21.0635" y="14.9642" width="5.2237" height="35.2418"/><path class="a" d="M19.0149,1h9.3212a3.8428,3.8428,0,0,1,3.6088,4.0212V9.357c0-1.2475-1.6237-2.268-3.6088-2.268H19.0149c-1.9848,0-3.6085,1.0205-3.6085,2.268V5.0214A3.8428,3.8428,0,0,1,19.0149,1Z"/><path class="c" d="M9.6382,50.206H31.9534a8.6637,8.6637,0,0,1,8.638,8.6383V80.2005H1V58.8443A8.6637,8.6637,0,0,1,9.6382,50.206Z"/><path class="c" d="M16.1343,1h9.322a3.8433,3.8433,0,0,1,3.6086,4.0215v9.9428H12.5261V5.0214A3.8431,3.8431,0,0,1,16.1343,1Z"/><polyline class="c" points="18.183 46.689 18.183 14.964 23.407 14.964 23.407 46.689"/><line class="d" x1="8.9346" y1="80.2005" x2="8.9346" y2="65.1936"/><line class="d" x1="16.8419" y1="80.2005" x2="16.8419" y2="65.1936"/><line class="d" x1="24.7488" y1="80.2005" x2="24.7488" y2="65.1936"/><line class="d" x1="32.6575" y1="80.2005" x2="32.6575" y2="65.1936"/><path class="c" d="M6.6918,60.8569c0-3.21.7538-5.1611,4.1386-5.1611h19.93c3.3852,0,4.1386,1.9514,4.1386,5.1611"/><path class="c" d="M16.1346,1h9.3215a3.8428,3.8428,0,0,1,3.6085,4.0212V9.357c0-1.2475-1.6237-2.268-3.6085-2.268H16.1346c-1.9848,0-3.6085,1.0205-3.6085,2.268V5.0214A3.8428,3.8428,0,0,1,16.1346,1Z"/></svg>