<svg xmlns="http://www.w3.org/2000/svg" viewBox="0 0 71.6436 81.2004"><defs><style>.a{fill:#8e5f3a;}.a,.b,.c,.d{fill-rule:evenodd;}.b{fill:#c2944f;}.c,.d,.e{fill:none;stroke:#231f20;stroke-width:1.9998px;}.c{stroke-miterlimit:2.6131;}.d,.e{stroke-linecap:round;stroke-linejoin:round;}</style></defs><path class="a" d="M7.4781,19.1836h23.78a26.0291,26.0291,0,0,1,.5528,6.0755H6.9228A26.0264,26.0264,0,0,1,7.4781,19.1836Z"/><path class="b" d="M17.3793,65.0238c-3.5569-6.63-7.6918-14.455-10.5928-22.5037C3.7619,34.13,2.1153,25.5542,3.8932,17.9129l.0209-.08C5.533,10.9427,8.5766,6.1522,12.16,3.5052a12.1008,12.1008,0,0,1,7.2138-2.5041,12.0374,12.0374,0,0,1,7.2145,2.4911c3.5847,2.6469,6.6294,7.4522,8.25,14.4025,1.7813,7.6433.1369,16.2221-2.8871,24.6158C29.05,50.5643,24.9132,58.3919,21.354,65.0272V78.2131a1.9874,1.9874,0,1,1-3.9747,0V65.0238ZM10.5135,41.185a151.8467,151.8467,0,0,0,8.8543,19.14,151.81,151.81,0,0,0,8.856-19.15c2.7927-7.7508,4.33-15.5877,2.7476-22.38-1.3927-5.9718-3.8735-10-6.7436-12.12A8.1386,8.1386,0,0,0,19.3734,4.96,8.1832,8.1832,0,0,0,14.52,6.6879c-2.8763,2.1255-5.3606,6.1441-6.7462,12.06l-.0136.0647C6.18,25.6027,7.7205,33.4376,10.5135,41.185Z"/><path class="a" d="M43.5479,62.0168h23.78a26.013,26.013,0,0,0,.5531-6.0755H42.9929A26.0206,26.0206,0,0,0,43.5479,62.0168Z"/><path class="b" d="M53.4493,16.1766c-3.5569,6.63-7.6918,14.455-10.5928,22.5037-3.0246,8.39-4.6712,16.9659-2.8933,24.6073l.0207.08c1.6191,6.89,4.6627,11.68,8.2454,14.3274a11.6679,11.6679,0,0,0,14.4286.0131c3.5844-2.647,6.6294-7.4523,8.25-14.4026,1.7813-7.6433.1369-16.2221-2.8871-24.6157C65.12,30.6362,60.9832,22.8086,57.424,16.1732V2.9873a1.9874,1.9874,0,1,0-3.9747,0V16.1766ZM46.5835,40.0154a151.8467,151.8467,0,0,1,8.8543-19.14,151.7972,151.7972,0,0,1,8.856,19.15c2.7924,7.7507,4.3305,15.588,2.7473,22.38-1.3923,5.9721-3.8732,10-6.7436,12.12a7.7048,7.7048,0,0,1-9.7078-.013c-2.8763-2.1254-5.3606-6.1441-6.7465-12.06l-.0133-.0646C42.25,55.5978,43.7905,47.7631,46.5835,40.0154Z"/><path class="c" d="M15.219,65.0238c-3.5569-6.63-7.6915-14.455-10.5928-22.5037C1.6016,34.13-.045,25.5542,1.7329,17.9129l.021-.08c1.6188-6.89,4.6627-11.6807,8.2454-14.3277a12.1009,12.1009,0,0,1,7.2139-2.5041,12.0374,12.0374,0,0,1,7.2144,2.4911c3.5847,2.6469,6.6294,7.4522,8.25,14.4025,1.7813,7.6433.1369,16.2221-2.8868,24.6158C26.89,50.5643,22.7529,58.3919,19.194,65.0272V78.2131a1.9875,1.9875,0,0,1-3.975,0V65.0238ZM8.3532,41.185a151.8889,151.8889,0,0,0,8.8543,19.14,151.8109,151.8109,0,0,0,8.8563-19.15c2.7924-7.7508,4.33-15.5877,2.7473-22.38-1.3926-5.9718-3.8735-10-6.7436-12.12A8.1386,8.1386,0,0,0,17.2132,4.96,8.1824,8.1824,0,0,0,12.36,6.6879c-2.8766,2.1255-5.3609,6.1441-6.7465,12.06L5.6,18.8129C4.02,25.6027,5.56,33.4376,8.3532,41.185Z"/><path class="d" d="M8.6987,19.1836H25.716m.3957,6.0755H8.3013"/><path class="d" d="M25.01,15.7619l-.6318.663M13.3263,28.0184,8.87,32.6927"/><line class="e" x1="24.5645" y1="28.0184" x2="11.4543" y2="41.4155"/><line class="e" x1="22.9975" y1="41.4503" x2="14.855" y2="49.992"/><line class="e" x1="20.4688" y1="8.7368" x2="13.1403" y2="16.4249"/><path class="d" d="M25.5425,32.6927l-4.4558-4.6743M10.0347,16.4249l-.63-.6613"/><line class="e" x1="22.8292" y1="41.2842" x2="9.8493" y2="28.0184"/><line class="e" x1="19.5588" y1="49.9925" x2="11.416" y2="41.4515"/><line class="e" x1="21.2732" y1="16.4249" x2="13.955" y2="8.7473"/><path class="c" d="M51.289,16.1766c-3.5569,6.63-7.6918,14.455-10.5928,22.5037-3.0245,8.39-4.6712,16.9659-2.8933,24.6073l.0207.08c1.6191,6.89,4.6627,11.68,8.2457,14.3274a11.6674,11.6674,0,0,0,14.4283.0131c3.5844-2.647,6.6294-7.4523,8.25-14.4026,1.7813-7.6433.1369-16.2221-2.8871-24.6157-2.901-8.0538-7.0376-15.8814-10.5968-22.5168V2.9873a1.9874,1.9874,0,1,0-3.9747,0V16.1766ZM44.4232,40.0154a151.8608,151.8608,0,0,1,8.8543-19.14,151.7972,151.7972,0,0,1,8.856,19.15c2.7924,7.7507,4.3305,15.588,2.7474,22.38-1.3924,5.9721-3.8733,10-6.7437,12.12a7.7048,7.7048,0,0,1-9.7078-.013c-2.8763-2.1254-5.3606-6.1441-6.7464-12.06l-.0134-.0646C40.0893,55.5978,41.63,47.7631,44.4232,40.0154Z"/><path class="d" d="M44.7688,62.0168H61.786m.3954-6.0755h-17.81"/><path class="d" d="M61.08,65.4385l-.6322-.663M49.3963,53.1821,44.94,48.5077"/><line class="e" x1="60.6346" y1="53.1821" x2="47.5243" y2="39.785"/><line class="e" x1="59.0673" y1="39.7501" x2="50.925" y2="31.2085"/><line class="e" x1="56.5388" y1="72.4636" x2="49.2104" y2="64.7755"/><path class="d" d="M61.6125,48.5077l-4.4558,4.6744M46.1047,64.7755l-.63.6613"/><line class="e" x1="58.8989" y1="39.9165" x2="45.9193" y2="53.1821"/><line class="e" x1="55.6289" y1="31.2079" x2="47.486" y2="39.749"/><line class="e" x1="57.343" y1="64.7755" x2="50.0248" y2="72.4531"/></svg>