<svg xmlns="http://www.w3.org/2000/svg" viewBox="0 0 93.6326 56.0006"><defs><style>.a{fill:#c2944f;}.a,.b,.c,.d,.e{fill-rule:evenodd;}.b{fill:#f8abad;}.c{fill:#fffcd5;}.d{fill:#d1d3d4;}.e{fill:none;stroke:#231f20;stroke-linecap:round;stroke-linejoin:round;stroke-width:1.9998px;}</style></defs><path class="a" d="M51.4106,1c20.68,0,37.4431,11.9919,37.4431,26.7854,0,7.9642-4.86,15.1149-12.5722,20.0205H43.7332c.7793-4.9516-.1425-12.5957-.1425-23.51S43.545,3.9771,37.372,3.9771c-.2154,0-.4844-.4938-.6965-.4675-.2418.03-.5459-.17-.7843-.1065A50.1454,50.1454,0,0,1,51.4106,1Z"/><path class="b" d="M37.2566,3.22c6.1725,0,11.1753,10.9985,11.1753,24.5648,0,8.26-1.8547,15.5676-4.6987,20.0211h-3.44c-2.9747-6.27-8.6964-13.5757-14.2044-19.1409q-.0076-.438-.0071-.88C26.0816,14.2184,31.0845,3.22,37.2566,3.22Z"/><path class="c" d="M37.2566,35.1236c1.8392,0,3.3392-3.2967,3.3392-7.3392s-1.5-7.3394-3.3392-7.3394-3.3389,3.2969-3.3389,7.3394S35.4175,35.1236,37.2566,35.1236Z"/><path class="d" d="M93.6326,47.8058a7.965,7.965,0,0,1-7.8111,7.1949H13.1128a7.965,7.965,0,0,1-7.8111-7.1949Z"/><path class="b" d="M40.2931,47.8058c-3.812-8.0351-12.1357-17.7721-18.74-23.366C8.5658,13.4439-1.0131,23.22,6.5591,28.2039c1.8372,1.2093,3.4464,2.19,4.955,3.1244,5.3816,3.3327,9.4943,6.0763,18.1936,16.4775Z"/><path class="a" d="M40.2931,47.8058c-3.812-8.0351-12.1357-17.7721-18.74-23.366-9.7776-8.2786-17.6216-4.7834-17.6712-.4229,4.4512-1.0692,8.8489-1.25,16.0852,4.877A73.71,73.71,0,0,1,35.6845,47.8058Z"/><path class="e" d="M23.3317,24.0231C24.1532,12.2426,28.7861,3.22,34.3766,3.22c6.1725,0,11.1753,10.9985,11.1753,24.5648,0,8.26-1.855,15.5676-4.6987,20.0211h-3.44"/><path class="e" d="M48.53,1c20.68,0,37.4434,11.9919,37.4434,26.7854,0,7.9642-4.86,15.1149-12.5722,20.0205H40.8532c2.8437-4.4527,4.6987-11.7607,4.6987-20.0211,0-13.5672-5.0028-24.5648-11.1753-24.5648a5.25,5.25,0,0,0-1.3654.1832A50.1449,50.1449,0,0,1,48.53,1Z"/><path class="e" d="M49.07,4.3941c3.4214,5.7149,5.5794,14.0743,5.5794,23.3906A52.8439,52.8439,0,0,1,52,44.7489"/><path class="e" d="M58.2636,4.8229c3.2749,5.7005,5.3275,13.877,5.3275,22.9618a52.8347,52.8347,0,0,1-2.65,16.9642"/><path class="e" d="M68.5815,8.7931A49.0875,49.0875,0,0,1,72.2461,28.071a51.1373,51.1373,0,0,1-2.6513,16.6779"/><path class="e" d="M78.53,17.0876a55.237,55.237,0,0,1,.36,19.7544"/><path class="e" d="M76.2276,40.5123a62.9057,62.9057,0,0,0-28.6682,2.599"/><path class="e" d="M81.974,32.3255c-7.84-3.9886-19.9769-4.4912-32.8615-.6361"/><path class="e" d="M81.7662,22.2563c-7.2133-5.0261-19.6611-6.2742-33.165-2.7179"/><path class="e" d="M61.3066,6.8455A61.5815,61.5815,0,0,0,45.9618,9.0029"/><path class="e" d="M34.3766,35.1236c1.8392,0,3.339-3.2967,3.339-7.3392s-1.5-7.3394-3.339-7.3394-3.3389,3.2969-3.3389,7.3394S32.5375,35.1236,34.3766,35.1236Z"/><path class="e" d="M90.7526,47.8058a7.965,7.965,0,0,1-7.8111,7.1949H10.2328a7.965,7.965,0,0,1-7.8111-7.1949Z"/><path class="e" d="M37.4131,47.8058c-3.812-8.0351-12.1357-17.7721-18.74-23.366C5.6858,13.4439-3.8931,23.22,3.6791,28.2039c1.8369,1.2093,3.4464,2.19,4.955,3.1244,5.3816,3.3327,9.4943,6.0763,18.1933,16.4775Z"/><path class="e" d="M37.4131,47.8058c-3.812-8.0351-12.1357-17.7721-18.74-23.366-9.7778-8.2786-17.6219-4.7834-17.6712-.4229,4.4512-1.0692,8.8489-1.25,16.0852,4.877A73.71,73.71,0,0,1,32.8045,47.8058Z"/></svg>