<svg xmlns="http://www.w3.org/2000/svg" viewBox="0 0 75.8771 73.9978"><defs><style>.a,.c{fill:#fff685;}.a,.b,.d,.e{fill-rule:evenodd;}.b{fill:#5d9cc3;}.d{fill:#231f20;}.e,.f{fill:none;stroke:#231f20;stroke-linecap:round;stroke-linejoin:round;stroke-width:1.9998px;}</style></defs><path class="a" d="M72.0341,4.85l.0005,0c5.025,5.025,5.3626,14.0332-.4229,18.6942C50.1359,40.8464,43.5419,47.0892,26.4371,68.72c-4.6077,5.8269-13.6709,5.4462-18.6942.4226l-.0006,0c-5.0238-5.0242-5.4161-14.0987.4227-18.6945C30.0246,33.2431,35.9629,26.9966,53.34,5.2725,57.9822-.53,67.0094-.1751,72.0341,4.85Z"/><path class="b" d="M46.7082,20.6306l9.6143,5.5508a5.3751,5.3751,0,0,1,1.9618,7.32h0a5.3754,5.3754,0,0,1-7.321,1.9621L41.349,29.9129a5.3747,5.3747,0,0,1-1.9615-7.321h0A5.375,5.375,0,0,1,46.7082,20.6306Z"/><rect class="c" x="45.5909" y="26.6362" width="10.7184" height="5.2635" transform="translate(0.1287 58.7588) rotate(-60.0009)"/><path class="b" d="M30.8047,38.2281l7.85,7.85a5.3752,5.3752,0,0,1,.0006,7.5789h0a5.3754,5.3754,0,0,1-7.58,0l-7.85-7.85a5.3749,5.3749,0,0,1,0-7.5793h0A5.3747,5.3747,0,0,1,30.8047,38.2281Z"/><rect class="c" x="27.3075" y="45.0371" width="10.7185" height="5.2637" transform="translate(-24.1398 37.0638) rotate(-45.0031)"/><path class="b" d="M53.46,5.1273l21.45,14.0406a11.1776,11.1776,0,0,1-3.2973,4.3767l-.1258.1012L49.92,9.5287c1.0927-1.3524,2.2283-2.7663,3.42-4.2559Z"/><path class="b" d="M75.8384,13.2826,58.2347,1.76A13.4077,13.4077,0,0,1,72.0341,4.85l.0005,0A13.4006,13.4006,0,0,1,75.8384,13.2826Z"/><path class="b" d="M3.9068,60.4761,21.7636,72.165A13.4226,13.4226,0,0,1,7.7429,69.1421l-.0006,0A13.508,13.508,0,0,1,3.9068,60.4761Z"/><path class="b" d="M8.4394,50.2314,29.95,64.3113c-1.1245,1.3975-2.291,2.8625-3.513,4.4079l-.006.0071L4.9119,54.6409a10.95,10.95,0,0,1,3.2534-4.1935Z"/><path class="d" d="M51.8539,18.1542a1.2765,1.2765,0,0,1,.3742.9049l0,0a1.28,1.28,0,1,1-2.56,0l.0006,0A1.2766,1.2766,0,0,1,50.948,17.78h.0011a1.2761,1.2761,0,0,1,.9048.3739Zm3.9926,3.9926a1.2765,1.2765,0,0,1,.3742.9049l0,0a1.28,1.28,0,1,1-2.56,0l.0006,0a1.2766,1.2766,0,0,1,1.2787-1.2788h.0011A1.2761,1.2761,0,0,1,55.8465,22.1468Z"/><path class="d" d="M19.9792,50.0293a1.2741,1.2741,0,0,1,.3739.9048l.0006.0005a1.28,1.28,0,1,1-2.56,0l0-.0005a1.2771,1.2771,0,0,1,1.2788-1.279h.0011a1.2767,1.2767,0,0,1,.9048.3742Zm3.9926,3.9926a1.2741,1.2741,0,0,1,.3739.9048l.0006.0005a1.28,1.28,0,1,1-2.56,0l0-.0005a1.2771,1.2771,0,0,1,1.2788-1.279h.0011A1.2767,1.2767,0,0,1,23.9718,54.0219Z"/><path class="e" d="M41.7669,15.9665c.354-.4238.7095-.855,1.0712-1.2912C45.1585,11.87,47.66,8.77,50.46,5.2713,55.1007-.53,64.1291-.1766,69.1541,4.8484l.0005.0006c5.0247,5.025,5.3623,14.0332-.4232,18.6945-2.8814,2.3218-5.4961,4.4441-7.9024,6.4309-.2863.2364-.5729.4728-.8566.71M53.5,35.4776a174.4976,174.4976,0,0,0-17.814,18.26M31.313,59.11c-2.3735,2.8607-4.92,6.0224-7.7559,9.6077-4.6086,5.826-13.6712,5.4465-18.6945.4232L4.862,69.14C-.1618,64.1166-.5541,55.0423,5.285,50.446c3.6028-2.8355,6.7719-5.3731,9.6321-7.7321M20.3,38.23A164.5226,164.5226,0,0,0,37.03,21.5969"/><path class="e" d="M43.8279,20.63,53.4422,26.18a5.3748,5.3748,0,0,1,1.9619,7.32h0a5.3753,5.3753,0,0,1-7.3211,1.9619l-9.6143-5.5508a5.3752,5.3752,0,0,1-1.9615-7.3213h0A5.3747,5.3747,0,0,1,43.8279,20.63Z"/><rect class="f" x="42.7107" y="26.6348" width="10.7184" height="5.2638" transform="translate(-1.3109 56.2628) rotate(-59.9997)"/><path class="e" d="M27.9247,38.2269l7.85,7.85a5.375,5.375,0,0,1,0,7.5787h0a5.3749,5.3749,0,0,1-7.5793,0l-7.85-7.85a5.3754,5.3754,0,0,1,0-7.58h0A5.3752,5.3752,0,0,1,27.9247,38.2269Z"/><rect class="f" x="24.4274" y="45.036" width="10.7184" height="5.2637" transform="translate(-24.9819 35.0239) rotate(-45)"/><path class="e" d="M5.3388,63.2977l8.2344,5.39m6.0208-2.5526L6.164,57.3446M9.36,52.7182l14.199,9.2934M54.5812,7.7457l13.3217,8.72M64.7771,21.138,50.5659,11.8355m18.0626-1.3881L60.7213,5.2713"/></svg>