<svg xmlns="http://www.w3.org/2000/svg" viewBox="0 0 79.2085 66.7998"><defs><style>.a{fill:#fffcd5;}.a,.b,.c{fill-rule:evenodd;}.b{fill:#f8abad;}.c{fill:none;stroke:#231f20;stroke-linecap:round;stroke-linejoin:round;stroke-width:1.9998px;}</style></defs><path class="a" d="M17.0965,36.4117A5.9812,5.9812,0,0,1,22.6289,40.11V62.1a5.9857,5.9857,0,0,1-11.3564-.9054A5.9857,5.9857,0,0,1,5.4484,51.1059,5.9851,5.9851,0,0,1,11.2725,41.018,5.9811,5.9811,0,0,1,17.0965,36.4117Z"/><path class="a" d="M65.6792,36.4117A5.9816,5.9816,0,0,0,60.1466,40.11V62.1a5.9857,5.9857,0,0,0,11.3564-.9054,5.9856,5.9856,0,0,0,5.8241-10.0888A5.985,5.985,0,0,0,71.503,41.018,5.9811,5.9811,0,0,0,65.6792,36.4117Z"/><path class="b" d="M41.2253,1h.3263A26.463,26.463,0,0,1,67.9441,27.3935v9.4618a5.998,5.998,0,0,0-5.7736.6911V27.3935a20.69,20.69,0,0,0-20.6189-20.62h-.3263a20.69,20.69,0,0,0-20.62,20.62V37.5472a5.9959,5.9959,0,0,0-5.7736-.6919V27.3935A26.463,26.463,0,0,1,41.2253,1Z"/><path class="c" d="M14.5292,36.4117A5.982,5.982,0,0,1,20.0619,40.11V62.1a5.986,5.986,0,0,1-11.3568-.9054A5.9855,5.9855,0,0,1,2.8813,51.1059,5.9849,5.9849,0,0,1,8.7051,41.018,5.9813,5.9813,0,0,1,14.5292,36.4117Z"/><path class="c" d="M63.1119,36.4117A5.982,5.982,0,0,0,57.5792,40.11V62.1a5.986,5.986,0,0,0,11.3568-.9054A5.9855,5.9855,0,0,0,74.76,51.1059,5.9849,5.9849,0,0,0,68.936,41.018,5.9813,5.9813,0,0,0,63.1119,36.4117Z"/><path class="c" d="M12.2646,31.8983V27.3935A26.463,26.463,0,0,1,38.6583,1h.3259A26.463,26.463,0,0,1,65.3771,27.3935v4.5048m-5.7736.8108V27.3935a20.69,20.69,0,0,0-20.6193-20.62h-.3259a20.6892,20.6892,0,0,0-20.62,20.62v5.3156"/><path class="c" d="M13.149,55.4871a4.5029,4.5029,0,0,1,0-8.7638"/><path class="c" d="M64.4921,55.4871a4.503,4.503,0,0,0,0-8.7638"/></svg>