<svg xmlns="http://www.w3.org/2000/svg" viewBox="0 0 81.7652 55.9992"><defs><style>.a{fill:#e64e53;}.a,.c,.d{fill-rule:evenodd;}.b{fill:#808285;}.c{fill:#bcbec0;}.d{fill:none;stroke:#231f20;stroke-linecap:round;stroke-linejoin:round;stroke-width:1.9998px;}</style></defs><path class="a" d="M31.5617,13.9392H62.55c2.2192,0,4.0348,2.5274,4.0348,4.7438v.0011a3.9969,3.9969,0,0,1-.2313,1.3439l-22.7987,6.79L19.29,20.028a3.9993,3.9993,0,0,1-.2313-1.3439V18.683a5.2669,5.2669,0,0,1,1.006-3.3242l10.4-13.0255A2.6228,2.6228,0,0,1,33.0876,1H59.477a3.4684,3.4684,0,0,1,3.4585,3.46h0A3.4709,3.4709,0,0,1,59.477,7.9184L35.9423,7.9116Z"/><path class="b" d="M18.6366,20.028H67.0081A14.7571,14.7571,0,0,1,81.7652,34.7851v5.4571A14.7571,14.7571,0,0,1,67.0081,54.9993H18.6368A14.7571,14.7571,0,0,1,3.88,40.2422V34.7849A14.7569,14.7569,0,0,1,18.6366,20.028Z"/><path class="c" d="M4.2527,31.4928h77.14a14.6511,14.6511,0,0,1,.3727,3.2921v5.4573a14.6538,14.6538,0,0,1-.3727,3.2924H4.2527a14.6481,14.6481,0,0,1-.373-3.2924V34.7849A14.6454,14.6454,0,0,1,4.2527,31.4928Z"/><path class="d" d="M67.685,20.4646a14.814,14.814,0,0,1,11.2,14.3206v5.4584A14.7991,14.7991,0,0,1,64.1278,54.9993H15.7557A14.7983,14.7983,0,0,1,1,40.2436V34.7852A14.8142,14.8142,0,0,1,12.2005,20.4646"/><path class="d" d="M28.6817,13.9392H59.67c2.2192,0,4.0348,2.5274,4.0348,4.7438v.0011a3.99,3.99,0,0,1-.2316,1.3439H16.41a3.9993,3.9993,0,0,1-.2313-1.3439V18.683a5.2669,5.2669,0,0,1,1.006-3.3242l10.4-13.0255A2.623,2.623,0,0,1,30.2076,1H56.5967a3.4684,3.4684,0,0,1,3.4588,3.46h0a3.471,3.471,0,0,1-3.4588,3.4588L33.0621,7.9116Z"/><path class="d" d="M73.36,43.5346H6.5244m0-12.0421H73.36"/></svg>