<svg xmlns="http://www.w3.org/2000/svg" viewBox="0 0 71.2375 81.1998"><defs><style>.a{fill:#2db66f;}.a,.b,.c{fill-rule:evenodd;}.b{fill:#e64e53;}.c,.d{fill:none;stroke:#231f20;stroke-linecap:round;stroke-linejoin:round;stroke-width:1.9998px;}</style></defs><path class="a" d="M38.4952,1C48.1239,1,56.5043,4.4026,61.52,9.3312l-.0309.036-4.0963,7.8894L49.8375,20.96a20.4672,20.4672,0,0,0-11.3423-3.2142,20.4406,20.4406,0,0,0-11.344,3.2122l-6.69-3.8818L15.5008,9.3672l-.03-.0348C20.4853,4.3958,28.8577,1,38.4952,1Z"/><path class="b" d="M15.5008,9.3672l49.0913,48.84a2.5517,2.5517,0,0,1,.0289,3.5844L54.1014,72.48a2.5458,2.5458,0,0,1-3.5856.029L17.02,39.69C4.2966,27.2235,10.193,13.5534,15.5008,9.3672Z"/><polygon class="a" points="38.558 32.307 46.438 40.146 32.008 54.498 24.068 46.719 38.558 32.307"/><path class="a" d="M24.3554,18.1759l7.88,7.8406L17.7714,40.427,17.02,39.69a26.5437,26.5437,0,0,1-5.91-8.3183Z"/><path class="b" d="M61.4887,9.3672,38.4944,32.2431,52.7481,46.7463,59.97,39.69c12.742-12.4478,6.8267-26.1369,1.5188-30.3231ZM24.0677,46.5966,38.4944,60.7307,26.4738,72.509a2.5458,2.5458,0,0,1-3.5856-.029l-10.52-10.6883a2.5517,2.5517,0,0,1,.0289-3.5844Z"/><polygon class="a" points="32.41 54.77 38.443 60.781 30.503 68.561 16.256 54.368 24.068 46.596 32.41 54.77"/><path class="a" d="M52.6662,18.1444l-7.8806,7.84L59.2508,40.3955,59.97,39.69a26.5058,26.5058,0,0,0,5.9284-8.3628Z"/><path class="b" d="M38.4958,1a39.1423,39.1423,0,0,1,8.8608,1.001L43.9845,18.4131a22.9637,22.9637,0,0,0-10.9791-.0022L29.6335,1.9983A39.2164,39.2164,0,0,1,38.4958,1Z"/><polygon class="a" points="52.884 46.559 60.765 54.399 46.519 68.592 38.577 60.812 52.884 46.559"/><path class="c" d="M12.6248,9.3672l49.0913,48.84a2.552,2.552,0,0,1,.0289,3.5844L51.225,72.48a2.5454,2.5454,0,0,1-3.5852.029L14.1433,39.69C1.42,27.2235,7.3169,13.5534,12.6248,9.3672Z"/><path class="c" d="M54.58,57.5979,43.6424,68.5923l-7.941-7.78L46.7,49.7572M40.2538,43.345,29.2064,54.4489l-7.94-7.78L32.3744,35.5052m-6.323-6.29L14.8951,40.427l-.7518-.7367a26.553,26.553,0,0,1-5.91-8.3183l9.9374-9.9975"/><path class="c" d="M58.6127,9.3672,35.618,32.2431,50.0455,46.5966,57.0939,39.69C69.8169,27.2235,63.92,13.5534,58.6127,9.3672ZM21.1917,46.5966,9.5212,58.2073a2.5519,2.5519,0,0,0-.0289,3.5844L20.0122,72.48a2.5454,2.5454,0,0,0,3.5852.029L35.618,60.7307Z"/><path class="c" d="M27.6266,68.5606,16.6616,57.637m28.529-28.3836L56.3747,40.3955l.72-.7052a26.5134,26.5134,0,0,0,5.9283-8.3628L53.071,21.4136"/><path class="c" d="M35.6192,1C45.2479,1,53.628,4.4026,58.6436,9.3312l-.0309.036L46.9612,20.96a20.4662,20.4662,0,0,0-11.342-3.2142,20.4391,20.4391,0,0,0-11.344,3.2122L12.6248,9.3672l-.03-.0348C17.6093,4.3958,25.9814,1,35.6192,1Z"/><line class="d" x1="6.6307" y1="64.6839" x2="0.9999" y2="70.2118"/><line class="d" x1="9.9027" y1="68.0092" x2="4.2677" y2="73.5416"/><line class="d" x1="13.175" y1="71.3331" x2="7.5361" y2="76.8701"/><line class="d" x1="16.4479" y1="74.6593" x2="10.8044" y2="80.1999"/><line class="d" x1="64.6068" y1="64.6839" x2="70.2376" y2="70.2118"/><line class="d" x1="61.3348" y1="68.0092" x2="66.9698" y2="73.5416"/><line class="d" x1="58.0625" y1="71.3331" x2="63.7014" y2="76.8701"/><line class="d" x1="54.7896" y1="74.6593" x2="60.4331" y2="80.1999"/><path class="c" d="M43.6237,6.1751,41.109,18.4131M30.13,18.4109,27.6153,6.1729"/></svg>