<svg xmlns="http://www.w3.org/2000/svg" viewBox="0 0 112.3099 62.2706"><defs><style>.a{fill:#d9d5b3;}.a,.b,.c,.d{fill-rule:evenodd;}.b{fill:#fffcd5;}.c{fill:none;stroke:#231f20;stroke-linecap:round;stroke-linejoin:round;stroke-width:1.9998px;}.d{fill:#231f20;}</style></defs><path class="a" d="M16.455,48.6072a26.6357,26.6357,0,0,0-3.4444,7.0708l5.3555.8367,1.3394,4.017H3.8048c0-7.287,2.736-17.5725,7.325-23.7676A45.5615,45.5615,0,0,0,16.455,48.6072Z"/><path class="a" d="M65.972,42.95a46.2913,46.2913,0,0,0-7.6881,13.2823l4.7446.7413,1.1869,3.5583H50.1283c-.288-5.8331,1.491-13.2474,4.2055-19.0136a31.8044,31.8044,0,0,0,11.613-3.871A32.2423,32.2423,0,0,0,65.972,42.95Z"/><path class="b" d="M27.4486,61.2478H42.0105l-1.0038-4.519-5.8589-1.1719c-3.617-6.2019-6.7476-15.6,4.48-15.7354,6.3536-.0768,12.117,5.3314,26.3183-2.1742a27.9206,27.9206,0,0,0,9.2262,23.6234H88.0618l-1.5281-5.044-5.6909-1.8416c-4.06-7.7275-3.5807-15.2972-.2075-21.2658,2.5555-4.5329,15.7125-11.6538,20.7426-12.0869,7.3471-.6327,9.3143-1.2728,10.932-7.99L103.272,10.03C100.5793,4.9426,94.7882,4,90.3037,4.8686L89.7331,3.05a2.9354,2.9354,0,0,0-3.6689-1.9165h0a2.9355,2.9355,0,0,0-1.9165,3.6692l.7532,2.4015c-15.8819,9.7682-13.4668-1.8-30.9807,3.99-7.6564,2.5331-21.0608-6.1741-35.4036,2.2728a16.4322,16.4322,0,0,0-7.8548,10.1577c-5.7228,1.6152-5.7,9.3127-.5751,7.4463C10.977,41.64,18.2655,53.6883,27.4486,61.2478Z"/><path class="c" d="M11.95,51.4356a31.715,31.715,0,0,0-1.7442,4.2424l5.3555.8367,1.3394,4.017H1A47.0038,47.0038,0,0,1,6.1071,40.3233"/><path class="c" d="M60.502,46.5487a42.72,42.72,0,0,0-5.023,9.6834l4.7446.7413,1.1869,3.5583H47.3234a41.8529,41.8529,0,0,1,2.85-15.7918"/><path class="c" d="M79.3555,8.7779c-12.9181,6.8312-11.8086-3.0169-28.24,2.4168C43.46,13.7258,30.0545,5.0206,15.7117,13.4675A16.4322,16.4322,0,0,0,7.8569,23.6252c-5.7228,1.6152-5.7,9.3127-.5751,7.4463.89,10.5684,8.1788,22.6168,17.3619,30.1763H39.2056l-1.0035-4.519-5.8589-1.1719c-3.617-6.2019-6.7479-15.6,4.48-15.7354,6.3539-.0768,12.1173,5.3314,26.3183-2.1742a27.9214,27.9214,0,0,0,9.2262,23.6234H85.2569l-1.5281-5.044-5.6909-1.8416c-4.06-7.7275-3.5807-15.2972-.2074-21.2658,2.5554-4.5329,15.7124-11.6538,20.7425-12.0869,7.3474-.6327,9.3146-1.2728,10.9321-7.99l-9.038-3.0121C97.7745,4.9426,91.9833,4,87.4989,4.8686l-.57-1.8184a2.9355,2.9355,0,0,0-3.6691-1.9165h0a2.9353,2.9353,0,0,0-1.9165,3.6692l.7531,2.4015"/><path class="d" d="M95.5076,12.4459a1.6516,1.6516,0,1,0-1.6518-1.6517A1.6551,1.6551,0,0,0,95.5076,12.4459Z"/><path class="d" d="M109.6664,11.2338h0a1.7836,1.7836,0,0,1,1.2407,2.1884l-.4524,1.6361a1.7839,1.7839,0,0,1-2.1887,1.24h0a1.7836,1.7836,0,0,1-1.24-2.1884l.4524-1.6361A1.7834,1.7834,0,0,1,109.6664,11.2338Z"/></svg>