<svg xmlns="http://www.w3.org/2000/svg" viewBox="0 0 83.278 74.0006"><defs><style>.a,.c{fill:#808285;}.a,.b,.d,.e,.f,.h{fill-rule:evenodd;}.b{fill:#c83e43;}.d{fill:#e64e53;}.e{fill:#fffcd5;}.f,.g{fill:none;stroke:#231f20;stroke-linecap:round;stroke-linejoin:round;stroke-width:1.9998px;}.h{fill:#231f20;}</style></defs><path class="a" d="M54.5061,33.1615V26.5573L66.1505,15.312l6.0863,6.0862L63.372,30.13V42.1685a4.9014,4.9014,0,0,0-.5823-.034H38.6805V33.8908a2.0614,2.0614,0,0,1,2.07-2.0423H52.5731A2.0759,2.0759,0,0,1,54.5061,33.1615Z"/><path class="b" d="M36.8323,42.7485l-.3982-.712L15.8837,6.31H3.445L3.443,1H18.6693L38.55,35.9133l.2032.334V42.59h-.6613A5.04,5.04,0,0,0,36.8323,42.7485Z"/><rect class="c" x="3.444" y="0.9999" width="9.7981" height="5.3101"/><path class="b" d="M38.02,42.0384H62.79a5.0368,5.0368,0,0,1,1.7113.2991l-5.0448,22.46H47.2L32.9384,47.8177V47.12A5.096,5.096,0,0,1,38.02,42.0384Z"/><path class="d" d="M83.011,33.3066h.002l.265.004V72.0749H66.0805c-6.9466,0-6.6223-5.7484-6.6223-8.0059V56.86A23.6214,23.6214,0,0,1,83.011,33.3066Z"/><circle class="c" cx="35.3183" cy="60.2975" r="12.7032" transform="translate(-33.8742 70.0732) rotate(-67.6827)"/><path class="e" d="M35.3181,66.12a5.8224,5.8224,0,1,0-5.8224-5.8224A5.8338,5.8338,0,0,0,35.3181,66.12Z"/><path class="f" d="M80.5678,33.3066h.002l.265.004V72.0749H63.6373c-6.9466,0-6.6226-5.7484-6.6226-8.0059V56.86A23.6216,23.6216,0,0,1,80.5678,33.3066Z"/><circle class="g" cx="32.8752" cy="60.2975" r="12.7031" transform="translate(-9.1994 6.0177) rotate(-9.1809)"/><path class="f" d="M32.8749,66.12a5.8224,5.8224,0,1,0-5.8224-5.8224A5.8336,5.8336,0,0,0,32.8749,66.12Z"/><path class="f" d="M30.4952,47.12a5.096,5.096,0,0,1,5.0811-5.0811h24.77a5.0375,5.0375,0,0,1,1.7112.2991A23.4182,23.4182,0,0,0,57.0147,56.86V64.069l-.002.7282H48.49"/><path class="f" d="M51.9838,42.0384H36.2373V33.8908A2.0472,2.0472,0,0,1,38.28,31.8485H48.447"/><polyline class="f" points="52.063 42.038 52.063 26.557 63.707 15.312 69.794 21.398 60.929 30.13 60.929 37.99"/><polyline class="f" points="32.282 39.065 13.441 6.31 1.002 6.31 1 1 16.226 1 33.33 31.037"/><rect class="g" x="1.0008" y="0.9999" width="9.798" height="5.3101"/><path class="h" d="M70.9433,6.5481A1.887,1.887,0,0,1,72.275,7.1l.0009.0008a1.8809,1.8809,0,0,1,0,2.6626l-.0009.0009a1.8808,1.8808,0,0,1-2.6625,0l-.0009-.0009a1.8809,1.8809,0,0,1,0-2.6626L69.6125,7.1A1.8829,1.8829,0,0,1,70.9433,6.5481Z"/><path class="h" d="M72.7958,13.9565a1.8876,1.8876,0,0,1,1.3317.5524l.0008.0006a1.8813,1.8813,0,0,1,0,2.6629l-.0008,0a1.88,1.88,0,0,1-2.6626,0l-.0009,0a1.8815,1.8815,0,0,1,0-2.6629l.0009-.0006A1.8835,1.8835,0,0,1,72.7958,13.9565Z"/><path class="h" d="M79.5434,8.5315a1.888,1.888,0,0,1,1.3317.5522l.0005.0008a1.88,1.88,0,0,1,0,2.6626l-.0005.0009a1.8813,1.8813,0,0,1-2.6629,0l-.0006-.0009a1.88,1.88,0,0,1,0-2.6626l.0006-.0008A1.8831,1.8831,0,0,1,79.5434,8.5315Z"/><path class="h" d="M77.56,1.255a1.888,1.888,0,0,1,1.3317.5522l.0005.0008a1.88,1.88,0,0,1,0,2.6626l-.0005.0008a1.8813,1.8813,0,0,1-2.6629,0l-.0006-.0008a1.88,1.88,0,0,1,0-2.6626l.0006-.0008A1.8831,1.8831,0,0,1,77.56,1.255Z"/></svg>