<svg xmlns="http://www.w3.org/2000/svg" viewBox="0 0 78.3869 74.0001"><defs><style>.a{fill:#e64e53;}.a,.c,.d,.e{fill-rule:evenodd;}.b,.c{fill:#d1d3d4;}.d{fill:#808285;}.e,.f{fill:none;stroke:#231f20;stroke-linecap:round;stroke-linejoin:round;stroke-width:1.9998px;}</style></defs><path class="a" d="M32.4971,27.1643h0A28.7007,28.7007,0,0,1,61.1145,55.7817V73H3.88V55.7817A28.7008,28.7008,0,0,1,32.4971,27.1643Z"/><rect class="b" x="3.8796" y="65.2741" width="57.2349" height="7.7261"/><path class="a" d="M58.2892,43.4207,71.61,32.4271l6.7765,6.6339L61.1145,60.525C54.1325,49.067,60.5422,48.0874,58.2892,43.4207Z"/><path class="c" d="M50.6672,33.7146c-3.2369,2.94-10.1557,4.97-18.17,4.97s-14.9332-2.0305-18.17-4.97a28.469,28.469,0,0,1,18.17-6.55h0A28.4694,28.4694,0,0,1,50.6672,33.7146Z"/><path class="d" d="M32.4974,27.1419a5.7585,5.7585,0,1,0-5.7583-5.7583A5.77,5.77,0,0,0,32.4974,27.1419Z"/><path class="c" d="M25.68,1H39.3138A16.6763,16.6763,0,0,1,55.9405,17.6268V39.4224a29.01,29.01,0,0,0-5.1186-5.5768V18.9968A12.7945,12.7945,0,0,0,37.7205,6.3957H27.0619A12.6146,12.6146,0,0,0,14.1714,18.9968v14.85a28.9806,28.9806,0,0,0-5.1185,5.5769V17.6268A16.6751,16.6751,0,0,1,25.68,1Z"/><path class="e" d="M29.6177,27.1643h0A28.7007,28.7007,0,0,1,58.2351,55.7817V73H1V55.7817A28.7008,28.7008,0,0,1,29.6177,27.1643Z"/><polyline class="e" points="58.588 40.797 68.731 32.427 75.507 39.06 62.634 55.058"/><path class="e" d="M47.7874,33.7146c-3.2368,2.94-10.1554,4.97-18.17,4.97s-14.9332-2.0305-18.17-4.97a28.4683,28.4683,0,0,1,18.17-6.55h0A28.4681,28.4681,0,0,1,47.7874,33.7146Z"/><path class="e" d="M29.6177,27.1643h0A28.7007,28.7007,0,0,1,58.2351,55.7817V73H1V55.7817A28.7008,28.7008,0,0,1,29.6177,27.1643Z"/><path class="e" d="M29.6179,27.1419A5.7585,5.7585,0,1,0,23.86,21.3836,5.77,5.77,0,0,0,29.6179,27.1419Z"/><path class="e" d="M6.1729,32.8526V17.6268A16.6753,16.6753,0,0,1,22.8,1h13.634A16.6759,16.6759,0,0,1,53.0607,17.6268V32.8517m-5.1188-4.1272V18.9968a12.7937,12.7937,0,0,0-13.1014-12.6H24.1828A12.6148,12.6148,0,0,0,11.2914,18.9968v9.7277"/><line class="f" x1="5.8049" y1="65.2744" x2="53.4304" y2="65.2744"/></svg>