<svg xmlns="http://www.w3.org/2000/svg" viewBox="0 0 86.1385 66.7995"><defs><style>.a,.c{fill:#d1e4f6;}.a,.b,.e,.f{fill-rule:evenodd;}.b{fill:#677f9a;}.d,.e{fill:#a1c3e7;}.f,.g{fill:none;stroke:#231f20;stroke-linecap:round;stroke-linejoin:round;stroke-width:1.9998px;}</style></defs><path class="a" d="M45.0089,38.1672h.002A11.3472,11.3472,0,0,1,56.3257,49.482V65.8h6.2257V48.9023A17.5922,17.5922,0,0,0,45.01,31.3607h-.0009A17.5923,17.5923,0,0,0,27.4673,48.9023V65.8h6.2269V49.482A11.3472,11.3472,0,0,1,45.0089,38.1672Z"/><path class="b" d="M54.9234,65.8h1.4023V49.482A11.3472,11.3472,0,0,0,45.0109,38.1672h-.002A11.3472,11.3472,0,0,0,33.6942,49.482V65.8H54.9234Z"/><rect class="c" x="3.8981" y="49.5937" width="16.4528" height="12.183"/><rect class="d" x="20.3433" y="49.5937" width="7.124" height="12.183"/><rect class="d" x="62.5514" y="49.5937" width="7.1192" height="12.183"/><rect class="c" x="69.665" y="49.5937" width="16.4528" height="12.183"/><path class="a" d="M7.5307,25.2342h12.82V37.4169H4.1532A40.71,40.71,0,0,1,7.5307,25.2342Z"/><path class="e" d="M20.3433,25.2342H36.7961v8.1822a17.7163,17.7163,0,0,0-5.0184,4H20.3433Z"/><path class="a" d="M36.7717,25.2342h16.454v8.1841A17.378,17.378,0,0,0,45.01,31.3607h-.0009a17.3918,17.3918,0,0,0-8.2372,2.0684Z"/><path class="e" d="M53.2167,25.2342H69.6706V37.4169H58.2411a17.7175,17.7175,0,0,0-5.0244-4.0034Z"/><path class="a" d="M69.665,25.2342H82.4872a40.71,40.71,0,0,1,3.3775,12.1827h-16.2Z"/><path class="e" d="M53.2257,1.8308V13.0582H36.7717V1.8344A40.8991,40.8991,0,0,1,45.0081,1H45.01A40.8776,40.8776,0,0,1,53.2257,1.8308Z"/><rect class="c" x="28.4943" y="13.0542" width="16.4537" height="12.1828"/><rect class="d" x="44.9392" y="13.0542" width="16.454" height="12.1828"/><path class="a" d="M36.7961,1.8293V13.0585H15.9839A41.1686,41.1686,0,0,1,36.7281,1.8432l.0181-.0042Z"/><path class="a" d="M74.0337,13.0585H53.2167V1.8285l.0547.01.0354.0073A41.1553,41.1553,0,0,1,74.0337,13.0585Z"/><path class="e" d="M15.9887,13.0545h12.53V25.2367H7.53a41.4562,41.4562,0,0,1,8.4311-12.1561Z"/><path class="a" d="M61.3878,13.0545H74.0289l.0278.0261a41.4393,41.4393,0,0,1,8.4311,12.1561h-21.1Z"/><path class="e" d="M4.154,37.407h7.9195V49.59H3.8794V42.1284A41.0463,41.0463,0,0,1,4.154,37.407Z"/><path class="a" d="M12.0661,37.4067H31.787a17.46,17.46,0,0,0-4.32,11.4956V49.59H12.0661Z"/><path class="a" d="M58.2323,37.4067H77.84V49.59H62.5514v-.6874A17.4637,17.4637,0,0,0,58.2323,37.4067Z"/><path class="e" d="M77.8336,37.407h8.03a41.0238,41.0238,0,0,1,.2747,4.7214V49.59H77.8336Z"/><path class="f" d="M24.5879,61.7767H12.0188M1,61.7767V42.1284A41.2486,41.2486,0,0,1,42.1287,1h.0019A41.2485,41.2485,0,0,1,83.2591,42.1284V61.7767m-10.9188,0H59.672"/><path class="f" d="M42.13,38.1672h.002A11.3473,11.3473,0,0,1,53.4463,49.482V65.8H59.672V48.9023A17.5921,17.5921,0,0,0,42.1306,31.3607H42.13A17.5922,17.5922,0,0,0,24.5879,48.9023V65.8h6.2268V49.482A11.3473,11.3473,0,0,1,42.13,38.1672Z"/><path class="f" d="M52.044,65.8h1.4023V49.482A11.3473,11.3473,0,0,0,42.1315,38.1672H42.13A11.3473,11.3473,0,0,0,30.8147,49.482V65.8H52.044Z"/><polyline class="f" points="5.644 49.594 17.472 49.594 17.472 61.776 5.644 61.776"/><polyline class="f" points="78.614 61.776 66.785 61.776 66.785 49.594 78.614 49.594"/><polyline class="f" points="10.319 25.234 17.472 25.234 17.472 37.417 6.197 37.417"/><path class="f" d="M17.4647,25.2342H33.917v8.1819a17.7064,17.7064,0,0,0-5.0182,4.0011H17.4647Z"/><path class="f" d="M33.8923,25.2342H50.346v8.1844A17.37,17.37,0,0,0,42.13,31.361h0a17.39,17.39,0,0,0-8.2375,2.0681Z"/><path class="f" d="M50.3381,25.2342H66.7909v12.183h-11.43a17.6868,17.6868,0,0,0-5.023-4.0037Z"/><polyline class="f" points="78.06 37.417 66.785 37.417 66.785 25.234 73.939 25.234"/><polyline class="f" points="50.346 6.42 50.346 13.058 33.892 13.058 33.892 6.425"/><rect class="g" x="25.6146" y="13.0545" width="16.4537" height="12.1822"/><rect class="g" x="42.0603" y="13.0545" width="16.4537" height="12.1822"/><polyline class="f" points="33.917 6.419 33.917 13.058 20.436 13.058"/><polyline class="f" points="63.821 13.058 50.337 13.058 50.337 6.418"/><polyline class="f" points="20.442 13.054 25.639 13.054 25.639 25.237 10.318 25.237"/><polyline class="f" points="73.94 25.237 58.508 25.237 58.508 13.054 63.816 13.054"/><polyline class="f" points="6.199 37.407 9.195 37.407 9.195 49.59 5.644 49.59"/><path class="f" d="M9.187,37.4067H28.9079a17.4584,17.4584,0,0,0-4.32,11.4956V49.59H9.187Z"/><path class="f" d="M55.3528,37.4067H74.9607V49.59H59.672v-.6874A17.4618,17.4618,0,0,0,55.3528,37.4067Z"/><polyline class="f" points="78.614 49.59 74.955 49.59 74.955 37.407 78.059 37.407"/></svg>