<svg xmlns="http://www.w3.org/2000/svg" viewBox="0 0 67.8071 81.1998"><defs><style>.a{fill:#f08a3a;}.a,.b,.c,.e{fill-rule:evenodd;}.b{fill:#f89c57;}.c,.d{fill:#fffcd5;}.e,.f{fill:none;stroke:#231f20;stroke-linecap:round;stroke-linejoin:round;stroke-width:1.9998px;}</style></defs><path class="a" d="M35.64,1h0A25.1385,25.1385,0,0,1,60.7047,26.065v9.9116L67.5172,57.73a6.8046,6.8046,0,0,1-3.8837,8.2012l-.0006.0009a5.6527,5.6527,0,0,1-7.5849-3.62L49.3353,40.87h2.1838a4.6465,4.6465,0,0,0,4.634-4.6338V27.2816a4.6465,4.6465,0,0,0-4.634-4.6338H19.9184a4.6467,4.6467,0,0,0-4.634,4.6338v8.9547a4.6467,4.6467,0,0,0,4.634,4.6338h2.0262L15.2319,62.3124a5.6524,5.6524,0,0,1-7.5846,3.62l-.0009-.0009A6.8049,6.8049,0,0,1,3.7627,57.73l6.8116-21.7513V26.065A25.1386,25.1386,0,0,1,35.64,1Z"/><path class="b" d="M35.64,1A24.8671,24.8671,0,0,1,48.0716,4.3227c-1.9619,4.5615-1.0452,11.3539,0,18.3248H23.208c1.0633-6.5715,2.0345-14.14,0-18.3257A24.8535,24.8535,0,0,1,35.64,1Z"/><path class="c" d="M17.1323,39.9332a4.6072,4.6072,0,0,0,2.7861.9369h2.0265L15.2322,62.3124a5.6522,5.6522,0,0,1-7.5852,3.62l-.0006-.0009c-.1321-.0524-.2611-.1105-.3881-.1715,1.6728-1.0788,2.7358-3.2122,3.3965-4.9524l6.4483-20.8227Z"/><path class="d" d="M19.9179,22.6478H51.5191a4.634,4.634,0,0,1,4.634,4.634v8.9547A4.6336,4.6336,0,0,1,51.52,40.87H19.9184a4.634,4.634,0,0,1-4.634-4.634V27.2813A4.6335,4.6335,0,0,1,19.9179,22.6478Z"/><path class="c" d="M54.1462,39.9332A4.6075,4.6075,0,0,1,51.36,40.87H49.3336l6.7127,21.4423a5.6522,5.6522,0,0,0,7.5852,3.62l.0006-.0009c.1321-.0524.261-.1105.388-.1715-1.6727-1.0788-2.7357-3.2122-3.3964-4.9524L54.1754,39.9848Z"/><path class="e" d="M8.1016,35.9792V26.065A25.138,25.138,0,0,1,33.1667,1h0A25.138,25.138,0,0,1,58.2318,26.065v9.9113m1.12,3.5782L65.0443,57.73a6.8046,6.8046,0,0,1-3.8835,8.2012l-.0008.0009a5.6525,5.6525,0,0,1-7.5852-3.62L46.862,40.87h2.1844A4.6466,4.6466,0,0,0,53.68,36.236V27.2816a4.6471,4.6471,0,0,0-4.6338-4.6341H17.4455a4.6467,4.6467,0,0,0-4.6338,4.6341V36.236A4.6462,4.6462,0,0,0,17.4455,40.87H19.472L12.7593,62.3124a5.6521,5.6521,0,0,1-7.585,3.62l-.0008-.0009A6.8048,6.8048,0,0,1,1.29,57.73L6.9805,39.5573"/><path class="e" d="M5.1743,65.9323l-.0008-.0009c-.1321-.0524-.2611-.1105-.3881-.1715,1.6727-1.0788,2.736-3.2122,3.3965-4.9524l5.3019-17.1212"/><path class="f" d="M17.4452,22.6478H49.0461A4.6341,4.6341,0,0,1,53.68,27.2819v8.9546A4.6336,4.6336,0,0,1,49.0466,40.87H17.4455a4.6338,4.6338,0,0,1-4.6338-4.6338v-8.955A4.6335,4.6335,0,0,1,17.4452,22.6478Z"/><path class="e" d="M61.1586,65.9323l.0008-.0009c.1318-.0524.2611-.1105.3881-.1715-1.673-1.0788-2.736-3.2122-3.3968-4.9524L52.872,43.76"/><path class="e" d="M5.1037,66.7458c0,3.6922,2.6952,3.4569,2.6975,6.7286,0,3.3333-2.6975,3.0393-2.6975,6.7255"/><path class="e" d="M61.323,66.7458c0,3.6922-2.6952,3.4569-2.6975,6.7286,0,3.3333,2.6975,3.0393,2.6975,6.7255"/><path class="e" d="M21.3134,18.804c.7455-5.4955,1.0675-11.0956-.578-14.4822a24.92,24.92,0,0,1,24.8635.0009c-1.5982,3.7165-1.2864,8.9135-.55,14.4813"/></svg>