<svg xmlns="http://www.w3.org/2000/svg" viewBox="0 0 74.4654 84.7995"><defs><style>.a,.c{fill:#5d9cc3;}.a,.b,.e{fill-rule:evenodd;}.b,.d{fill:#fff685;}.e,.f{fill:none;stroke:#231f20;stroke-linecap:round;stroke-linejoin:round;stroke-width:1.9998px;}</style></defs><path class="a" d="M31.1371,1h0a4.1512,4.1512,0,0,1,4.14,4.14c0,12.2446-.5018,24.4083-.5091,36.614-.006,13.1352.5091,26.2531.5091,39.44A2.6139,2.6139,0,0,1,32.6709,83.8H29.603a2.6138,2.6138,0,0,1-2.6059-2.6061c0-13.15.5272-26.2092.5425-39.3044.0133-12.2465-.5425-24.4553-.5425-36.7492A4.1509,4.1509,0,0,1,31.1371,1Z"/><path class="b" d="M31.0843,33.0612H31.19c1.9128,0,3.475,2.0449,3.475,4.5465v.002l-.0023.1683h-7.05l-.0026-.1683v-.002C27.6093,35.1061,29.1718,33.0612,31.0843,33.0612Z"/><path class="b" d="M31.0928,56.974h.0885c1.6112,0,2.927-3.5314,2.927-7.8517v-.0034l-.0019-.2906H28.1675l-.002.2906v.0034C28.1655,53.4426,29.4816,56.974,31.0928,56.974Z"/><path class="b" d="M31.1371,1a4.1512,4.1512,0,0,1,4.14,4.14l-.0083,3.4033h-.0995A4.1187,4.1187,0,0,0,31.1371,5.48h0a4.1218,4.1218,0,0,0-4.0335,3.0628h-.0994L26.9971,5.14A4.1482,4.1482,0,0,1,31.1371,1Z"/><path class="b" d="M35.2657,77.196c.0071,1.1634.0114,2.8338.0114,3.9975A2.6139,2.6139,0,0,1,32.6709,83.8H29.603a2.6138,2.6138,0,0,1-2.6059-2.6061c0-1.1617.0051-2.8287.0122-3.9884A2.6127,2.6127,0,0,0,29.603,79.56h3.0679A2.6147,2.6147,0,0,0,35.2657,77.196Z"/><path class="a" d="M47.8464,1h0a4.1511,4.1511,0,0,1,4.14,4.14c0,12.2446-.5017,24.4083-.5091,36.614-.0059,13.1352.5091,26.2531.5091,39.44A2.614,2.614,0,0,1,49.38,83.8h-3.068a2.614,2.614,0,0,1-2.6061-2.6061c0-13.15.5275-26.2092.5428-39.3044.0133-12.2465-.5428-24.4553-.5428-36.7492A4.1512,4.1512,0,0,1,47.8464,1Z"/><path class="b" d="M47.7937,33.0612h.1052c1.9128,0,3.475,2.0449,3.475,4.5465v.002l-.0026.1683h-7.05l-.0026-.1683v-.002C44.3187,35.1061,45.8809,33.0612,47.7937,33.0612Z"/><path class="b" d="M47.8019,56.974h.0888c1.6112,0,2.927-3.5314,2.927-7.8517v-.0034l-.002-.2906H44.8769l-.002.2906v.0034C44.8749,53.4426,46.1907,56.974,47.8019,56.974Z"/><path class="b" d="M47.8464,1a4.1511,4.1511,0,0,1,4.14,4.14l-.0082,3.4033h-.0995A4.119,4.119,0,0,0,47.8464,5.48h0A4.1217,4.1217,0,0,0,43.813,8.5432h-.0995L43.7062,5.14A4.1486,4.1486,0,0,1,47.8464,1Z"/><path class="b" d="M51.9751,77.196c.0071,1.1634.0113,2.8338.0113,3.9975A2.614,2.614,0,0,1,49.38,83.8h-3.068a2.614,2.614,0,0,1-2.6061-2.6061c0-1.1617.0051-2.8287.0124-3.9884A2.6126,2.6126,0,0,0,46.3123,79.56H49.38A2.6149,2.6149,0,0,0,51.9751,77.196Z"/><rect class="c" x="61.8425" y="13.0789" width="4.1267" height="12.9115"/><path class="b" d="M63.9067,77.3375c3.0441,0,5.527-.9471,5.527-2.1084s-2.4829-2.1084-5.527-2.1084-5.5273.947-5.5273,2.1084S60.8626,77.3375,63.9067,77.3375Z"/><rect class="c" x="13.0129" y="13.0789" width="4.1264" height="12.9115"/><ellipse class="d" cx="15.0757" cy="75.2291" rx="5.527" ry="2.1084"/><path class="e" d="M25.16,30.3717l-.0433-2.2054c-.159-7.6617-.3776-15.3278-.3776-23.0267A4.1507,4.1507,0,0,1,28.8784,1h0A4.1513,4.1513,0,0,1,33.019,5.14c0,8.4362-.2381,16.8336-.3884,25.2321"/><path class="e" d="M31.53,37.767q-.0128,1.9924-.0138,3.9866-.0014,3.5466.03,7.092h-5.31q.0318-3.4768.0368-6.9562.0017-2.0622-.0116-4.1224Z"/><path class="e" d="M32.7264,59.6011c.1387,7.1864.2926,14.3793.2926,21.5924A2.6142,2.6142,0,0,1,30.4131,83.8H27.3446a2.6142,2.6142,0,0,1-2.6059-2.6061c0-7.2176.159-14.4083.305-21.5924"/><path class="e" d="M28.8263,33.0612h.1051c1.9126,0,3.4747,2.0449,3.4747,4.5465v.002l-.0022.1683h-7.05l-.0022-.1683v-.002C25.3513,35.1061,26.9134,33.0612,28.8263,33.0612Z"/><path class="e" d="M28.8314,56.974h.0949c1.7314,0,3.1453-3.5314,3.1453-7.8517v-.0034l-.0022-.2906H25.6883l-.0023.2906v.0034C25.686,53.4426,27.1,56.974,28.8314,56.974Z"/><path class="e" d="M28.8787,1a4.151,4.151,0,0,1,4.14,4.14l-.0082,3.4033H32.911A4.1189,4.1189,0,0,0,28.8787,5.48h0a4.1215,4.1215,0,0,0-4.0331,3.0628h-.1L24.7387,5.14A4.1486,4.1486,0,0,1,28.8787,1Z"/><path class="e" d="M33.0076,77.196c.0071,1.1634.0111,2.8338.0111,3.9975A2.6138,2.6138,0,0,1,30.4128,83.8H27.3449a2.6139,2.6139,0,0,1-2.6062-2.6061c0-1.1617.0051-2.8287.0125-3.9884A2.6126,2.6126,0,0,0,27.3449,79.56h3.0679A2.6149,2.6149,0,0,0,33.0076,77.196Z"/><path class="e" d="M61.6478,29.7367V74.3285m0,3.4041V83.8"/><rect class="f" x="59.5842" y="13.0789" width="4.1263" height="12.9115"/><line class="f" x1="57.8306" y1="13.0803" x2="65.4649" y2="13.0803"/><line class="f" x1="57.8306" y1="25.9893" x2="65.4649" y2="25.9893"/><path class="e" d="M61.6486,77.3375c3.0441,0,5.527-.9471,5.527-2.1084s-2.4829-2.1084-5.527-2.1084-5.5273.947-5.5273,2.1084S58.6045,77.3375,61.6486,77.3375Z"/><path class="e" d="M64.803,13.5577c1.9738,1.1594,7.5515,5.0269,8.5269,8.3333.6577,2.2342-1.173,4.473-3.4225,2.4216C67.3661,21.9961,64.8212,15.5655,64.803,13.5577Z"/><path class="e" d="M12.8179,29.7367V74.3285m0,3.4041V83.8"/><rect class="f" x="10.7545" y="13.0789" width="4.1267" height="12.9115"/><line class="f" x1="16.635" y1="13.0803" x2="9.0007" y2="13.0803"/><line class="f" x1="16.635" y1="25.9893" x2="9.0007" y2="25.9893"/><path class="e" d="M12.8176,77.3375c3.0441,0,5.527-.9471,5.527-2.1084s-2.4829-2.1084-5.527-2.1084S7.29,74.0677,7.29,75.2291,9.7735,77.3375,12.8176,77.3375Z"/><path class="e" d="M9.6626,13.5577c-1.9737,1.1594-7.5515,5.0269-8.5271,8.3333-.6577,2.2342,1.1732,4.473,3.4228,2.4216C7.1,21.9961,9.6445,15.5655,9.6626,13.5577Z"/><path class="e" d="M41.869,30.3717l-.0433-2.2054c-.1591-7.6617-.3776-15.3278-.3776-23.0267A4.15,4.15,0,0,1,45.5878,1h0a4.1513,4.1513,0,0,1,4.1406,4.14c0,8.4362-.2381,16.8336-.3884,25.2321"/><path class="e" d="M48.239,37.767q-.0123,1.9924-.0136,3.9866-.0017,3.5466.03,7.092h-5.31q.0315-3.4768.0369-6.9562.0017-2.0622-.0116-4.1224Z"/><path class="e" d="M49.4358,59.6011c.1386,7.1864.2926,14.3793.2926,21.5924A2.6142,2.6142,0,0,1,47.1225,83.8H44.054a2.6142,2.6142,0,0,1-2.6059-2.6061c0-7.2176.159-14.4083.3047-21.5924"/><path class="e" d="M45.5356,33.0612h.1049c1.9128,0,3.475,2.0449,3.475,4.5465v.002l-.0022.1683h-7.05l-.0022-.1683v-.002C42.0607,35.1061,43.6228,33.0612,45.5356,33.0612Z"/><path class="e" d="M45.5405,56.974h.0952c1.7311,0,3.145-3.5314,3.145-7.8517v-.0034l-.0019-.2906H42.3974l-.002.2906v.0034C42.3954,53.4426,43.8093,56.974,45.5405,56.974Z"/><path class="e" d="M45.5881,1a4.151,4.151,0,0,1,4.14,4.14L49.72,8.5432h-.1A4.1189,4.1189,0,0,0,45.5881,5.48h0a4.1221,4.1221,0,0,0-4.0334,3.0628h-.0995L41.4481,5.14A4.1484,4.1484,0,0,1,45.5881,1Z"/><path class="e" d="M49.7167,77.196c.0074,1.1634.0114,2.8338.0114,3.9975A2.6139,2.6139,0,0,1,47.1219,83.8H44.0543a2.6139,2.6139,0,0,1-2.6062-2.6061c0-1.1617.0051-2.8287.0122-3.9884a2.6131,2.6131,0,0,0,2.594,2.3548h3.0676A2.6147,2.6147,0,0,0,49.7167,77.196Z"/></svg>