<svg xmlns="http://www.w3.org/2000/svg" viewBox="0 0 77.718 70.9951"><defs><style>.a{fill:#a78b6b;}.a,.b,.d{fill-rule:evenodd;}.b{fill:#cd9b68;}.c{fill:#fffcd5;}.d,.e{fill:none;stroke:#231f20;stroke-linecap:round;stroke-linejoin:round;stroke-width:2.0001px;}</style></defs><path class="a" d="M77.64,57.0307l.0036-.7522c-3.7479,3.5858-12.3967,5.4156-16.18,5.4156L40.8387,61.74H39.207L9.0957,61.4679c-.25-.26-2.53.9841-2.7581.6531v4.9731c-.0912,2.3383.5706,2.901,3.8067,2.901H47.6764c13.34-.0777,20.9478-.0822,27.0363-4.09.388-.2549.771-.5283,1.1472-.8169,2.0265-1.5528,1.78-2.3635,1.78-4.7928Z"/><path class="b" d="M7.0556,63.0091C5.104,60.9781,3.76,56.691,3.76,51.73c0-5.0854,1.4137-9.4643,3.4455-11.4285V10.5194H41.1108V40.0935l29.1977,8.5734c3.342.9814,7.6654,3.3327,7.3976,7.4991-.3325,5.1761-11.8162,6.8431-15.8341,6.8431H7.0556Z"/><path class="c" d="M7.1325,1H41.2746a1.74,1.74,0,0,1,1.74,1.74V8.7787a1.7407,1.7407,0,0,1-1.7407,1.7407H7.1325A1.7408,1.7408,0,0,1,5.3917,8.7786V2.7408A1.7408,1.7408,0,0,1,7.1325,1Z"/><path class="d" d="M38.351,14.6894V40.0935l29.198,8.5734c3.342.9814,7.6654,3.3327,7.3975,7.4991-.3325,5.1761-11.8165,6.8431-15.834,6.8431H4.2961C2.3445,60.9781,1,56.691,1,51.73c0-5.0854,1.4136-9.4643,3.4455-11.4285V14.6894"/><path class="d" d="M4.3661,40.38a27.3823,27.3823,0,0,0,12.4767,8.8059m8.5655.0913c4.87-1.5118,9.1684-4.4408,13.2168-9.1035"/><path class="e" d="M4.373,1H38.5151a1.74,1.74,0,0,1,1.74,1.74V8.7787a1.7407,1.7407,0,0,1-1.7407,1.7407H4.3727a1.74,1.74,0,0,1-1.74-1.74V2.7409A1.7408,1.7408,0,0,1,4.373,1Z"/><line class="e" x1="21.1251" y1="14.6894" x2="21.1251" y2="58.8388"/><path class="d" d="M74.88,57.0307l-.104.0069C73.2951,61.53,62.895,63.0091,59.1125,63.0091H4.2961a7.0881,7.0881,0,0,1-.7183-.8881v4.9731c-.091,2.3383.5709,2.901,3.8069,2.901H44.9169c13.34-.0777,20.9474-.0822,27.0363-4.09.3877-.2549.771-.5283,1.1471-.8169,2.0265-1.5528,1.78-2.3635,1.78-4.7928Z"/></svg>