<svg xmlns="http://www.w3.org/2000/svg" viewBox="0 0 73.6182 74.0001"><defs><style>.a{fill:#2db66f;}.a,.b,.d,.e{fill-rule:evenodd;}.b{fill:#e64e53;}.c,.d{fill:#fffcd5;}.e,.f{fill:none;stroke:#231f20;stroke-linecap:round;stroke-linejoin:round;stroke-width:1.9998px;}</style></defs><path class="a" d="M48.5676,16.9156a30.3633,30.3633,0,0,1,20.29,28.5509v9.1017H8.3618V45.4665A30.3626,30.3626,0,0,1,28.6505,16.9156a4.5969,4.5969,0,0,0,.343.7387,4.5218,4.5218,0,0,0,5.2152,2.0716,4.5228,4.5228,0,0,0,8.8018,0,4.522,4.522,0,0,0,5.2141-2.0724A4.58,4.58,0,0,0,48.5676,16.9156Z"/><path class="b" d="M66.5557,33.9275a29.9265,29.9265,0,0,1,2.2356,9.5547l-.2894-.0224c-4.8277.0034-4.48,3.98-9.9289,3.98-5.4391,0-5.0054-3.98-9.9247-3.98-4.8274.0034-4.48,3.98-9.9272,3.98-5.44,0-5.0057-3.98-9.9246-3.98-4.8283.0034-4.4813,3.98-9.9289,3.98-5.44,0-5.0049-3.98-9.9239-3.98l-.52.0717A29.921,29.921,0,0,1,10.69,33.8609h.0014c3.1618.811,3.4815,3.7763,8.1763,3.7763,5.4476,0,5.1006-3.9768,9.9289-3.98,4.9189,0,4.4847,3.98,9.9246,3.98,5.4477,0,5.1-3.9768,9.9272-3.98,4.9193,0,4.4856,3.98,9.9247,3.98,4.5862,0,5.0667-2.816,7.9818-3.71Z"/><path class="c" d="M9.3114,54.5682h58.875A5.4318,5.4318,0,0,1,73.6182,60v7.5685A5.4317,5.4317,0,0,1,68.1865,73H9.3114A5.4315,5.4315,0,0,1,3.88,67.5687V60A5.4315,5.4315,0,0,1,9.3114,54.5682Z"/><path class="d" d="M38.6092,1A4.5217,4.5217,0,0,1,43.01,4.48a4.5227,4.5227,0,0,1,4.4,7.6232,4.5229,4.5229,0,0,1-4.4,7.6232,4.5226,4.5226,0,0,1-8.8013,0,4.523,4.523,0,0,1-4.4013-7.6232,4.5225,4.5225,0,0,1,4.4013-7.6221A4.52,4.52,0,0,1,38.6092,1Z"/><path class="e" d="M49.9727,18.8092A30.3253,30.3253,0,0,1,65.9774,45.4665v9.1017H5.4818V45.4665A30.3237,30.3237,0,0,1,21.4854,18.81"/><path class="f" d="M6.4314,54.5682h58.875A5.4318,5.4318,0,0,1,70.7382,60v7.5685A5.4317,5.4317,0,0,1,65.3065,73H6.4317A5.4318,5.4318,0,0,1,1,67.5684V60a5.4315,5.4315,0,0,1,5.4315-5.4315Z"/><path class="e" d="M35.7292,1A4.5217,4.5217,0,0,1,40.13,4.48a4.5227,4.5227,0,0,1,4.4,7.6232,4.5229,4.5229,0,0,1-4.4,7.6232,4.5226,4.5226,0,0,1-8.8013,0,4.523,4.523,0,0,1-4.4013-7.6232,4.5225,4.5225,0,0,1,4.4013-7.6221A4.52,4.52,0,0,1,35.7292,1Z"/><path class="e" d="M10.4322,45.117c1.3224,1.0921,2.5308,2.3229,5.5554,2.3229,5.4476,0,5.1006-3.9767,9.9289-3.98,4.9192,0,4.4847,3.98,9.9246,3.98,5.4477,0,5.1-3.9767,9.9272-3.98,4.9193,0,4.4856,3.98,9.925,3.98a7.265,7.265,0,0,0,5.34-2.1078"/><path class="e" d="M12.1857,36.6655a6.875,6.875,0,0,0,3.8019.9717c5.4476,0,5.1006-3.9768,9.9289-3.98,4.9192,0,4.4847,3.98,9.9246,3.98,5.4477,0,5.1-3.9768,9.9272-3.98,4.9193,0,4.4856,3.98,9.925,3.98a7.08,7.08,0,0,0,3.6255-.8541"/><line class="f" x1="8.7714" y1="72.8233" x2="8.7714" y2="59.8004"/><line class="f" x1="17.8037" y1="72.8233" x2="17.8037" y2="59.8004"/><line class="f" x1="26.836" y1="72.8233" x2="26.836" y2="59.8004"/><line class="f" x1="35.8683" y1="72.8233" x2="35.8683" y2="59.8004"/><line class="f" x1="44.9007" y1="72.8233" x2="44.9007" y2="59.8004"/><line class="f" x1="53.933" y1="72.8233" x2="53.933" y2="59.8004"/><line class="f" x1="62.9653" y1="72.8233" x2="62.9653" y2="59.8004"/></svg>