<svg xmlns="http://www.w3.org/2000/svg" viewBox="0 0 88.9235 73.9998"><defs><style>.a,.d{fill:#d1d3d4;}.b{fill:#fffcd5;}.b,.c,.d,.e{fill-rule:evenodd;}.c{fill:#939598;}.e,.f{fill:none;stroke:#231f20;stroke-linecap:round;stroke-linejoin:round;stroke-width:1.9998px;}</style></defs><rect class="a" x="22.0472" y="57.6546" width="5.6327" height="10.2365"/><rect class="a" x="65.5587" y="57.6588" width="5.6336" height="10.2323"/><path class="b" d="M16.7144,1V29.32c-3.47,5.0225-4.0737,12.24-4.1766,18.849-.0082.0037-.0119-.0646-.0136.3736-.0074,1.666-.0082,3.61-.0074,5.5154v1.4854l.0006.0263v1.2368l.0008.0915V58.18H37.4328V53.6059l.3827-.0324h.0008l.3759-.0232h.0014l.3691-.015.0022-.0009.3637-.0059.36.0008h.0037a23.4,23.4,0,0,1,8.04,1.8389l.0017,0,.31.1151.0022.0009.3107.1148.0028.0008a32.26,32.26,0,0,0,12.21,2.5815h.1052l22.2565-.0008c4.4759.0632,5.1545-3.6451,3.1062-5.38C89.9644,42.536,82.784,36.9829,69.2123,33.9626,59.0991,31.7119,49.541,24.9048,49.541,13.1214V1Z"/><path class="c" d="M12.56,47.7787c-.02.7906-.0335-.0077-.0363.7639-.0133,2.9257-.0057,6.7071-.0057,9.6367H37.4325V53.6061c8.2264-.7829,12.2315,4.576,22.8416,4.576l22.2565-.0008c4.5.0629,5.1619-3.6879,3.0719-5.41H59.7474c-8.3191,0-12.5578-4.6916-22.4495-4.9926Z"/><path class="d" d="M40.3267,14.9163A2.4364,2.4364,0,1,0,37.89,12.48,2.4411,2.4411,0,0,0,40.3267,14.9163Z"/><circle class="a" cx="41.6655" cy="22.0208" r="2.4364"/><path class="d" d="M46.5054,33.3163A2.4365,2.4365,0,1,0,44.069,30.88,2.4412,2.4412,0,0,0,46.5054,33.3163Z"/><path class="d" d="M53.9415,39.6586a2.4364,2.4364,0,1,0-2.4367-2.4364A2.4411,2.4411,0,0,0,53.9415,39.6586Z"/><path class="d" d="M79.8439,58.1818l.0009-.0008h2.6858a4.37,4.37,0,0,0,3.57-1.311,12.0231,12.0231,0,0,1,2.4027,4.3877,9.5056,9.5056,0,0,1,.1111,5.19,8.0655,8.0655,0,0,1-3.2632,4.5654A13.4236,13.4236,0,0,1,77.6615,73H6.7594a2.8164,2.8164,0,0,1,0-5.6327H77.6465a8.5922,8.5922,0,0,0,4.5142-.9751,2.5264,2.5264,0,0,0,1.0411-1.4185,3.9528,3.9528,0,0,0-.0887-2.1319A8.5889,8.5889,0,0,0,79.8439,58.1818Z"/><path class="e" d="M13.7709,1V29.32c-3.47,5.0225-4.0737,12.24-4.1766,18.849-.0082.0037-.0119-.0646-.0136.3736-.0074,1.666-.0082,3.61-.0074,5.5154v1.4854l.0009.0263v1.2368l.0005.0915V58.18H34.4893V53.6059l.3827-.0324h.0008l.3759-.0232H35.25l.3691-.015.0022-.0009.364-.0059.36.0008h.0037a23.4032,23.4032,0,0,1,8.04,1.8389l.0014,0,.31.1151.002.0009.3107.1148.0028.0008a32.26,32.26,0,0,0,12.21,2.5815h.1052l22.2565-.0008c4.4759.0632,5.1545-3.6451,3.1062-5.38,4.3276-10.2648-2.8528-15.8179-16.4245-18.8382-10.1132-2.2507-19.6713-9.0578-19.6713-20.8412V1Z"/><path class="e" d="M9.58,48.5426c-.0133,2.9257-.0057,6.7071-.0057,9.6367H34.4893V53.6061c8.2261-.7829,12.2315,4.576,22.8413,4.576l22.2565-.0008c4.5.0629,5.1619-3.6879,3.0719-5.41m-3.4861,0H56.8039c-8.3191,0-12.5578-4.6916-22.4495-4.9926h-21.93"/><path class="e" d="M37.3832,14.9163A2.4364,2.4364,0,1,0,34.9468,12.48,2.4411,2.4411,0,0,0,37.3832,14.9163Z"/><line class="f" x1="39.9905" y1="12.48" x2="46.1669" y2="12.48"/><line class="f" x1="46.8665" y1="18.0812" x2="41.2723" y2="20.8782"/><line class="f" x1="49.3927" y1="24.2732" x2="45.4302" y2="28.7599"/><line class="f" x1="54.2051" y1="29.3419" x2="52.0485" y2="34.7033"/><rect class="f" x="19.1037" y="58.1787" width="5.6327" height="9.1885"/><rect class="f" x="62.6152" y="58.1824" width="5.6336" height="9.1848"/><path class="e" d="M38.722,24.4572a2.4364,2.4364,0,1,0-2.4367-2.4364A2.4411,2.4411,0,0,0,38.722,24.4572Z"/><path class="e" d="M43.5619,33.3163A2.4365,2.4365,0,1,0,41.1255,30.88,2.4412,2.4412,0,0,0,43.5619,33.3163Z"/><path class="e" d="M50.998,39.6586a2.4364,2.4364,0,1,0-2.4367-2.4364A2.4411,2.4411,0,0,0,50.998,39.6586Z"/><path class="e" d="M76.9,58.1818l.0009-.0008h2.6858a4.37,4.37,0,0,0,3.57-1.311A12.0231,12.0231,0,0,1,85.56,61.2577a9.5027,9.5027,0,0,1,.1111,5.19,8.0655,8.0655,0,0,1-3.2632,4.5654A13.4227,13.4227,0,0,1,74.7183,73H3.8159a2.8164,2.8164,0,0,1,0-5.6327H74.703a8.5922,8.5922,0,0,0,4.5142-.9751,2.525,2.525,0,0,0,1.0411-1.4185,3.9528,3.9528,0,0,0-.0887-2.1319A8.5889,8.5889,0,0,0,76.9,58.1818Z"/><line class="f" x1="14.2978" y1="9.4486" x2="27.8231" y2="9.4486"/></svg>