<svg xmlns="http://www.w3.org/2000/svg" viewBox="0 0 86.4222 71.0742"><defs><style>.a{fill:#d1d3d4;}.b{fill:#d54e3a;}.c{fill:#a83a25;}.d{fill:#808285;}.e{fill:#8e5f3a;}.f{fill:#f08a3a;}.f,.g{fill-rule:evenodd;}.g,.h{fill:none;stroke:#231f20;stroke-linecap:round;stroke-linejoin:round;stroke-width:1.9998px;}</style></defs><rect class="a" x="3.8799" y="62.0298" width="82.5423" height="8.0445"/><rect class="a" x="3.8799" y="0.9999" width="82.5423" height="10.8303"/><rect class="b" x="8.5196" y="11.8302" width="73.2629" height="50.1996"/><rect class="c" x="8.5899" y="53.3076" width="15.0458" height="8.8532"/><rect class="c" x="8.5208" y="36.9285" width="15.0457" height="8.8531"/><rect class="c" x="8.5208" y="20.5493" width="15.0457" height="8.8529"/><rect class="c" x="66.7367" y="53.3076" width="15.0458" height="8.8532"/><rect class="c" x="66.7367" y="36.9285" width="15.0458" height="8.8531"/><rect class="c" x="66.7367" y="20.5493" width="15.0458" height="8.8529"/><rect class="c" x="23.2144" y="11.8305" width="14.3252" height="8.8532"/><rect class="c" x="52.7619" y="11.8305" width="14.3252" height="8.8532"/><rect class="d" x="23.2147" y="20.5496" width="43.8727" height="41.4802"/><path class="e" d="M36.1134,53.06H54.1889a4.36,4.36,0,0,1,4.36,4.36v.25a4.36,4.36,0,0,1-4.36,4.36H36.1135a4.36,4.36,0,0,1-4.36-4.36v-.25A4.36,4.36,0,0,1,36.1134,53.06Z"/><path class="f" d="M39.521,32.05c-.1349,2.9373,1.4534,4.7033,3.411,3.653,2.7952-1.4989,1.4312-8.57-1.3981-10.4944,4.3625.7614,10.1733,3.2735,8.87,11.2331-.6934,4.2747,2.8406,3.763,3.8928.0451a9.2106,9.2106,0,0,1-1.9091,9.5522c-4.212,4.5085-13.9153,3.7891-16.1031-3.7913C35.2277,38.5847,36.2147,34.3042,39.521,32.05Z"/><path class="g" d="M36.641,32.05c-.1349,2.9373,1.4531,4.7033,3.4107,3.653,2.7952-1.4989,1.4315-8.57-1.3981-10.4944,4.3625.7614,10.1736,3.2735,8.87,11.2331-.6931,4.2747,2.8406,3.763,3.8931.0451a9.21,9.21,0,0,1-1.9094,9.5522c-4.2117,4.5085-13.915,3.7891-16.1031-3.7913C32.3474,38.5847,33.3344,34.3042,36.641,32.05Z"/><rect class="h" x="0.9999" y="0.9999" width="82.5423" height="10.8303"/><rect class="h" x="5.6396" y="11.8302" width="73.2629" height="50.1996"/><path class="g" d="M10.6981,20.551h9.6363m43.8727,0h9.6372"/><path class="g" d="M10.6981,28.74h9.6363m43.8727,0h9.6372"/><path class="g" d="M10.6981,36.93h9.6363m43.8727,0h9.6372"/><path class="g" d="M10.6981,53.3093h9.6363m43.8727,0h9.6372"/><path class="g" d="M10.6981,45.12h9.6363m43.8727,0h9.6372"/><polyline class="g" points="64.207 57.977 64.207 20.55 20.335 20.55 20.335 57.977"/><path class="g" d="M20.3347,11.83v8.6023m43.8727,0V11.83"/><path class="g" d="M34.8685,11.83v8.6023m14.8042,0V11.83"/><path class="h" d="M33.2334,53.06H51.3089a4.36,4.36,0,0,1,4.36,4.36v.25a4.36,4.36,0,0,1-4.36,4.36H33.2335a4.36,4.36,0,0,1-4.36-4.36v-.25A4.36,4.36,0,0,1,33.2334,53.06Z"/><rect class="h" x="0.9999" y="62.0298" width="82.5423" height="8.0445"/></svg>