<svg xmlns="http://www.w3.org/2000/svg" viewBox="0 0 95.1511 55.9997"><defs><style>.a{fill:#e64e53;}.a,.b,.c,.e,.g{fill-rule:evenodd;}.b{fill:#fffcd5;}.c{fill:#a4ddf1;}.d,.e{fill:#939598;}.f{fill:#d1d3d4;}.g,.h{fill:none;stroke:#231f20;stroke-linecap:round;stroke-linejoin:round;stroke-width:1.9998px;}</style></defs><path class="a" d="M85.014,20.4829,66.8213,6.9908,45.5569,24.6379h-.1607l-35.7265.08c-4.1451.703-4.9,5.4552-4.7619,8.005.1247,2.3193.2559,6.8091,5.4981,6.9588H73.4005C84.5449,39.6817,97.5188,29.7576,85.014,20.4829Z"/><path class="b" d="M85.014,20.4829l-.4657-.3455h-2.283a3.77,3.77,0,0,0-3.76,3.76v.0011a3.77,3.77,0,0,0,3.76,3.76h7.8114C89.7893,25.3466,88.2639,22.8929,85.014,20.4829Z"/><path class="c" d="M66.7359,7.0609l.0417-.1052L61.3759,2.8225C58.2552.3405,56.417-.0173,55.528,4.3609l-2.9324,14.436Z"/><path class="d" d="M13.4273,20.8H41.6366a3.7607,3.7607,0,0,1,3.7607,3.7607v.0012a3.761,3.761,0,0,1-3.761,3.761H13.4282a3.7616,3.7616,0,0,1-3.7616-3.7616v-.0006A3.7607,3.7607,0,0,1,13.4273,20.8Z"/><path class="e" d="M11.54,39.6805h33.5a7.6822,7.6822,0,0,1,7.66,7.6584h0A7.6826,7.6826,0,0,1,45.04,55H11.54a7.6827,7.6827,0,0,1-7.66-7.6606h0A7.6823,7.6823,0,0,1,11.54,39.6805Z"/><circle class="f" cx="13.969" cy="47.3403" r="4.4847"/><circle class="f" cx="42.6108" cy="47.3403" r="4.4847"/><circle class="f" cx="28.2899" cy="47.3403" r="4.4847"/><path class="g" d="M77.1436,16.7814l-.9119-.6758-12.29-9.1148L42.6769,24.6379h-.1607a3.7727,3.7727,0,0,1-3.7605,3.6851H10.5482A3.7739,3.7739,0,0,1,6.79,24.7179c-4.1454.703-4.9,5.4552-4.7622,8.005.1247,2.3193.2559,6.8091,5.4981,6.9588H70.5205c11.1447,0,24.1183-9.9241,11.6138-19.1988"/><path class="g" d="M82.1343,20.4829l-.466-.3455h-2.283a3.7707,3.7707,0,0,0-3.7605,3.76v.0011a3.7706,3.7706,0,0,0,3.7605,3.76H87.197C86.9093,25.3466,85.3839,22.8929,82.1343,20.4829Z"/><path class="g" d="M63.8559,7.0609l.0417-.1052L58.4959,2.8225c-3.1207-2.482-4.9586-2.84-5.8479,1.5384l-2.9324,14.436Z"/><polyline class="g" points="49.61 18.638 43.825 10.892 37.026 10.892"/><path class="h" d="M10.5473,20.8H38.7566a3.7607,3.7607,0,0,1,3.7607,3.7607v.0012a3.761,3.761,0,0,1-3.761,3.761H10.5482a3.7616,3.7616,0,0,1-3.7616-3.7616v-.0006A3.7607,3.7607,0,0,1,10.5473,20.8Z"/><path class="g" d="M8.66,39.6805h33.5a7.6822,7.6822,0,0,1,7.66,7.6584h0A7.6826,7.6826,0,0,1,42.16,55H8.66A7.6827,7.6827,0,0,1,1,47.3389H1A7.6823,7.6823,0,0,1,8.66,39.6805Z"/><circle class="h" cx="11.089" cy="47.3403" r="4.4847"/><circle class="h" cx="39.7308" cy="47.3403" r="4.4847"/><circle class="h" cx="25.4099" cy="47.3403" r="4.4847"/><path class="g" d="M56.6851,55H86.9912c4.31,0,6.5095-3.4455,7.16-7.3774"/><path class="g" d="M72.5149,43.3316,81.1512,55M70.13,55,61.4941,43.3316"/><line class="h" x1="79.3887" y1="32.9307" x2="7.2585" y2="32.9307"/></svg>