<svg xmlns="http://www.w3.org/2000/svg" viewBox="0 0 96.3446 65.4249"><defs><style>.a{fill:#bcbec0;}.a,.b,.c,.d,.e{fill-rule:evenodd;}.b{fill:#939598;}.c{fill:#fffcd5;}.d{fill:#231f20;}.e{fill:none;stroke:#231f20;stroke-linecap:round;stroke-linejoin:round;stroke-width:1.9998px;}</style></defs><polygon class="a" points="53.492 24.119 46.752 35.793 41.752 44.453 53.284 64.425 63.282 64.425 96.345 64.425 79.814 35.793 73.074 24.119 53.492 24.119"/><polygon class="b" points="22.722 31.744 16.211 43.021 3.853 64.425 28.569 64.425 53.284 64.425 40.926 43.021 34.416 31.744 22.722 31.744"/><polygon class="c" points="63.284 7.161 53.293 24.467 58.781 30.727 63.354 25.556 67.93 30.727 73.292 24.493 63.284 7.161"/><polygon class="c" points="34.513 31.91 28.464 38.705 22.614 31.934 28.571 21.618 34.513 31.91"/><path class="d" d="M40.5636,7.8145a1.6094,1.6094,0,0,0-1.2223,0H39.34a1.6228,1.6228,0,0,0-.5173.3442l-.0043.0059a1.6171,1.6171,0,0,0-.3489.521,1.6,1.6,0,0,0,0,1.222,1.6229,1.6229,0,0,0,.3486.5227l.0015.0023a1.6393,1.6393,0,0,0,.5227.347l0,.0005a1.603,1.603,0,0,0,1.22-.0008,1.6309,1.6309,0,0,0,.5216-.3467l.0014-.0023a1.6146,1.6146,0,0,0,.3484-.5215V9.9076a1.6,1.6,0,0,0,0-1.2214,1.628,1.628,0,0,0-.3487-.5227l-.0011-.0017a1.6247,1.6247,0,0,0-.5208-.3467l0-.0006ZM22.4644,13.3756a1.6036,1.6036,0,0,0-1.2234,0,1.6209,1.6209,0,0,0-.5151.3418l-.0068.0082a1.6137,1.6137,0,0,0-.3486.5208,1.6071,1.6071,0,0,0-.0006,1.2226l.0006,0a1.6312,1.6312,0,0,0,.3469.5213l.0009,0a1.6221,1.6221,0,0,0,.523.349,1.6122,1.6122,0,0,0,1.2234,0l0-.0006a1.6029,1.6029,0,0,0,.52-.3472l.028-.0281a1.6312,1.6312,0,0,0,.3218-.4952,1.5987,1.5987,0,0,0,0-1.2217,1.6151,1.6151,0,0,0-.349-.5211l-.0008-.0008v-.0014a1.6006,1.6006,0,0,0-.52-.3475Zm-8.3358-2.0674a1.6048,1.6048,0,0,0-1.7459.3479l-.002.0017a1.6235,1.6235,0,0,0-.3466.52v.0014a1.5976,1.5976,0,0,0,0,1.22,1.6257,1.6257,0,0,0,.3483.5239l.0034.004a1.6184,1.6184,0,0,0,.5188.3444,1.6138,1.6138,0,0,0,1.224,0,1.62,1.62,0,0,0,.5184-.3441l.0029-.004a1.6293,1.6293,0,0,0,.3489-.5236,1.6,1.6,0,0,0,0-1.2206,1.627,1.627,0,0,0-.3489-.5232l-.0015-.0017a1.6228,1.6228,0,0,0-.52-.3462Zm71.7587,4.489a1.62,1.62,0,0,0-1.2242,0l0,.0006a1.6165,1.6165,0,0,0-.52.3458l-.0017.002a1.6305,1.6305,0,0,0-.349.5227,1.6021,1.6021,0,0,0,0,1.2223v.0014a1.6122,1.6122,0,0,0,.3444.517l.0051.0032a1.6187,1.6187,0,0,0,.521.3489,1.6125,1.6125,0,0,0,1.224,0l0-.0006a1.6028,1.6028,0,0,0,.52-.3472l.0029-.0014,0,0a1.6007,1.6007,0,0,0,.3472-.5193v-.0014a1.5971,1.5971,0,0,0-.3486-1.7442l-.0012-.0011a1.6025,1.6025,0,0,0-.52-.3478l0-.0006ZM79.8989,6.3913a1.6094,1.6094,0,0,0-1.2235,0,1.6215,1.6215,0,0,0-.5218.3481l-.0037.0031a1.6348,1.6348,0,0,0-.3447.5207,1.6028,1.6028,0,0,0,0,1.2209,1.6178,1.6178,0,0,0,.3455.52l.0029.0025a1.6282,1.6282,0,0,0,.5221.3487h.0014a1.5984,1.5984,0,0,0,1.22,0h.0014a1.6218,1.6218,0,0,0,.5207-.347l.0011-.0014a1.6229,1.6229,0,0,0,.3487-.5235,1.6,1.6,0,0,0,0-1.22V7.2612a1.6236,1.6236,0,0,0-.3484-.5221l-.0011-.0014a1.6237,1.6237,0,0,0-.52-.3464Zm-64.99,15.3918a1.6024,1.6024,0,0,0-1.2217,0,1.621,1.621,0,0,0-.52.3464l-.0017.0026a1.6115,1.6115,0,0,0-.3489.5212v.0015a1.6015,1.6015,0,0,0,.3475,1.7427l.002.0034a1.6209,1.6209,0,0,0,.521.347l0,0a1.6011,1.6011,0,0,0,1.7419-.3464l.0026-.0031a1.6189,1.6189,0,0,0,.3481-.5221,1.6074,1.6074,0,0,0,0-1.2232,1.6208,1.6208,0,0,0-.3478-.5207l-.0005.0006-.0015-.0014a1.6146,1.6146,0,0,0-.521-.349ZM32.0118.69A1.6117,1.6117,0,0,0,30.79.69l0,.0006a1.635,1.635,0,0,0-.5216.3464l-.0011.0023a1.6213,1.6213,0,0,0-.3492.5227,1.5989,1.5989,0,0,0,0,1.2208,1.6281,1.6281,0,0,0,.3492.5239l.0009.0011a1.63,1.63,0,0,0,.5221.3476,1.5981,1.5981,0,0,0,1.22,0,1.6339,1.6339,0,0,0,.5233-.3487l-.0006-.0006.0009-.0008.0006.0005a1.6415,1.6415,0,0,0,.3486-.5232,1.5979,1.5979,0,0,0,0-1.22,1.6222,1.6222,0,0,0-.3492-.5229l-.0017-.0023a1.6337,1.6337,0,0,0-.5213-.3464l0-.0006Zm35.9155.8558a1.6011,1.6011,0,0,0-1.2212,0,1.6225,1.6225,0,0,0-.5136.34l-.0091.011a1.6063,1.6063,0,0,0-.3483.5191v.0014a1.5992,1.5992,0,0,0,0,1.2209V3.64a1.6188,1.6188,0,0,0,.3478.521l.0005-.0006.0017.0017-.0008.0006a1.6233,1.6233,0,0,0,.5218.3484,1.6019,1.6019,0,0,0,1.2215,0,1.63,1.63,0,0,0,.5219-.3484l-.0006-.0006.0017-.0017.0006.0006a1.6227,1.6227,0,0,0,.3475-.5216l.0005,0a1.6161,1.6161,0,0,0,0-1.2232l-.0005,0a1.604,1.604,0,0,0-.3481-.52l-.0091-.011a1.6235,1.6235,0,0,0-.5142-.34Zm8.2664,13.3968a1.607,1.607,0,0,0-1.2223-.0011l0,.0006a1.6326,1.6326,0,0,0-.5168.3427l-.0062.0082a1.6059,1.6059,0,0,0-.3489.52v.0014a1.6007,1.6007,0,0,0,0,1.222,1.6132,1.6132,0,0,0,.3487.521l-.0006.0006h0a1.6306,1.6306,0,0,0,.5239.3489,1.6015,1.6015,0,0,0,1.2211,0l0-.0006a1.6267,1.6267,0,0,0,.5222-.348l-.0006-.0006.0006-.0006a1.6114,1.6114,0,0,0,.3486-.521,1.6,1.6,0,0,0,0-1.222v-.0014a1.6059,1.6059,0,0,0-.3489-.52l-.004-.0068a1.6147,1.6147,0,0,0-.5162-.3436ZM22.0361,4.396a1.5981,1.5981,0,0,0-1.7427.3495l-.0131.0116a1.6311,1.6311,0,0,0-.3376.5116l-.0006,0A1.6064,1.6064,0,0,0,19.943,6.49a1.6191,1.6191,0,0,0,.3455.52l.0034.0023a1.62,1.62,0,0,0,.5225.3489,1.5989,1.5989,0,0,0,1.2208,0h.0015a1.62,1.62,0,0,0,.5218-.3489l.0026-.002a1.6177,1.6177,0,0,0,.3458-.519V6.4893a1.6056,1.6056,0,0,0,.0009-1.2208l-.0006,0a1.6358,1.6358,0,0,0-.3478-.5224l-.0006.0009-.0017-.0017.0006-.0006a1.627,1.627,0,0,0-.5219-.3484l0,0Zm62.71,20.2379a1.6022,1.6022,0,0,0-1.2209,0h-.0014a1.6211,1.6211,0,0,0-.5221.3481L83,24.9831a1.63,1.63,0,0,0-.3475.5219,1.5984,1.5984,0,0,0,0,1.2206,1.6363,1.6363,0,0,0,.3486.5224l.0006-.0005.0014.0014-.0006.0005a1.6367,1.6367,0,0,0,.523.3484,1.5958,1.5958,0,0,0,1.22,0,1.62,1.62,0,0,0,.5213-.3466l.0017-.002a1.6239,1.6239,0,0,0,.3487-.5216v-.0014a1.6019,1.6019,0,0,0,0-1.2215V25.503a1.6184,1.6184,0,0,0-.3481-.5207l-.0006.0006-.0011-.0012.0006-.0008a1.6157,1.6157,0,0,0-.5208-.347ZM49.4.1213a1.6006,1.6006,0,0,0-1.2217,0,1.6241,1.6241,0,0,0-.5218.3473l-.0006.0008a1.6218,1.6218,0,0,0-.3495.523,1.5975,1.5975,0,0,0,0,1.2212,1.6343,1.6343,0,0,0,.3489.5235l.0006-.0005,0,0-.0006,0a1.6251,1.6251,0,0,0,.5224.3481l0,.0006a1.5991,1.5991,0,0,0,1.7427-.3492l.0051-.0029a1.6186,1.6186,0,0,0,.3447-.5179A1.6152,1.6152,0,0,0,50.2714.991l-.0005,0a1.6164,1.6164,0,0,0-.3436-.5171L49.9208.47A1.6111,1.6111,0,0,0,49.4.1213ZM33.7239,14.5137a1.61,1.61,0,0,0-1.2214,0,1.6286,1.6286,0,0,0-.5193.3439l-.0037.0065a1.6109,1.6109,0,0,0-.3484.52l-.0006,0a1.606,1.606,0,0,0,.349,1.745l.002.0037a1.6216,1.6216,0,0,0,.5193.3446,1.6181,1.6181,0,0,0,1.2245,0,1.6236,1.6236,0,0,0,.519-.3444l.0023-.0037a1.6137,1.6137,0,0,0,.3484-.5213v-.0014a1.6076,1.6076,0,0,0,.0008-1.2218l0,0a1.6267,1.6267,0,0,0-.3487-.5224l-.0023-.0034a1.6248,1.6248,0,0,0-.5207-.3453l0-.0005Zm13.1088-.14a1.5948,1.5948,0,0,0-1.2194,0,1.6445,1.6445,0,0,0-.5247.35l-.0017.0009a1.608,1.608,0,0,0-.3461.5187v.0014a1.6079,1.6079,0,0,0,0,1.2229,1.62,1.62,0,0,0,.3464.5207l.0014.0011a1.6382,1.6382,0,0,0,.5247.349,1.5984,1.5984,0,0,0,1.2194,0,1.6242,1.6242,0,0,0,.5233-.3481l-.0006-.0006.0009-.0008.0006.0006a1.632,1.632,0,0,0,.3486-.5233,1.5992,1.5992,0,0,0,0-1.2209,1.6191,1.6191,0,0,0-.3472-.5207l-.0014-.0006a1.6278,1.6278,0,0,0-.5242-.35Zm-7.4092,9.69a1.5962,1.5962,0,0,0-1.7436.3493l-.0082.0068a1.6038,1.6038,0,0,0,.0051,2.2583l.0017.0012a1.6192,1.6192,0,0,0,.5224.3489l0,.0006a1.615,1.615,0,0,0,1.2228,0l0-.0006a1.628,1.628,0,0,0,.5228-.3489l.0014-.0012a1.6246,1.6246,0,0,0,.3461-.52V26.157a1.6007,1.6007,0,0,0,0-1.22,1.6335,1.6335,0,0,0-.3478-.523l-.0006.0008-.0009-.0008.0006-.0009A1.6279,1.6279,0,0,0,39.4235,24.0644Z"/><polyline class="e" points="50.431 64.425 60.43 64.425 93.492 64.425 76.961 35.793 60.43 7.161 43.899 35.793 42.477 38.256"/><polyline class="e" points="46.828 58.184 38.073 43.021 25.716 21.618 23.995 24.596 22.112 27.858 13.358 43.021 1 64.425 4.441 64.425 8.206 64.425 25.716 64.425 50.431 64.425"/><polygon class="e" points="60.431 7.161 50.439 24.467 55.927 30.727 60.501 25.556 65.076 30.727 70.438 24.493 60.431 7.161"/><polygon class="e" points="31.66 31.91 25.61 38.705 19.76 31.934 25.717 21.618 31.66 31.91"/></svg>