<svg xmlns="http://www.w3.org/2000/svg" viewBox="0 0 81.5992 80.1997"><defs><style>.a{fill:#8e5f3a;}.a,.b,.c,.d,.e,.g{fill-rule:evenodd;}.b{fill:#00a761;}.c{fill:#fffcd5;}.d{fill:#59bd7d;}.e,.f{fill:none;stroke:#231f20;stroke-linecap:round;stroke-linejoin:round;stroke-width:2.0001px;}.g{fill:#231f20;}</style></defs><polygon class="a" points="32.53 65.593 32.53 79.2 21.59 79.2 21.59 65.593 27.06 65.593 32.53 65.593"/><polygon class="a" points="69.214 57.503 69.214 67.143 61.571 67.143 61.571 57.503 65.392 57.503 69.214 57.503"/><polygon class="b" points="27.06 12.335 34.761 24.007 42.463 35.679 35.999 35.679 36.816 36.798 46.571 50.182 38.618 50.182 38.66 50.24 50.259 66.154 27.06 66.154 3.86 66.154 15.459 50.24 15.501 50.182 7.548 50.182 17.304 36.798 18.119 35.679 11.656 35.679 19.358 24.007 27.06 12.335"/><path class="c" d="M27.06,12.3353l7.7012,11.6716,2.8819,4.3671a5.778,5.778,0,0,1-2.6711.5635c-4.3367,0-3.9906-3.1728-7.912-3.1728-3.8489.0025-3.5722,3.1728-7.9155,3.1728a5.682,5.682,0,0,1-2.6643-.5686l2.8786-4.362Z"/><polygon class="d" points="65.392 20.433 70.772 28.586 76.153 36.74 71.637 36.74 72.208 37.522 79.023 46.872 73.467 46.872 73.496 46.912 81.599 58.029 65.392 58.029 49.185 58.029 57.288 46.912 57.317 46.872 51.762 46.872 58.577 37.522 59.147 36.74 54.632 36.74 60.012 28.586 65.392 20.433"/><path class="c" d="M65.3921,20.4327l5.38,8.1536.839,1.2716a5.3319,5.3319,0,0,0-.6916-.0436c-3.0294,0-2.7879,2.2167-5.5273,2.2167-2.6886-.0017-2.4953-2.2167-5.53-2.2167a5.2886,5.2886,0,0,0-.6891.0436l.839-1.2716Z"/><polygon class="e" points="24.2 12.335 31.901 24.007 39.603 35.679 33.14 35.679 33.956 36.798 43.711 50.182 35.758 50.182 35.801 50.24 47.4 66.154 24.2 66.154 1 66.154 12.599 50.24 12.641 50.182 4.689 50.182 14.444 36.798 15.26 35.679 8.796 35.679 16.499 24.007 24.2 12.335"/><path class="e" d="M24.2,12.3353l7.7012,11.6716,2.8817,4.3671a5.7773,5.7773,0,0,1-2.6708.5635c-4.3368,0-3.9907-3.1728-7.9121-3.1728-3.8489.0025-3.5722,3.1728-7.9158,3.1728a5.6816,5.6816,0,0,1-2.664-.5686l2.8786-4.362Z"/><line class="f" x1="18.6613" y1="35.682" x2="29.7385" y2="35.682"/><line class="f" x1="16.4009" y1="50.1823" x2="31.9986" y2="50.1823"/><polygon class="e" points="62.533 20.433 67.912 28.586 73.293 36.74 68.778 36.74 69.348 37.522 76.163 46.872 70.607 46.872 70.637 46.912 78.74 58.029 62.533 58.029 46.325 58.029 54.428 46.912 54.458 46.872 48.902 46.872 55.717 37.522 56.287 36.74 51.772 36.74 57.152 28.586 62.533 20.433"/><path class="e" d="M62.5325,20.4327l5.38,8.1536.8388,1.2716a5.3264,5.3264,0,0,0-.6914-.0436c-3.03,0-2.7879,2.2167-5.5273,2.2167-2.6889-.0017-2.4956-2.2167-5.53-2.2167a5.2828,5.2828,0,0,0-.6891.0436l.8388-1.2716Z"/><line class="f" x1="59.4748" y1="36.7424" x2="65.5897" y2="36.7424"/><line class="f" x1="57.9299" y1="46.872" x2="67.1349" y2="46.872"/><polyline class="e" points="29.671 69.626 29.671 79.2 18.73 79.2 18.73 69.626"/><polyline class="e" points="66.354 61.42 66.354 67.143 58.711 67.143 58.711 61.42"/><path class="g" d="M28.1463.7282A1.5069,1.5069,0,0,1,29.21,1.17l.0009.0006a1.5042,1.5042,0,0,1,0,2.1293L29.21,3.3a1.5039,1.5039,0,0,1-2.1291,0L27.0807,3.3a1.5042,1.5042,0,0,1,0-2.1293l.0006-.0006A1.507,1.507,0,0,1,28.1463.7282Z"/><path class="g" d="M45.5587,10.6688a1.5091,1.5091,0,0,1,1.0649.4416l.0006.0006a1.5039,1.5039,0,0,1,0,2.1291l-.0006.0006a1.5039,1.5039,0,0,1-2.1291,0L44.494,13.24a1.5037,1.5037,0,0,1,0-2.1291l.0005-.0006A1.5055,1.5055,0,0,1,45.5587,10.6688Z"/><path class="g" d="M37.3688,18.2934a1.5085,1.5085,0,0,1,1.0644.4411l.0012.0011a1.5048,1.5048,0,0,1,0,2.1286l-.0012.0014a1.5051,1.5051,0,0,1-2.1285,0l-.0014-.0014a1.5053,1.5053,0,0,1,0-2.1286l.0014-.0011A1.5069,1.5069,0,0,1,37.3688,18.2934Z"/><path class="g" d="M74.97,10.5971a1.5056,1.5056,0,0,1,1.0641.4416l.0015.0006a1.5054,1.5054,0,0,1,0,2.1291l-.0015.0005a1.503,1.503,0,0,1-2.1285,0l-.0006-.0005a1.5039,1.5039,0,0,1,0-2.1291l.0006-.0006A1.506,1.506,0,0,1,74.97,10.5971Z"/><path class="g" d="M53.03,17.34a1.5109,1.5109,0,0,1,1.0649.4408l.0006.0014a1.5032,1.5032,0,0,1,0,2.1285l-.0006.0006a1.5037,1.5037,0,0,1-2.1291,0l-.0008-.0006a1.503,1.503,0,0,1,0-2.1285l.0008-.0014A1.5076,1.5076,0,0,1,53.03,17.34Z"/><path class="g" d="M15.0644,10.4227a1.5081,1.5081,0,0,1,1.0641.4417l.0006.0014a1.5032,1.5032,0,0,1,0,2.1285l-.0006.0006a1.5039,1.5039,0,0,1-2.1291,0l0-.0006a1.503,1.503,0,0,1,0-2.1285l0-.0014A1.5094,1.5094,0,0,1,15.0644,10.4227Z"/><path class="g" d="M73.8068,21.0711a1.51,1.51,0,0,1,1.0649.4416l.0006.0014a1.5033,1.5033,0,0,1,0,2.1286l-.0006,0a1.5039,1.5039,0,0,1-2.1293,0l-.0006,0a1.5031,1.5031,0,0,1,0-2.1286l.0006-.0014A1.5058,1.5058,0,0,1,73.8068,21.0711Z"/><path class="g" d="M43.3227.4071a1.5069,1.5069,0,0,1,1.0644.4416l.0011.0006a1.5044,1.5044,0,0,1,0,2.1285l-.0011.0014a1.503,1.503,0,0,1-2.1285,0l-.0014-.0014a1.5044,1.5044,0,0,1,0-2.1285l.0014-.0006A1.5053,1.5053,0,0,1,43.3227.4071Z"/><path class="g" d="M54.2063,2.3706a1.5076,1.5076,0,0,1,1.0644.4417l.0006.0005a1.5033,1.5033,0,0,1,0,2.1286l-.0006.0014a1.5032,1.5032,0,0,1-2.1285,0l-.0014-.0014a1.5031,1.5031,0,0,1,0-2.1286l.0014-.0005A1.5049,1.5049,0,0,1,54.2063,2.3706Z"/><path class="g" d="M6.0406,20.0716a1.5085,1.5085,0,0,1,1.0641.4416l.0009.0009a1.5039,1.5039,0,0,1,0,2.1291l-.0009,0a1.5037,1.5037,0,0,1-2.1291,0l-.0006,0a1.5039,1.5039,0,0,1,0-2.1291l.0006-.0009A1.51,1.51,0,0,1,6.0406,20.0716Z"/><path class="g" d="M66.8245,2.2989a1.51,1.51,0,0,1,1.0641.4411l.0006.0014a1.5025,1.5025,0,0,1,0,2.1285l-.0006.0012a1.5051,1.5051,0,0,1-2.1291,0L65.7589,4.87a1.5032,1.5032,0,0,1,0-2.1285L65.76,2.74A1.51,1.51,0,0,1,66.8245,2.2989Z"/><path class="g" d="M35.4305,7.6666a1.5083,1.5083,0,0,1,1.0644.4416l.0011.0009a1.5051,1.5051,0,0,1,0,2.1291l-.0011.0006a1.5032,1.5032,0,0,1-2.1285,0l-.0006-.0006a1.5037,1.5037,0,0,1,0-2.1291l.0006-.0009A1.5065,1.5065,0,0,1,35.4305,7.6666Z"/><path class="g" d="M16.283,0a1.509,1.509,0,0,1,1.065.4417l.0006.0005a1.5039,1.5039,0,0,1,0,2.1291l-.0006.0009a1.5043,1.5043,0,0,1-2.1294,0l-.0006-.0009a1.5039,1.5039,0,0,1,0-2.1291l.0006-.0005A1.5056,1.5056,0,0,1,16.283,0Z"/><path class="g" d="M5.2574,6.1484A1.5076,1.5076,0,0,1,6.3215,6.59l.0014.0009a1.5037,1.5037,0,0,1,0,2.1291l-.0014,0a1.503,1.503,0,0,1-2.1285,0l-.0006,0a1.5039,1.5039,0,0,1,0-2.1291L4.193,6.59A1.5072,1.5072,0,0,1,5.2574,6.1484Z"/><path class="g" d="M58.2675,9.595a1.51,1.51,0,0,1,1.065.4417l.0006.0008a1.5039,1.5039,0,0,1,0,2.1291l-.0006.0006a1.5039,1.5039,0,0,1-2.1291,0l-.0006-.0006a1.5039,1.5039,0,0,1,0-2.1291l.0006-.0008A1.5062,1.5062,0,0,1,58.2675,9.595Z"/><path class="g" d="M67.1252,13.5391a1.5065,1.5065,0,0,1,1.0644.4417l.0012.0006a1.5054,1.5054,0,0,1,0,2.1291l-.0012.0005a1.5033,1.5033,0,0,1-2.1288,0L66.06,16.11a1.5039,1.5039,0,0,1,0-2.1291l.0006-.0006A1.5056,1.5056,0,0,1,67.1252,13.5391Z"/></svg>