<svg xmlns="http://www.w3.org/2000/svg" viewBox="0 0 61.9994 74.0004"><defs><style>.a{fill:#e64e53;}.a,.c,.d{fill-rule:evenodd;}.b{fill:#fffcd5;}.c{fill:#2db66f;}.d,.e{fill:none;stroke:#231f20;stroke-linecap:round;stroke-linejoin:round;stroke-width:1.9998px;}</style></defs><path class="a" d="M26.4989,1H26.5A18.951,18.951,0,0,1,45.3966,19.8965V56.3112H7.6026V19.8965A18.9509,18.9509,0,0,1,26.4989,1Z"/><path class="b" d="M6.5275,56.3112H45.7824a2.6482,2.6482,0,0,1,2.6482,2.6482V70.3523A2.6482,2.6482,0,0,1,45.7824,73H6.5274a2.6481,2.6481,0,0,1-2.6481-2.6481V58.9594A2.6482,2.6482,0,0,1,6.5275,56.3112Z"/><path class="a" d="M60.3072,28.1312h0c2.6025,2.6022,2.152,7.31-.999,10.4607L45.3966,52.5035,40.97,39.5812,45.3966,33.58l4.45-4.45C52.9983,25.978,57.7038,25.5276,60.3072,28.1312Z"/><path class="c" d="M45.3966,29.8923a7.5982,7.5982,0,0,1-1.8912.216c-4.6324,0-4.2625-3.1362-8.4527-3.1362-4.1122.002-3.816,3.1362-8.4557,3.1362-4.6335,0-4.2633-3.1362-8.4526-3.1362-4.1131.002-3.818,3.1362-8.4578,3.1362a7.2418,7.2418,0,0,1-2.084-.2721V22.11a7.255,7.255,0,0,0,2.084.273c4.64,0,4.3447-3.1343,8.4578-3.1363,4.1893,0,3.8191,3.1363,8.4526,3.1363,4.64,0,4.3435-3.1343,8.4557-3.1363,4.19,0,3.82,3.1363,8.4527,3.1363a7.5876,7.5876,0,0,0,1.8912-.2163Z"/><path class="c" d="M45.3966,47.8861a7.5876,7.5876,0,0,1-1.8912.2163c-4.6324,0-4.2625-3.1363-8.4527-3.1363-4.1122.002-3.816,3.1363-8.4557,3.1363-4.6335,0-4.2633-3.1363-8.4526-3.1363-4.1131.002-3.818,3.1363-8.4578,3.1363a7.2558,7.2558,0,0,1-2.084-.2721V40.1042a7.2483,7.2483,0,0,0,2.084.2729c4.64,0,4.3447-3.1342,8.4578-3.1359,4.1893,0,3.8191,3.1359,8.4526,3.1359,4.64,0,4.3435-3.1342,8.4557-3.1359,4.19,0,3.82,3.1359,8.4527,3.1359a7.5982,7.5982,0,0,0,1.8912-.216Z"/><path class="d" d="M4.7229,51.6579V19.8965A18.9512,18.9512,0,0,1,23.62,1h.0011A18.9524,18.9524,0,0,1,42.5172,19.8965V51.6579"/><path class="e" d="M3.6481,56.3112H42.903a2.6481,2.6481,0,0,1,2.6481,2.6481V70.3524A2.6481,2.6481,0,0,1,42.903,73H3.648A2.6481,2.6481,0,0,1,1,70.3524V58.9594A2.6482,2.6482,0,0,1,3.6481,56.3112Z"/><path class="d" d="M46.9911,29.1063c3.1522-3.13,7.84-3.5719,10.4366-.9748h0c2.6022,2.6022,2.1518,7.3094-.9986,10.4607L46.9911,48.03"/><line class="e" x1="7.8124" y1="72.719" x2="7.8124" y2="61.326"/><line class="e" x1="15.5436" y1="72.719" x2="15.5436" y2="61.326"/><line class="e" x1="23.2745" y1="72.719" x2="23.2745" y2="61.326"/><line class="e" x1="31.0054" y1="72.719" x2="31.0054" y2="61.326"/><line class="e" x1="38.7383" y1="72.719" x2="38.7383" y2="61.326"/><path class="d" d="M9.79,21.7626c1.8465-.9131,2.5365-2.5141,5.476-2.5158,4.1887,0,3.818,3.136,8.452,3.136,4.6392,0,4.3433-3.1334,8.4555-3.136,2.8777,0,3.6045,1.48,5.2776,2.4061m0,7.7252c-1.6731-.9258-2.4-2.4057-5.2776-2.4057-4.1122.0017-3.8163,3.1359-8.4555,3.1359-4.634,0-4.2633-3.1359-8.452-3.1359-2.94.0017-3.6295,1.6027-5.476,2.5157M37.4509,47.3722c-1.6731-.9258-2.4-2.4058-5.2776-2.4058-4.1122.0017-3.8163,3.136-8.4555,3.136-4.634,0-4.2633-3.136-8.452-3.136-2.94.0017-3.6295,1.6027-5.476,2.5155m0-7.7244c1.8465-.9131,2.5365-2.5149,5.476-2.5166,4.1887,0,3.818,3.1368,8.452,3.1368,4.6392,0,4.3433-3.1343,8.4555-3.1368,2.8777,0,3.6045,1.48,5.2776,2.4066"/></svg>