<svg xmlns="http://www.w3.org/2000/svg" viewBox="0 0 77.207 88.3992"><defs><style>.a,.e{fill:#fffcd5;}.a,.b,.c,.d,.g,.i{fill-rule:evenodd;}.b{fill:#d54e3a;}.c{fill:#8e5f3a;}.d{fill:#b87d54;}.f{fill:#a4ddf1;}.g,.h{fill:none;stroke:#231f20;stroke-linecap:round;stroke-linejoin:round;stroke-width:1.9998px;}.i{fill:#231f20;}</style></defs><path class="a" d="M8.651,59.6671a2.9494,2.9494,0,0,1-4.0184-4.3183l33.8083-31.48a2.9508,2.9508,0,0,1,4.0186,0l33.8075,31.48a2.9494,2.9494,0,0,1-4.0184,4.3183L40.45,30.0581Z"/><polygon class="b" points="15.069 22.367 27.176 22.367 27.176 34.358 15.069 45.632 15.069 22.367"/><path class="c" d="M14.9238,79.015H33.571v8.3843H14.9238a4.2041,4.2041,0,0,1-4.1919-4.1924V83.206a4.2029,4.2029,0,0,1,4.1919-4.191Zm32.4057,0H65.9766a4.2029,4.2029,0,0,1,4.1919,4.191v.0009a4.2041,4.2041,0,0,1-4.1919,4.1924H47.33Z"/><path class="d" d="M14.9238,70.6457H33.571V79.03H14.9238a4.2041,4.2041,0,0,1-4.1919-4.1924h0a4.2036,4.2036,0,0,1,4.1919-4.1919Zm32.4057,0H65.9766a4.2036,4.2036,0,0,1,4.1919,4.1919h0A4.2041,4.2041,0,0,1,65.9766,79.03H47.33Z"/><path class="c" d="M14.9238,62.266h7.6771v8.3851H14.9238a4.2045,4.2045,0,0,1-4.1919-4.1924v-.0006a4.2036,4.2036,0,0,1,4.1919-4.1921Zm8.7795,0H33.571v8.3851H23.7033V62.266Zm23.6262,0h6.7487v8.3851H47.33V62.266Zm8.2179,0H65.9766a4.2042,4.2042,0,0,1,4.1919,4.1921v.0006a4.205,4.205,0,0,1-4.1919,4.1924H55.5474Z"/><path class="d" d="M14.9238,53.887H65.9766l.0652.0009,4.1105,3.8279c.0105.1193.0162.2406.0162.3625v.0009a4.2041,4.2041,0,0,1-4.1919,4.1924H47.33v-4.106H33.571v4.106H14.9238a4.2045,4.2045,0,0,1-4.1919-4.1924v-.0009q0-.184.0159-.3634l4.11-3.827Z"/><polygon class="c" points="23.859 45.507 57.041 45.507 66.044 53.891 65.977 53.891 14.924 53.891 14.855 53.891 23.859 45.507"/><polygon class="d" points="32.859 37.126 48.041 37.126 57.045 45.51 23.855 45.51 32.859 37.126"/><polygon class="c" points="48.053 37.138 32.847 37.138 40.45 30.058 48.053 37.138"/><rect class="e" x="33.5707" y="58.1656" width="13.7585" height="29.2337"/><rect class="f" x="51.8017" y="58.1637" width="10.0134" height="16.6081"/><rect class="f" x="19.0845" y="58.1637" width="10.0131" height="16.6081"/><path class="g" d="M5.9584,59.6671A2.9494,2.9494,0,1,1,1.94,55.3488l33.8082-31.48a2.9505,2.9505,0,0,1,4.0184,0l33.8074,31.48a2.9494,2.9494,0,1,1-4.0184,4.3183L37.7574,30.0581Z"/><polyline class="g" points="12.376 40.013 12.376 22.367 24.483 22.367 24.483 28.74"/><path class="g" d="M16.5642,79.015H30.878v8.3843H12.2309A4.2041,4.2041,0,0,1,8.039,83.2069V83.206a4.2029,4.2029,0,0,1,4.1919-4.191m51.0528,0a4.2029,4.2029,0,0,1,4.1919,4.191v.0009a4.2041,4.2041,0,0,1-4.1919,4.1924H44.6366V79.015H58.9427"/><path class="g" d="M12.2309,79.03A4.2041,4.2041,0,0,1,8.039,74.8376h0a4.2036,4.2036,0,0,1,4.1919-4.1919m51.0528,0a4.2036,4.2036,0,0,1,4.1919,4.1919h0A4.2041,4.2041,0,0,1,63.2837,79.03"/><path class="g" d="M12.2309,70.6511A4.2041,4.2041,0,0,1,8.039,66.4587v-.0006a4.2036,4.2036,0,0,1,4.1919-4.1921m51.0528,0a4.2036,4.2036,0,0,1,4.1919,4.1921v.0006a4.2041,4.2041,0,0,1-4.1919,4.1924"/><path class="g" d="M17.5141,53.887H58.0005m9.4751,4.1913v.0009a4.2041,4.2041,0,0,1-4.1919,4.1924m-51.0528,0A4.2041,4.2041,0,0,1,8.039,58.0792v-.0009"/><path class="g" d="M49.0691,45.51H26.4458m9.05-8.3846h4.5691"/><rect class="h" x="30.8778" y="58.1656" width="13.7585" height="29.2337"/><path class="g" d="M21.8619,1c-6.6844,6.215,6.535,11.5211.392,17.1434"/><path class="g" d="M14.3849,5.2765C9.3682,9.9409,19.29,13.9236,14.68,18.1433"/><rect class="h" x="49.1093" y="58.1637" width="10.0131" height="16.6081"/><rect class="h" x="16.3913" y="58.1637" width="10.0134" height="16.6081"/><path class="i" d="M34.6915,74.1584a1.3758,1.3758,0,1,0-1.376-1.3756A1.3785,1.3785,0,0,0,34.6915,74.1584Z"/></svg>