<svg xmlns="http://www.w3.org/2000/svg" viewBox="0 0 76.2906 74.0001"><defs><style>.a{fill:#8e5f3a;}.a,.b,.c,.d,.e{fill-rule:evenodd;}.b{fill:#fffcd5;}.c{fill:#6d6e71;}.d{fill:#a7a9ac;}.e,.f{fill:none;stroke:#231f20;stroke-linecap:round;stroke-linejoin:round;stroke-width:1.9998px;}</style></defs><path class="a" d="M76.2906,4.8434l-39.96,63.1355c-2.8256,4.377-3.8248,5.0034-6.2022,5.008L24.4557,73H9.5245a5.849,5.849,0,0,1-5.8317-5.8317v-.0012a5.8482,5.8482,0,0,1,5.8317-5.8317H31.8286L70.02,1Z"/><path class="b" d="M24.8293,72.9991,24.4557,73H9.5245a1.0638,1.0638,0,0,1-.6984-.2384L15.7,61.3356H31.8286Z"/><polygon class="b" points="63.589 24.916 57.319 21.074 70.02 1 76.291 4.843 63.589 24.916"/><path class="c" d="M57.45,61.3909l.2338.0011c4.9028.0363,8.84,1.2175,8.84,2.6677V70.309c0,2.2232-7.2034,2.6779-8.84,2.69L57.45,73l-.2342-.0011c-1.6358-.0122-8.8392-.4669-8.8392-2.69V64.06C48.3765,62.5863,52.4391,61.3909,57.45,61.3909Z"/><path class="d" d="M57.45,66.7283c4.9974,0,9.0734-1.1988,9.0734-2.6689s-4.076-2.6688-9.0734-2.6688-9.0735,1.1988-9.0735,2.6688S52.4527,66.7283,57.45,66.7283Z"/><path class="e" d="M58.6177,28.51l-24.98,39.4685c-2.8253,4.377-3.8245,5.0034-6.2019,5.008L21.7625,73H6.8316A5.8488,5.8488,0,0,1,1,67.1685v-.0012a5.8482,5.8482,0,0,1,5.8317-5.8317H29.1357m2.5093-3.9642L54.7487,20.8725"/><polygon class="e" points="60.896 24.916 54.626 21.074 67.327 1 73.598 4.843 60.896 24.916"/><path class="e" d="M29.1357,61.3356,22.1364,72.9991M6.1329,72.7618l6.874-11.4262"/><line class="f" x1="11.4234" y1="72.9446" x2="18.3984" y2="61.3356"/><line class="f" x1="16.7404" y1="72.9446" x2="23.7153" y2="61.3356"/><path class="e" d="M54.7567,61.3909l.2341.0011C59.8936,61.4283,63.83,62.61,63.83,64.06V70.309c0,2.2232-7.2034,2.6779-8.8393,2.69L54.7567,73l-.2339-.0011c-1.6361-.0122-8.8395-.4669-8.8395-2.69V64.06C45.6833,62.5863,49.7459,61.3909,54.7567,61.3909Z"/><path class="e" d="M60.1351,66.2092a28.1138,28.1138,0,0,1-10.7572,0"/><line class="f" x1="65.8685" y1="3.8629" x2="68.5393" y2="12.5148"/><line class="f" x1="62.5845" y1="8.675" x2="65.3531" y2="17.7141"/><line class="f" x1="59.4307" y1="13.7706" x2="62.1993" y2="22.8097"/></svg>