<svg xmlns="http://www.w3.org/2000/svg" viewBox="0 0 86.6802 73.9998"><defs><style>.a{fill:#a5c3d2;}.a,.b,.d,.e,.f{fill-rule:evenodd;}.b,.c{fill:#86a3b3;}.d{fill:#fffcd5;}.e,.f{fill:none;stroke:#231f20;stroke-width:1.9998px;}.e{stroke-linecap:round;stroke-linejoin:round;}.f{stroke-miterlimit:2.6131;}</style></defs><path class="a" d="M32.905,1A18.3452,18.3452,0,0,1,50.1073,12.9687,15.1368,15.1368,0,0,1,76,21.1273,11.0289,11.0289,0,0,1,86.68,32.1181V32.12A11.0276,11.0276,0,0,1,75.6849,43.1148h-60.81A11.0276,11.0276,0,0,1,3.88,32.12v-.0014A11.0283,11.0283,0,0,1,14.6518,21.1254c-.0564-.5877-.0867-1.1824-.0867-1.7847A18.3394,18.3394,0,0,1,32.905,1Z"/><path class="b" d="M60.985,39.15A15.4291,15.4291,0,1,0,45.556,23.721,15.4592,15.4592,0,0,0,60.985,39.15Z"/><rect class="c" x="34.993" y="21.1174" width="51.6807" height="21.9983" rx="10.9987"/><path class="d" d="M32.431,63.7726a3.2229,3.2229,0,1,0-3.2227-3.223A3.2293,3.2293,0,0,0,32.431,63.7726Z"/><path class="d" d="M58.1291,63.7726a3.2229,3.2229,0,1,0-3.2227-3.223A3.2294,3.2294,0,0,0,58.1291,63.7726Z"/><path class="d" d="M19.5819,54.5453a3.2229,3.2229,0,1,0-3.2228-3.223A3.2294,3.2294,0,0,0,19.5819,54.5453Z"/><path class="d" d="M45.28,54.5453a3.2229,3.2229,0,1,0-3.223-3.223A3.2294,3.2294,0,0,0,45.28,54.5453Z"/><path class="d" d="M70.9782,54.5453a3.2229,3.2229,0,1,0-3.2227-3.223A3.2294,3.2294,0,0,0,70.9782,54.5453Z"/><path class="d" d="M19.5819,73a3.2229,3.2229,0,1,0-3.2228-3.223A3.2293,3.2293,0,0,0,19.5819,73Z"/><path class="d" d="M45.28,73a3.2229,3.2229,0,1,0-3.223-3.223A3.2294,3.2294,0,0,0,45.28,73Z"/><path class="d" d="M70.9782,73a3.2229,3.2229,0,1,0-3.2227-3.223A3.2293,3.2293,0,0,0,70.9782,73Z"/><path class="e" d="M11.856,16.8221a18.3445,18.3445,0,0,1,33.4361-7.65m1.9355,3.7965A15.1366,15.1366,0,0,1,73.12,21.1273m4.2332.9859A11.0355,11.0355,0,0,1,83.8,32.1181V32.12A11.0276,11.0276,0,0,1,72.8049,43.1148h-60.81A11.0276,11.0276,0,0,1,1,32.12v-.0014A11.0283,11.0283,0,0,1,11.7718,21.1254"/><path class="e" d="M26.8587,7.9063c-6.1308,2.3383-8.3333,7.0863-8.1737,13.8968"/><path class="e" d="M56.8033,14.312c-3.8166,1.1432-6.8213,3.59-6.7226,8.58"/><path class="f" d="M29.5507,63.7726A3.2229,3.2229,0,1,0,26.328,60.55,3.2293,3.2293,0,0,0,29.5507,63.7726Z"/><path class="f" d="M55.2488,63.7726a3.2229,3.2229,0,1,0-3.2227-3.223A3.2294,3.2294,0,0,0,55.2488,63.7726Z"/><path class="f" d="M16.7016,54.5453a3.2229,3.2229,0,1,0-3.2227-3.223A3.2294,3.2294,0,0,0,16.7016,54.5453Z"/><path class="f" d="M42.4,54.5453a3.2229,3.2229,0,1,0-3.2227-3.223A3.2294,3.2294,0,0,0,42.4,54.5453Z"/><path class="f" d="M68.0979,54.5453a3.2229,3.2229,0,1,0-3.2227-3.223A3.2294,3.2294,0,0,0,68.0979,54.5453Z"/><path class="f" d="M16.7016,73a3.2229,3.2229,0,1,0-3.2227-3.223A3.2294,3.2294,0,0,0,16.7016,73Z"/><path class="f" d="M42.4,73a3.2229,3.2229,0,1,0-3.2227-3.223A3.2293,3.2293,0,0,0,42.4,73Z"/><path class="f" d="M68.0979,73a3.2229,3.2229,0,1,0-3.2227-3.223A3.2293,3.2293,0,0,0,68.0979,73Z"/></svg>