<svg xmlns="http://www.w3.org/2000/svg" viewBox="0 0 83.6874 57.2838"><defs><style>.a,.c{fill:#fffcd5;}.b,.d{fill:#fffef2;}.c,.d,.e{fill-rule:evenodd;}.e{fill:none;stroke:#231f20;stroke-linecap:round;stroke-linejoin:round;stroke-width:1.9998px;}</style></defs><circle class="a" cx="13.692" cy="46.4212" r="9.8212"/><circle class="a" cx="33.75" cy="46.4212" r="9.8212"/><circle class="b" cx="53.8077" cy="46.4212" r="9.8212"/><circle class="a" cx="73.8662" cy="46.4212" r="9.8212"/><circle class="b" cx="23.6689" cy="28.65" r="9.8211" transform="translate(-4.2715 4.1475) rotate(-9.1892)"/><circle class="a" cx="43.7268" cy="28.65" r="9.8212"/><circle class="a" cx="63.7845" cy="28.65" r="9.8212"/><path class="c" d="M33.75,20.6993a9.8213,9.8213,0,1,0-9.8212-9.8212A9.84,9.84,0,0,0,33.75,20.6993Z"/><path class="d" d="M53.8077,20.6993a9.8213,9.8213,0,1,0-9.8212-9.8212A9.84,9.84,0,0,0,53.8077,20.6993Z"/><path class="e" d="M29.0805,56.0791a9.8213,9.8213,0,1,1,3.5764,0"/><path class="e" d="M49.1384,56.0791a9.8212,9.8212,0,1,1,3.5762,0"/><path class="e" d="M78.4444,52.8391a9.82,9.82,0,1,1,1.7884-3.0971"/><path class="e" d="M11.13,26.8613a9.8212,9.8212,0,1,1,0,3.5762"/><path class="e" d="M40.846,18.8288A9.8209,9.8209,0,1,1,31.0248,28.65,9.8211,9.8211,0,0,1,40.846,18.8288Z"/><path class="e" d="M70.5618,30.4375a9.8206,9.8206,0,1,1,0-3.5762"/><path class="e" d="M25.3277,2.7266a9.821,9.821,0,1,1-2.5288,2.5287"/><path class="e" d="M60.1743,7.5562a9.8206,9.8206,0,1,1-1.7881-3.0971"/><path class="e" d="M1.5637,49.7417a9.8211,9.8211,0,1,1,1.7881,3.0971"/><path class="e" d="M15.5294,28.65a5.421,5.421,0,0,1,5.4213-5.421"/><path class="e" d="M25.6222,10.7815A5.4212,5.4212,0,0,1,31.0435,5.36"/><path class="e" d="M5.4744,46.4992a5.4209,5.4209,0,0,1,5.421-5.421"/></svg>