<svg xmlns="http://www.w3.org/2000/svg" viewBox="0 0 69.5009 81.199"><defs><style>.a{fill:#c83e43;}.a,.b,.c,.d{fill-rule:evenodd;}.b{fill:#e64e53;}.c{fill:#2db66f;}.d,.e{fill:none;stroke:#231f20;stroke-linecap:round;stroke-linejoin:round;stroke-width:1.9998px;}</style></defs><path class="a" d="M53.7354,35.9128h9.9678a5.8154,5.8154,0,0,1,5.7977,5.7977V56.8886a5.8157,5.8157,0,0,1-5.7977,5.7975H53.7354V58.1569h9.0023a1.8864,1.8864,0,0,0,1.8816-1.8817V42.3237a1.8867,1.8867,0,0,0-1.8816-1.8814H53.7354Z"/><path class="b" d="M54.5039,28.2627V66.1151c0,3.1882-2.61,7.6428-5.7977,7.6428H21.4491c-3.1879,0-5.7974-4.4541-5.7974-7.6428V28.2627Z"/><path class="c" d="M66.5877,73.7579c-.0009,3.5436-2.0325,6.4412-4.5167,6.4412H8.0843c-2.4843,0-4.5156-2.8976-4.5165-6.4412Z"/><path class="d" d="M56.174,35.9131h4.9612A5.8143,5.8143,0,0,1,66.9329,41.71V56.8886a5.8143,5.8143,0,0,1-5.7977,5.7972H56.174m0-4.5289H60.17a1.8866,1.8866,0,0,0,1.8819-1.882V42.324A1.8866,1.8866,0,0,0,60.17,40.442H56.174"/><path class="d" d="M13.4455,69.9632a21.8313,21.8313,0,0,1-.3617-3.8478V28.2624H51.936v37.853a21.8487,21.8487,0,0,1-.3617,3.8478"/><path class="d" d="M64.02,73.7579c-.0009,3.5436-2.0325,6.4412-4.5167,6.4412H5.5167c-2.4843,0-4.5159-2.8976-4.5168-6.4412Z"/><path class="d" d="M32.4192,1c-9.5675,8.2432,9.3543,15.281.5615,22.7381"/><path class="d" d="M20.4042,6.672c-7.181,6.1869,7.0206,11.469.4213,17.066"/><path class="d" d="M44.48,6.672c-7.181,6.1869,7.0209,11.469.4215,17.066"/><line class="e" x1="18.5685" y1="34.0686" x2="18.5685" y2="61.6483"/></svg>