<svg xmlns="http://www.w3.org/2000/svg" viewBox="0 0 71.0328 73.9995"><defs><style>.a{fill:#f58220;}.b{fill:#2cace3;}.b,.d,.e,.f,.h{fill-rule:evenodd;}.c,.f{fill:#bce6f7;}.d{fill:#fff685;}.e{fill:#d1d3d4;}.g,.h{fill:none;stroke:#231f20;stroke-linecap:round;stroke-linejoin:round;stroke-width:1.9998px;}</style></defs><rect class="a" x="12.4212" y="33.9773" width="51.9597" height="39.0223" rx="10.1798"/><path class="b" d="M64.3809,61.8649v.9561A10.2091,10.2091,0,0,1,54.2014,73h-31.6a10.21,10.21,0,0,1-10.18-10.1786v-.9561H29.8118v2.594a4.0842,4.0842,0,0,0,4.072,4.0728H42.92a4.0842,4.0842,0,0,0,4.0719-4.0728v-2.594Z"/><path class="c" d="M33.8829,38.4459h9.0363a4.0717,4.0717,0,0,1,4.0717,4.0717V64.46a4.0714,4.0714,0,0,1-4.0714,4.0714h-9.036a4.072,4.072,0,0,1-4.072-4.072V42.5173A4.0714,4.0714,0,0,1,33.8829,38.4459Z"/><path class="d" d="M30.0113,29.0836h16.78a6.3747,6.3747,0,0,1,5.96,4.8937H24.0509A6.3742,6.3742,0,0,1,30.0113,29.0836Z"/><path class="e" d="M38.4013,13.7249A3.6054,3.6054,0,1,0,34.7959,10.12,3.6125,3.6125,0,0,0,38.4013,13.7249Z"/><path class="f" d="M62.6157,38.4459h-7.25a4.0844,4.0844,0,0,0-4.0719,4.0719V56.8972h13.087v-12.74A10.1053,10.1053,0,0,0,62.6157,38.4459Z"/><path class="f" d="M14.1869,38.4459H21.436a4.084,4.084,0,0,1,4.0719,4.0719V56.8972H12.4212v-12.74A10.1065,10.1065,0,0,1,14.1869,38.4459Z"/><line class="g" x1="35.5145" y1="25.2384" x2="35.5145" y2="13.7252"/><path class="h" d="M35.5168,13.7249A3.6054,3.6054,0,1,0,31.9114,10.12,3.6125,3.6125,0,0,0,35.5168,13.7249Z"/><path class="h" d="M1,19.663l31.0949-8.4062m6.9508-1.88L70.0329,1"/><path class="g" d="M19.7165,33.9773h31.6a10.18,10.18,0,0,1,10.18,10.18V62.82A10.18,10.18,0,0,1,51.3166,73h-31.6a10.18,10.18,0,0,1-10.18-10.18V44.1571A10.18,10.18,0,0,1,19.7165,33.9773Z"/><path class="h" d="M48.4357,61.8649H61.4963v.9561m-51.96,0v-.9561H22.5979"/><path class="g" d="M30.9984,38.4459h9.0363a4.0716,4.0716,0,0,1,4.0716,4.0716V64.46a4.0716,4.0716,0,0,1-4.0716,4.0716H30.9984A4.0714,4.0714,0,0,1,26.927,64.46V42.5173A4.0714,4.0714,0,0,1,30.9984,38.4459Z"/><line class="g" x1="35.5168" y1="41.9268" x2="35.5168" y2="65.0487"/><path class="h" d="M27.1268,29.0836h16.78a6.3748,6.3748,0,0,1,5.96,4.8937H21.1664A6.3742,6.3742,0,0,1,27.1268,29.0836Z"/><path class="h" d="M59.7312,38.4459h-7.25a4.0844,4.0844,0,0,0-4.072,4.0719V56.8972h13.087v-12.74A10.1075,10.1075,0,0,0,59.7312,38.4459Z"/><path class="h" d="M11.3024,38.4459h7.249a4.084,4.084,0,0,1,4.072,4.0719V56.8972H9.5364v-12.74A10.1059,10.1059,0,0,1,11.3024,38.4459Z"/></svg>