<svg xmlns="http://www.w3.org/2000/svg" viewBox="0 0 97.4354 42.9695"><defs><style>.a{fill:#faef5c;}.a,.b,.c,.d{fill-rule:evenodd;}.b{fill:#5d9cc3;}.c{fill:#e6e7e8;}.d,.e{fill:none;stroke:#231f20;stroke-linecap:round;stroke-linejoin:round;stroke-width:1.9998px;}</style></defs><path class="a" d="M47.858,33.9286C43.4119,37.6938,39.38,41.8058,33.74,41.9614a18.5035,18.5035,0,0,1-14.38-5.9168A20.3668,20.3668,0,0,1,13.65,21.9241a21.3673,21.3673,0,0,1,1.8159-8.5408,21.5955,21.5955,0,0,1,4.96-7.0585A19.1459,19.1459,0,0,1,33.6213,1H67.5268A19.1505,19.1505,0,0,1,80.7226,6.3248a21.604,21.604,0,0,1,4.96,7.0594,21.3612,21.3612,0,0,1,1.8156,8.54,20.3724,20.3724,0,0,1-5.709,14.1205,18.5037,18.5037,0,0,1-14.38,5.9168c-5.6625-.1565-9.7019-4.2993-14.1693-8.0759-1.1038-.9312-4.2707-.8561-5.3813.0431ZM45.9412,27.54c1.6552-.7322,7.2885-.8708,9.2892.02a9.0792,9.0792,0,0,1,2.18,1.3957c3.4089,2.8823,6.01,6.4446,10.1755,6.56a12.2193,12.2193,0,0,0,9.5-3.8951,13.9991,13.9991,0,0,0,3.94-9.6962,14.9073,14.9073,0,0,0-1.26-5.9618,15.1022,15.1022,0,0,0-3.4679-4.9346A12.74,12.74,0,0,0,67.5268,7.472H33.6213A12.7369,12.7369,0,0,0,24.85,11.0277a15.1088,15.1088,0,0,0-3.468,4.9337,14.9012,14.9012,0,0,0-1.26,5.9627,13.995,13.995,0,0,0,3.94,9.6962,12.22,12.22,0,0,0,9.5,3.8951c4.1655-.1151,6.7674-3.6774,10.1763-6.56A9.1132,9.1132,0,0,1,45.9412,27.54Z"/><path class="b" d="M8.0465,7.841,17.0879,10.27l.0442.0128a21.9543,21.9543,0,0,0-1.6662,3.1A21.3712,21.3712,0,0,0,13.65,21.9244a20.0661,20.0661,0,0,0,2.4494,9.6415L5.3071,28.8767A2.1255,2.1255,0,0,1,3.7305,26.75L6.47,9.1044C6.6128,8.1832,7.178,7.6086,8.0465,7.841Z"/><path class="b" d="M93.1035,7.841,84.0621,10.27l-.0442.0128a21.9441,21.9441,0,0,1,1.6662,3.1A21.371,21.371,0,0,1,87.5,21.9244a20.0647,20.0647,0,0,1-2.4492,9.6415l10.7921-2.6892A2.1254,2.1254,0,0,0,97.42,26.75L94.68,9.1044C94.5372,8.1832,93.972,7.6086,93.1035,7.841Z"/><path class="c" d="M45.9412,27.54c1.6549-.7322,7.2885-.8711,9.2894.02a9.0781,9.0781,0,0,1,2.18,1.3955c3.4086,2.8822,6.01,6.4448,10.1755,6.56a12.2193,12.2193,0,0,0,9.5-3.8945,13.9984,13.9984,0,0,0,3.94-9.6962,14.91,14.91,0,0,0-1.26-5.9624,15.0906,15.0906,0,0,0-3.4673-4.934,12.7392,12.7392,0,0,0-8.7718-3.5557H33.6213A12.7372,12.7372,0,0,0,24.85,11.028a15.0984,15.0984,0,0,0-3.4674,4.9334,14.897,14.897,0,0,0-1.26,5.963,13.9971,13.9971,0,0,0,3.94,9.6962,12.2206,12.2206,0,0,0,9.5,3.8945c4.1657-.1148,6.7674-3.6774,10.176-6.56A9.0981,9.0981,0,0,1,45.9412,27.54Z"/><path class="d" d="M45.1433,33.9286c-4.4462,3.7652-8.4779,7.8772-14.1186,8.0328a18.5033,18.5033,0,0,1-14.38-5.9168A20.3665,20.3665,0,0,1,10.935,21.9241a21.369,21.369,0,0,1,1.8159-8.5408,21.5958,21.5958,0,0,1,4.96-7.0585A19.1457,19.1457,0,0,1,30.9065,1H64.812A19.1511,19.1511,0,0,1,78.0079,6.3248a21.6022,21.6022,0,0,1,4.96,7.0594,21.36,21.36,0,0,1,1.8156,8.54,20.3727,20.3727,0,0,1-5.7089,14.1205,18.504,18.504,0,0,1-14.38,5.9168c-5.6625-.1565-9.7018-4.2993-14.1692-8.0759-1.1039-.9312-4.2707-.8561-5.3813.0431ZM43.2265,27.54c1.6551-.7322,7.2884-.8708,9.2891.02a9.0772,9.0772,0,0,1,2.18,1.3957c3.409,2.8823,6.01,6.4446,10.1755,6.56a12.22,12.22,0,0,0,9.5-3.8951,13.9991,13.9991,0,0,0,3.94-9.6962,14.909,14.909,0,0,0-1.26-5.9618,15.104,15.104,0,0,0-3.468-4.9346A12.74,12.74,0,0,0,64.812,7.472H30.9065a12.7384,12.7384,0,0,0-8.7718,3.5557,15.1122,15.1122,0,0,0-3.4676,4.9337,14.9012,14.9012,0,0,0-1.26,5.9627,13.995,13.995,0,0,0,3.94,9.6962,12.2193,12.2193,0,0,0,9.5,3.8951c4.1655-.1151,6.7674-3.6774,10.1764-6.56A9.1132,9.1132,0,0,1,43.2265,27.54Z"/><line class="e" x1="29.1321" y1="13.2059" x2="23.2334" y2="21.3442"/><line class="e" x1="37.6142" y1="13.4114" x2="26.6407" y2="28.7843"/><path class="d" d="M8.3034,30.3l-5.711-1.4232A2.1254,2.1254,0,0,1,1.0158,26.75L3.7549,9.1044c.1431-.9212.7084-1.4958,1.5769-1.2634L10.454,9.2175"/><path class="d" d="M87.4144,30.3005l5.7137-1.4238A2.1255,2.1255,0,0,0,94.7048,26.75L91.9657,9.1044c-.1432-.9212-.7084-1.4958-1.577-1.2634l-5.125,1.3771"/></svg>