<svg xmlns="http://www.w3.org/2000/svg" viewBox="0 0 69.8173 72.8714"><defs><style>.a{fill:#939598;}.a,.b,.c,.d{fill-rule:evenodd;}.b{fill:#009ec6;}.c{fill:#c3569e;}.d,.e{fill:none;stroke:#231f20;stroke-linecap:round;stroke-linejoin:round;stroke-width:1.9998px;}</style></defs><path class="a" d="M69.5,59.4452c.7066,8.703.2111,12.4263-14.3218,12.4263H9.0973c-2.7433,0-5.51-2.2618-5.2452-5.0006L3.99,65.4465h.1859l8.8589-3.6239,26.3863.8051,10.472.4025C55.7369,63.03,63.22,62.1824,69.5,59.4452Z"/><path class="b" d="M11.44,1H39.925a2.3131,2.3131,0,0,1,2.3612,2.3613L40.4788,28.2794c-.7537,10.4806,9.444,13.5828,18.0426,14.5367,9.5153,1.0542,11.8533,9.3126,11.1914,15.497-.8535,7.9795-13.0637,7.1334-19.2155,7.1334H3.9805L9.0789,3.3612A2.4425,2.4425,0,0,1,11.44,1Z"/><path class="c" d="M21.7671,65.4465H3.9805l1.717-20.905.2659-.0045C14.6773,44.537,21.743,53.8941,21.7671,65.4465Z"/><path class="c" d="M11.44,1h7.6076q.0153.4572.015.92c0,9.6808-4.8736,17.5274-10.8847,17.5274-.1406,0-.281-.0056-.4193-.0139l1.32-16.0724A2.4425,2.4425,0,0,1,11.44,1Z"/><path class="c" d="M31.0091,1,28.86,29.0958c-.5743,7.5166,4.64,14.3952,11.3236,17.74,5.9193,2.9627,13.2639,3.2836,14.3739-4.6131-7.5126-1.4542-14.7223-5.18-14.0848-13.843L42.2862,3.3612A2.3131,2.3131,0,0,0,39.925,1Z"/><path class="d" d="M55.6864,42.8161C65.2018,43.87,67.54,52.1287,66.8782,58.3131c-.8535,7.9795-13.064,7.1334-19.2158,7.1334H1.1456L6.244,3.3612A2.4431,2.4431,0,0,1,8.6055,1H23.4636"/><path class="d" d="M7.3866,45.3066c5.605,2.0744,9.957,8.1516,11.1915,15.762"/><path class="d" d="M16.0289,5.2734c-.7121,5.9233-3.28,10.7853-6.6861,12.9535"/><path class="d" d="M66.6653,59.4452c.7064,8.703.2109,12.4263-14.3218,12.4263H6.2627c-2.7437,0-5.51-2.2618-5.2452-5.0006l.1374-1.4244H47.6624C53.5063,65.4465,64.8151,66.2087,66.6653,59.4452Z"/><path class="d" d="M28.1745,1,26.025,29.0958c-.5746,7.5166,4.64,14.3952,11.3235,17.74,5.9194,2.9627,13.2639,3.2836,14.374-4.6131C44.21,40.7689,37,37.0436,37.6377,28.38L39.4516,3.3612A2.3133,2.3133,0,0,0,37.09,1Z"/><line class="e" x1="37.8741" y1="16.7209" x2="31.2628" y2="16.8782"/><line class="e" x1="37.5217" y1="24.3869" x2="30.6259" y2="24.8175"/><line class="e" x1="37.6329" y1="31.6229" x2="30.8626" y2="33.0762"/><line class="e" x1="39.4448" y1="36.3882" x2="34.9924" y2="39.7768"/><line class="e" x1="45.0721" y1="40.2317" x2="42.7596" y2="44.4667"/><line class="e" x1="38.5521" y1="9.0523" x2="31.8913" y2="9.0523"/></svg>