<svg xmlns="http://www.w3.org/2000/svg" viewBox="0 0 82.7922 81.4637"><defs><style>.a{fill:#ffcb05;}.a,.b,.c,.d,.e,.f,.h,.i{fill-rule:evenodd;}.b{fill:#e64e53;}.c{fill:#d2e288;}.d,.e,.f,.g,.h,.i{fill:none;stroke:#231f20;stroke-linecap:round;stroke-linejoin:round;}.d{stroke-width:2.0001px;}.e{stroke-width:1.9998px;}.f{stroke-width:2.0619px;}.g{stroke-width:2.9058px;}.h{stroke-width:2.4661px;}.i{stroke-width:2.4659px;}</style></defs><path class="a" d="M64.826,33.2624v21.38c0,9.63-5.6588,16.0812-13.9618,19.1937L36.26,76.6069,25.1132,73.8358C16.8108,70.7233,11.152,64.2731,11.152,54.6421v-21.38Z"/><path class="a" d="M64.826,36.5435h7.7488c6.7314,0,10.2174,5.5681,10.2174,12.3723h0c0,6.804-3.4849,12.3724-10.2174,12.3724h-8.77l-3.5336-3.3077,4.4994-1.7484h5.9862c4.51,0,6.8448-3.2928,6.8448-7.3163h0c0-4.0237-2.3357-7.3162-6.8448-7.3162H64.826l-3.7922-2.656Z"/><path class="b" d="M72.0671,73.8358a10.9425,10.9425,0,0,1-10.0959,6.597H14.0067a10.9424,10.9424,0,0,1-10.0958-6.597Z"/><path class="c" d="M48.6387,44.7344,53.2513,49.3v7.2783a1.4063,1.4063,0,0,1-1.4,1.4H45.4262a1.4052,1.4052,0,0,1-1.4-1.4V49.3Z"/><path class="d" d="M15.67,70.2261A18.9815,18.9815,0,0,1,8.272,54.6421v-21.38H61.9457v21.38a18.9824,18.9824,0,0,1-7.3987,15.584"/><path class="e" d="M65.7379,36.5435h3.9569c6.7314,0,10.2174,5.5681,10.2174,12.3723h0c0,6.804-3.4849,12.3724-10.2174,12.3724H64.7166m.9671-5.0561h2.1929c4.51,0,6.8451-3.2928,6.8451-7.3163h0c0-4.0237-2.3357-7.3162-6.8451-7.3162H65.7379"/><path class="f" d="M69.1871,73.8358a10.9425,10.9425,0,0,1-10.0959,6.597H11.1267A10.9421,10.9421,0,0,1,1.031,73.8358Z"/><path class="e" d="M45.7587,44.7344,50.3713,49.3v7.2783a1.4063,1.4063,0,0,1-1.4,1.4H42.5462a1.4052,1.4052,0,0,1-1.4-1.4V49.3Z"/><line class="g" x1="45.7582" y1="41.2858" x2="45.7582" y2="33.6572"/><path class="h" d="M35.003,1.2331c-11.0708,9.5386,10.8238,17.682.65,26.3106"/><path class="i" d="M21.1,7.7965c-8.3092,7.1589,8.1238,13.2709.4875,19.7472"/><path class="i" d="M48.9582,7.7965c-8.3089,7.1589,8.1238,13.2709.4876,19.7472"/></svg>