<svg xmlns="http://www.w3.org/2000/svg" viewBox="0 0 67.2263 81.311"><defs><style>.a,.c{fill:#8c5f91;}.b,.d{fill:#2aa4a2;}.b,.c,.f,.g,.h{fill-rule:evenodd;}.e,.f,.g,.h,.i{fill:none;stroke:#231f20;stroke-linecap:round;stroke-linejoin:round;}.e,.f{stroke-width:1.9996px;}.g{stroke-width:1.9998px;}.h{stroke-width:2.2229px;}.i{stroke-width:2.0001px;}</style></defs><path class="a" d="M8.4409,13.6794H62.953a4.2733,4.2733,0,0,1,4.2733,4.2733V28.3234a4.2729,4.2729,0,0,1-4.2729,4.2729H8.4411a4.2732,4.2732,0,0,1-4.2732-4.2732V17.9524a4.273,4.273,0,0,1,4.273-4.273Z"/><path class="b" d="M59.0285,32.5963V73.8071a6.5234,6.5234,0,0,1-6.5041,6.5041H18.87a6.523,6.523,0,0,1-6.5041-6.5041V32.5963Z"/><path class="c" d="M9.817,50.0431h2.5487v23.764a6.4164,6.4164,0,0,0,.1213,1.2488H9.817a5.6646,5.6646,0,0,1-5.6491-5.6485V55.6916A5.6646,5.6646,0,0,1,9.817,50.0431Zm49.2115,0h2.5486a5.6647,5.6647,0,0,1,5.6492,5.6485V69.4074a5.6646,5.6646,0,0,1-5.6492,5.6485h-2.67a6.4087,6.4087,0,0,0,.1214-1.2488Z"/><path class="c" d="M31.696,40.1746H39.52a10.2,10.2,0,0,1,10.171,10.1713V80.3112H21.5247V50.3459A10.2,10.2,0,0,1,31.696,40.1746Z"/><path class="b" d="M43.7228,80.3112V65.1977c0-8.7331-16.2306-8.51-16.2306,0V80.3112Z"/><rect class="d" x="17.1471" y="13.6791" width="6.7267" height="18.917"/><rect class="d" x="47.5212" y="13.6791" width="6.7258" height="18.917"/><path class="e" d="M5.2729,13.6794H59.7853a4.2732,4.2732,0,0,1,4.2732,4.2732V28.3234a4.2729,4.2729,0,0,1-4.2729,4.2729H5.2731A4.2732,4.2732,0,0,1,1,28.3231V17.9524a4.273,4.273,0,0,1,4.273-4.273Z"/><path class="f" d="M55.8608,32.5963V73.8071a6.5236,6.5236,0,0,1-6.5041,6.5041H15.7018a6.523,6.523,0,0,1-6.5041-6.5041V32.5963Z"/><path class="g" d="M6.649,50.0431H9.1977v23.764a6.4165,6.4165,0,0,0,.1216,1.2488H6.649A5.6647,5.6647,0,0,1,1,69.4074V55.6916A5.6648,5.6648,0,0,1,6.649,50.0431Zm49.2118,0h2.5486a5.6648,5.6648,0,0,1,5.6491,5.6485V69.4074a5.6647,5.6647,0,0,1-5.6491,5.6485h-2.67a6.4087,6.4087,0,0,0,.1217-1.2488Z"/><polyline class="f" points="20.706 28.135 20.706 13.679 13.979 13.679 13.979 28.135"/><polyline class="f" points="51.08 28.135 51.08 13.679 44.353 13.679 44.353 28.135"/><path class="h" d="M22.2773,9.1606c.5221-4.5058,4.7883-8.0491,9.93-8.0491h.0008c5.1415,0,9.4076,3.5433,9.93,8.0491"/><path class="f" d="M28.528,40.1746h7.8236A10.2,10.2,0,0,1,46.5229,50.3459V80.3112H18.3567V50.3459A10.2,10.2,0,0,1,28.528,40.1746Z"/><line class="i" x1="23.0854" y1="52.2595" x2="41.7944" y2="52.2595"/><path class="f" d="M24.3248,75.4342V65.1979c0-8.51,16.23-8.7329,16.23,0V75.4342"/></svg>