<svg xmlns="http://www.w3.org/2000/svg" viewBox="0 0 92.6353 81.1995"><defs><style>.a{fill:#25918d;}.a,.b,.c,.d,.f,.g,.h{fill-rule:evenodd;}.b{fill:#c1a273;}.c{fill:#006867;}.d,.e,.f,.g,.i{fill:none;stroke:#231f20;stroke-linecap:round;stroke-linejoin:round;}.d{stroke-width:2.0001px;}.e{stroke-width:2.1073px;}.f{stroke-width:2.0004px;}.g{stroke-width:2.1645px;}.h{fill:#231f20;}.i{stroke-width:1.9998px;}</style></defs><polygon class="a" points="60.894 10.429 76.079 15.601 90.806 67.733 80.257 71.122 70 40.381 70 72.408 56.912 72.408 56.912 80.2 39.607 80.2 39.607 72.408 26.519 72.408 26.519 40.381 16.261 71.239 5.713 67.733 20.44 15.601 35.624 10.429 60.894 10.429"/><path class="b" d="M41.6073,2.0041l-.17.066c-6.2683,2.4781-8.8,18.9411-4.8589,16.0674l11.4551-5.8482-.1191-.19C43.8727,10.027,41.5421,6.815,41.6081,2.0052Z"/><path class="b" d="M54.9105,2.0041c6.3939,2.2427,9.0074,19.0329,5.03,16.1334L48.4858,12.2893l.1338-.2143c3.6374-1.9877,5.8439-5.2192,6.2844-10.06Z"/><path class="c" d="M54.904,2.0151C51.7516.7135,44.6894.6083,41.438,2.0293l-.0008.04.1706-.0663c-.0663,4.811,2.2643,8.0235,6.3065,10.0953l.3615.0408.3435-.0646C52.257,10.0871,54.4632,6.8558,54.904,2.0151Z"/><path class="b" d="M70,72.4084v5.5477A2.25,2.25,0,0,1,67.756,80.2H56.9124V72.4084ZM39.6074,80.2H28.7638A2.25,2.25,0,0,1,26.52,77.9561V72.4084H39.6074Z"/><path class="b" d="M16.2273,71.2281l-1.71,5.2092a2.257,2.257,0,0,1-2.8386,1.4366L5.4267,75.8205a2.2552,2.2552,0,0,1-1.4349-2.8386l1.724-5.2484Z"/><path class="b" d="M80,70.3516l1.9978,6.0857a2.2571,2.2571,0,0,0,2.8387,1.4366l6.252-2.0534a2.2552,2.2552,0,0,0,1.4349-2.8386l-1.7229-5.2475L80.2571,71.1221Z"/><polygon class="b" points="53.027 46.428 65.043 46.428 65.043 52.325 58.989 54.734 53.027 52.325 53.027 46.428"/><polygon class="b" points="31.476 46.428 43.492 46.428 43.492 52.325 37.438 54.734 31.476 52.325 31.476 46.428"/><path class="d" d="M62.4583,11.9415,73.2,15.6,87.9265,67.7316l-10.5486,3.39L70.26,49.7888m-3.14-9.4084V72.4082H54.0321V80.2H36.7274V72.4082H23.6384V40.38M20.52,49.7616,13.3816,71.238,2.833,67.7316,17.56,15.6l10.7419-3.6587"/><line class="e" x1="45.3799" y1="19.2931" x2="45.3799" y2="80.0855"/><path class="d" d="M38.7275,2.0032l-.17.0661c-6.268,2.478-8.8,18.9411-4.8589,16.0673l11.4554-5.8482-.1191-.19c-4.0416-2.0721-6.3725-5.284-6.3065-10.0938Z"/><path class="d" d="M52.0305,2.0032c6.3939,2.2428,9.0074,19.033,5.03,16.1334L45.6058,12.2884l.1341-.2143c3.6371-1.9876,5.8436-5.2191,6.2844-10.06Z"/><path class="d" d="M52.0243,2.0143C48.8716.7126,41.81.6074,38.5583,2.0284l-.0011.0406.1706-.0664c-.0663,4.811,2.2646,8.0235,6.3068,10.0954l.3612.0408.3438-.0647C49.377,10.0862,51.5832,6.855,52.0243,2.0143Z"/><path class="d" d="M67.1205,75.9631v1.9922A2.2552,2.2552,0,0,1,64.8757,80.2H53.9246m-17.0265,0H25.8832a2.2524,2.2524,0,0,1-2.2442-2.2442V75.9631"/><path class="f" d="M12.3789,74.179l-.7412,2.2575a2.2572,2.2572,0,0,1-2.8389,1.4366L2.547,75.82A2.2551,2.2551,0,0,1,1.1121,72.981l.7157-2.1789"/><path class="f" d="M23.6192,40.8821a54.53,54.53,0,0,0-3.4147-21.3287"/><path class="f" d="M67.12,40.8821a54.5355,54.5355,0,0,1,3.4149-21.3287"/><polygon class="f" points="50.147 46.427 62.163 46.427 62.163 52.324 56.109 54.733 50.147 52.324 50.147 46.427"/><polyline class="g" points="62.163 56.231 62.163 64.576 50.147 64.576 50.147 56.231"/><path class="h" d="M56.1555,51.8584a1.4841,1.4841,0,1,0-1.4842-1.4839A1.4865,1.4865,0,0,0,56.1555,51.8584Z"/><polygon class="f" points="28.596 46.427 40.612 46.427 40.612 52.324 34.558 54.733 28.596 52.324 28.596 46.427"/><polyline class="g" points="40.612 56.231 40.612 64.576 28.596 64.576 28.596 56.231"/><path class="h" d="M34.6045,51.8584A1.4841,1.4841,0,1,0,33.12,50.3745,1.4865,1.4865,0,0,0,34.6045,51.8584Z"/><line class="i" x1="51.5472" y1="30.422" x2="62.3333" y2="30.422"/><path class="f" d="M78.3766,74.179l.7412,2.2575a2.2573,2.2573,0,0,0,2.8389,1.4366L88.2085,75.82a2.2551,2.2551,0,0,0,1.4349-2.8387l-.7154-2.1789"/></svg>