<svg xmlns="http://www.w3.org/2000/svg" viewBox="0 0 59.31 73.9993"><defs><style>.a{fill:#e64e53;}.a,.b,.c,.d,.e{fill-rule:evenodd;}.b{fill:#538d3f;}.c,.d,.e,.f{fill:none;stroke:#231f20;stroke-linecap:round;stroke-linejoin:round;}.c,.f{stroke-width:2.0001px;}.d{stroke-width:2.0166px;}.e{stroke-width:1.9998px;}</style></defs><path class="a" d="M27.2637,71.9C19.2646,75.7966,13.0222,68.5679,9.31,62.2314,1.4863,48.8842-.15,23.8279,19.9727,21.5083c5.39-.6217,7.4781,1.5639,11.6215,1.4352,2.359.0008,6.2309-2.0577,11.6223-1.4352C63.3388,23.8318,61.7033,48.8842,53.88,62.2314c-3.7125,6.3365-9.955,13.5652-17.954,9.6681C32.6524,70.3061,30.5428,70.3033,27.2637,71.9Z"/><path class="b" d="M31.5707,21.8782C30.12,8.1007,37.0022,2.1525,50.147,2.0918,50.9016,15.2154,45.4117,22.4718,31.5707,21.8782Z"/><path class="c" d="M24.3843,71.9C16.3855,75.7966,10.143,68.5679,6.43,62.2314-1.3931,48.8842-3.0287,23.8279,17.0933,21.5083c5.39-.6217,7.4781,1.5639,11.6215,1.4352,2.359.0008,6.2311-2.0577,11.6226-1.4352,20.122,2.3235,18.4864,27.3759,10.6631,40.7231C47.2877,68.5679,41.0452,75.7966,33.0464,71.9,29.773,70.3061,27.6634,70.3033,24.3843,71.9Z"/><path class="d" d="M16.4507,28.1873c-6.1075,2.192-8.9124,6.5406-8.8571,13.1352"/><path class="e" d="M16.7605,1C22.643,4.9772,27.42,10.7766,28.3786,18.6813"/><path class="e" d="M28.5022,18.6127C28.4268,7.1565,35.2141,2.1482,47.2684,2.0918c.381,6.6362-.8359,11.7706-3.92,15.15"/><line class="f" x1="40.9735" y1="8.6421" x2="32.5435" y2="17.6923"/></svg>