<svg xmlns="http://www.w3.org/2000/svg" viewBox="0 0 44.7638 83.5037"><defs><style>.a{fill:#e6e7e8;}.a,.b,.c,.d,.f,.h,.i,.j,.m{fill-rule:evenodd;}.b{fill:#a7a9ac;}.c,.e{fill:#e64e53;}.d{fill:#bf2736;}.f,.g,.h,.i,.j,.k,.l,.m{fill:none;stroke:#231f20;stroke-linecap:round;stroke-linejoin:round;}.f{stroke-width:2.1237px;}.g{stroke-width:2.0095px;}.h,.l{stroke-width:2.0001px;}.i{stroke-width:2.3791px;}.j,.k{stroke-width:1.9998px;}.m{stroke-width:2.1875px;}</style></defs><path class="a" d="M34.2575,30.4271l3.9019,24.5355c1.1588,5.0224-.5567,9.9609-5.2325,12.235H17.7726c-4.6763-2.2741-6.3921-7.2126-5.233-12.235l3.9016-24.5355Z"/><path class="b" d="M25.3493,58.4913h0A2.9677,2.9677,0,0,1,28.3084,61.45v5.804H22.3911V61.45A2.967,2.967,0,0,1,25.3493,58.4913Z"/><path class="c" d="M24.7569,14.3929h1.186a1.7094,1.7094,0,0,1,1.8312,1.54v3.6652H22.9257V15.9327A1.7089,1.7089,0,0,1,24.7569,14.3929Z"/><polygon class="d" points="33.342 24.04 29.085 19.533 21.614 19.533 17.357 24.04 24.981 26.673 33.342 24.04"/><path class="e" d="M16.76,24.04H33.94a2.164,2.164,0,0,1,2.164,2.164v2.0591A2.1639,2.1639,0,0,1,33.94,30.4271H16.7592a2.1639,2.1639,0,0,1-2.1639-2.1639V26.2043A2.1643,2.1643,0,0,1,16.76,24.04Z"/><path class="c" d="M15.8068,67.1976H34.8933a2.8071,2.8071,0,0,1,2.7989,2.8v5.4454a4.28,4.28,0,0,0-.7253-.0619H13.733a4.2749,4.2749,0,0,0-.726.0625v-5.446A2.8075,2.8075,0,0,1,15.8068,67.1976Z"/><path class="d" d="M13.733,74.9934H36.9669a4.3065,4.3065,0,0,1,4.2942,4.2953V82.504H9.4382V79.2887A4.307,4.307,0,0,1,13.733,74.9934Z"/><path class="f" d="M31.29,30.4271l3.9019,24.5355c1.1588,5.0224-.5567,9.9609-5.2325,12.235H14.805c-4.6763-2.2741-6.3921-7.2126-5.233-12.235l3.9016-24.5355Z"/><line class="g" x1="18.0453" y1="24.04" x2="26.3814" y2="24.04"/><path class="h" d="M14.39,24.04h-.5982a2.171,2.171,0,0,0-2.1639,2.1643v2.0589a2.17,2.17,0,0,0,2.1639,2.1639H30.973a2.17,2.17,0,0,0,2.1637-2.1639V26.2043A2.1707,2.1707,0,0,0,30.973,24.04h-.5992l-4.256-4.5067H18.6457Z"/><path class="i" d="M21.7893,14.3929h1.186a1.7092,1.7092,0,0,1,1.8312,1.54v3.6H19.9581v-3.6A1.7089,1.7089,0,0,1,21.7893,14.3929Z"/><path class="j" d="M10.04,75.0554V69.997a2.8071,2.8071,0,0,1,2.8-2.7991H31.9257a2.8067,2.8067,0,0,1,2.799,2.7991v5.0582a4.2956,4.2956,0,0,1,3.5691,4.2335v3.215H6.4706v-3.215A4.33,4.33,0,0,1,10.04,75.0554Z"/><line class="k" x1="13.4234" y1="74.9934" x2="31.1306" y2="74.9934"/><path class="h" d="M8.3018,26.1635c-2.0234.4176-2.6853,2.4889-3.3293,5.805l-3.71,27.4264c-.7566,4.5757-.1287,11.5075,5.23,12.3074"/><path class="h" d="M36.4623,26.1635c2.0225.4179,2.6847,2.4894,3.3287,5.805l3.71,27.4264c.756,4.5754.1278,11.507-5.23,12.3071"/><path class="h" d="M19.4235,64.0307V61.45a2.9668,2.9668,0,0,1,2.9583-2.9589h.0005A2.9673,2.9673,0,0,1,25.3408,61.45v2.58"/><path class="h" d="M16.7592,15.47a8.3277,8.3277,0,1,1,11.2462-.0011"/><line class="l" x1="16.7964" y1="33.7234" x2="15.5077" y2="43.6374"/><path class="m" d="M31.2207,56.0291c.5239,3.5613-.1264,5.1114-2.1812,6.8895"/></svg>