<svg xmlns="http://www.w3.org/2000/svg" viewBox="0 0 73.0476 81.1997"><defs><style>.a{fill:#5f9641;}.a,.b,.d,.e,.h{fill-rule:evenodd;}.b,.c{fill:#f8bd35;}.d,.e,.f,.g,.h{fill:none;stroke:#231f20;stroke-linecap:round;stroke-linejoin:round;}.d{stroke-width:2.0001px;}.e{stroke-width:1.9996px;}.f{stroke-width:2.1895px;}.g{stroke-width:2.1892px;}.h{stroke-width:1.9998px;}</style></defs><path class="a" d="M23.8018,10.4114H6.2656c-1.68,0-2.3851,1.0985-2.3851,2.76V53.991A5.8625,5.8625,0,0,0,5.204,57.5833l16.414,18.89c3.8288,4.4065,12.5178,5.3833,16.583.3107,3.2355-4.0436,4.3858-10.5483.5729-14.5848L26.3791,49.0749V13.4312C26.3791,11.6241,25.67,10.4114,23.8018,10.4114Z"/><path class="b" d="M21.4587,76.29l.1593.1837c3.8288,4.4065,12.5178,5.3833,16.583.3107,3.2355-4.0436,4.3858-10.5483.5729-14.5848l-1.2161-1.2878Z"/><path class="b" d="M23.8018,10.4114H6.2656c-1.68,0-2.3851,1.0985-2.3851,2.76V23.658H26.3791V13.4312C26.3791,11.6241,25.67,10.4114,23.8018,10.4114Z"/><path class="b" d="M6.0343,46.44c4.4373,0,8.0351,3.9994,8.0351,8.9325a9.1454,9.1454,0,0,1-4.0473,7.7567L5.204,57.5833A5.8625,5.8625,0,0,1,3.8805,53.991V46.7649A7.281,7.281,0,0,1,6.0343,46.44Z"/><rect class="c" x="3.8805" y="27.8828" width="22.4986" height="5.1035"/><rect class="c" x="3.8805" y="37.2113" width="22.4986" height="5.1032"/><polygon class="b" points="14.8 68.627 30.914 53.876 34.418 57.587 18.149 72.48 14.8 68.627"/><path class="a" d="M55.68,1H38.1437c-1.68,0-2.385,1.0982-2.385,2.76V44.58a5.863,5.863,0,0,0,1.3232,3.592l16.4143,18.89c3.8287,4.4068,12.5178,5.3836,16.5829.311,3.2355-4.0439,4.3858-10.5483.5729-14.5848L58.2572,39.6636V4.02C58.2572,2.2128,57.5477,1,55.68,1Z"/><path class="b" d="M53.3369,66.8781l.1593.1837c3.8287,4.4068,12.5178,5.3836,16.5829.311,3.2355-4.0439,4.3858-10.5483.5729-14.5848L69.436,51.5Z"/><path class="b" d="M55.68,1H38.1437c-1.68,0-2.385,1.0982-2.385,2.76V14.2467H58.2572V4.02C58.2572,2.2128,57.5477,1,55.68,1Z"/><path class="b" d="M37.9124,37.0282c4.4374,0,8.0351,3.9994,8.0351,8.9328A9.1449,9.1449,0,0,1,41.9,53.7174l-4.8183-5.5457a5.863,5.863,0,0,1-1.3232-3.592V37.3533A7.29,7.29,0,0,1,37.9124,37.0282Z"/><rect class="c" x="35.7587" y="18.4712" width="22.4985" height="5.1035"/><rect class="c" x="35.7587" y="27.7997" width="22.4985" height="5.1035"/><polygon class="b" points="46.679 59.216 62.792 44.465 66.296 48.175 50.027 63.069 46.679 59.216"/><path class="d" d="M20.9213,10.4114H3.3853C1.7052,10.4114,1,11.51,1,13.1718V53.991a5.8619,5.8619,0,0,0,1.3235,3.5923l16.414,18.89c3.8287,4.4065,12.5178,5.3833,16.5829.3107,3.2355-4.0436,4.3858-10.5483.5729-14.5848L23.4985,49.0749V13.4312C23.4985,11.6241,22.789,10.4114,20.9213,10.4114Z"/><path class="d" d="M18.5782,76.29l.1593.1837c3.8287,4.4065,12.5178,5.3833,16.5829.3107,3.2355-4.0436,4.3858-10.5483.5729-14.5848l-1.2161-1.2878Z"/><path class="d" d="M20.9213,10.4114H3.3853C1.7052,10.4114,1,11.51,1,13.1718V23.658H23.4985V13.4312C23.4985,11.6241,22.789,10.4114,20.9213,10.4114Z"/><path class="d" d="M3.929,46.48c4.0737.4331,7.26,4.2494,7.26,8.892A9.4868,9.4868,0,0,1,9.18,61.2817"/><path class="e" d="M4.3709,27.8828H20.1281m0,5.1035H4.3709"/><path class="e" d="M20.1281,42.3145H4.3709m0-5.1032H20.1281"/><path class="d" d="M29.1307,59.789,17.6492,70.3m-3.41-3.797L25.6316,56.0747"/><line class="f" x1="4.8551" y1="23.463" x2="4.8551" y2="14.0523"/><line class="g" x1="8.552" y1="23.463" x2="8.552" y2="14.0523"/><line class="f" x1="12.2492" y1="23.463" x2="12.2492" y2="14.0523"/><line class="f" x1="15.9462" y1="23.463" x2="15.9462" y2="14.0523"/><line class="f" x1="19.6448" y1="23.463" x2="19.6448" y2="14.0523"/><path class="d" d="M52.7994,1H35.2635c-1.68,0-2.3854,1.0982-2.3854,2.76V44.58a5.8615,5.8615,0,0,0,1.3235,3.592l16.414,18.89c3.8288,4.4068,12.5178,5.3836,16.583.311,3.2354-4.0439,4.3857-10.5483.5729-14.5848L55.3767,39.6636V4.02C55.3767,2.2128,54.6672,1,52.7994,1Z"/><path class="d" d="M50.4563,66.8781l.1593.1837c3.8288,4.4068,12.5178,5.3836,16.583.311,3.2354-4.0439,4.3857-10.5483.5729-14.5848L66.5554,51.5Z"/><path class="d" d="M52.7994,1H35.2635c-1.68,0-2.3854,1.0982-2.3854,2.76V14.2467H55.3767V4.02C55.3767,2.2128,54.6672,1,52.7994,1Z"/><path class="d" d="M35.8071,37.069c4.0737.4329,7.26,4.2494,7.26,8.892A9.488,9.488,0,0,1,41.0578,51.87"/><path class="h" d="M36.2491,18.4712H52.0063m0,5.1035H36.2491"/><path class="h" d="M52.0063,32.9032H36.2491m0-5.1035H52.0063"/><path class="d" d="M61.0088,50.3777,49.5274,60.8888m-3.41-3.7973L57.51,46.6634"/><line class="f" x1="36.7332" y1="14.0514" x2="36.7332" y2="4.6409"/><line class="f" x1="40.4302" y1="14.0514" x2="40.4302" y2="4.6409"/><line class="f" x1="44.1274" y1="14.0514" x2="44.1274" y2="4.6409"/><line class="f" x1="47.8243" y1="14.0514" x2="47.8243" y2="4.6409"/><line class="g" x1="51.523" y1="14.0514" x2="51.523" y2="4.6409"/></svg>