<svg xmlns="http://www.w3.org/2000/svg" viewBox="0 0 63.4897 81.2457"><defs><style>.a{fill:#cb7598;}.a,.b,.c,.f{fill-rule:evenodd;}.b{fill:#fbd13f;}.c,.d,.e,.f{fill:none;stroke:#231f20;stroke-linecap:round;stroke-linejoin:round;}.c{stroke-width:2.0911px;}.d{stroke-width:2.6294px;}.e{stroke-width:1.9998px;}.f{stroke-width:2.0001px;}</style></defs><polygon class="a" points="26.748 57.673 3.926 21.377 26.748 1.046 49.57 21.377 26.748 57.673"/><polygon class="b" points="26.747 66.942 21.633 69.508 16.357 72.156 16.357 66.861 16.357 61.565 21.633 64.213 26.747 66.78 31.862 64.213 37.138 61.565 37.138 66.861 37.138 72.156 31.862 69.508 26.747 66.942"/><polygon class="c" points="23.868 57.673 1.046 21.377 23.868 1.046 46.69 21.377 23.868 57.673"/><line class="d" x1="23.8676" y1="2.6882" x2="23.8676" y2="47.6163"/><line class="e" x1="8.1174" y1="21.9037" x2="39.6166" y2="21.9037"/><path class="f" d="M24.0155,62.2429l-.0317,7.7993c-.0564,14.0035,16.2176,13.0617,17.6213.424.5856-5.28-1.4925-12.1374-1.4789-16.99.0343-12.4872,17.7585-11.8452,14.804-.3442-.7628,2.9679-1.6416,6.5852-1.3,9.26.6219,4.8658,4.8657,7.8276,8.86,2.8694"/><path class="f" d="M19.6791,69.0889l-.8351.4195L13.5679,72.156v-10.59l5.2761,2.6476.8351.4195m8.5583-.0011.8346-.4184,5.2761-2.6476v10.59L29.072,69.5084l-.8346-.4187"/></svg>