<svg xmlns="http://www.w3.org/2000/svg" viewBox="0 0 119.7256 66.8004"><defs><style>.a{fill:#c3c95d;}.a,.b,.c,.d,.f,.h,.i{fill-rule:evenodd;}.b{fill:#d2ab67;}.c,.d,.e,.f,.g,.h,.i{fill:none;stroke:#231f20;stroke-linecap:round;stroke-linejoin:round;}.c,.e{stroke-width:2.0004px;}.d{stroke-width:3.9084px;}.f{stroke-width:2.4168px;}.g{stroke-width:2.0001px;}.h{stroke-width:2.4177px;}.i{stroke-width:2.418px;}</style></defs><path class="a" d="M4.042,31.86C5.2886,21.023,14.4808,9.6357,24.6943,1,34.9079,9.6357,44.1,21.023,45.3476,31.86c1.6489,14.3266-9.4541,22.248-20.6079,22.2426C13.593,54.0974,2.3948,46.1723,4.042,31.86Z"/><polygon class="b" points="87.606 52.198 73.451 56.633 75.467 46.415 55.506 39.696 60.547 35.664 56.716 26.591 65.991 26.187 67.201 20.34 78.492 27.8 73.782 8.847 82.525 10.863 87.622 2.193 92.707 10.863 101.449 8.847 96.74 27.8 108.031 20.34 109.241 26.187 118.516 26.591 114.685 35.664 119.726 39.696 99.765 46.415 101.781 56.633 87.606 52.198"/><polyline class="c" points="81.166 53.314 70.572 56.633 72.588 46.415 52.627 39.696 57.667 35.664 53.836 26.591 63.111 26.187 64.321 20.34 75.612 27.8 70.903 8.847 79.645 10.863 84.742 2.193 89.828 10.863 98.57 8.847 93.86 27.8 105.152 20.34 106.361 26.187 115.637 26.591 111.806 35.664 116.846 39.696 96.885 46.415 98.901 56.633 88.308 53.318"/><polyline class="d" points="67.349 33.965 84.728 41.403 102.108 33.965"/><line class="e" x1="84.7364" y1="65.8002" x2="84.7364" y2="19.7392"/><path class="c" d="M18.245,53.82C8.4331,52.2991-.3064,44.618,1.1623,31.86,2.4084,21.0233,11.6011,9.6357,21.8146,1,32.0281,9.6357,41.2206,21.0233,42.4681,31.86c1.4738,12.8092-7.2453,20.4956-17.081,21.9773"/><polyline class="f" points="10.355 39.835 21.841 47.781 33.326 39.835"/><line class="g" x1="21.8407" y1="65.8002" x2="21.8407" y2="15.4904"/><polyline class="h" points="12.813 30.829 21.841 37.075 30.868 30.829"/><polyline class="i" points="13.952 21.892 21.841 27.35 29.729 21.892"/></svg>