<svg xmlns="http://www.w3.org/2000/svg" viewBox="0 0 107.681 70.3993"><defs><style>.a{fill:#836237;}.a,.b,.c,.d,.e,.f,.g,.h{fill-rule:evenodd;}.b{fill:#997647;}.c{fill:#fffcd5;}.d{fill:#6d6e71;}.e{fill:#939598;}.f,.g,.i,.j{fill:none;stroke:#231f20;stroke-linecap:round;stroke-linejoin:round;}.f,.i{stroke-width:1.9998px;}.g,.j{stroke-width:2.0001px;}.h{fill:#231f20;}</style></defs><path class="a" d="M51.4535,45.147c9.95-10.0091,16.2343-21.0946,21.3928-32.5114,7.679,11.7215,6.3025,28.7716-7.4784,39.9572l-10.0874,5.642C51.71,55.8342,51.4149,49.7385,51.4535,45.147Z"/><path class="b" d="M61.3368,52.593C39.326,37.7916,28.23,19.7792,19.7446,1,6.1082,18.8,11.3084,42.17,38.394,52.593H30.4414c-8.3081,11.0495,8.7985,9.9054,9.1335,16.8027A42.8,42.8,0,0,0,63.336,62.7864c3.2066-2.0908,5.1407-3.5991,7.9952-4.4138.96-1.184,2.66-2.5617,2.5024-3.6933-.1091-.788-1.9123-1.4955-2.9537-2.0863Z"/><path class="c" d="M30.4414,52.593H3.8793C16.6208,66.9857,33.7871,71.3289,48.34,68.6556a45.6186,45.6186,0,0,1-8.7653.74C39.24,62.4984,22.1333,63.6425,30.4414,52.593Z"/><path class="d" d="M80.7036,52.593H70.88a6.6923,6.6923,0,0,1,.4513,5.78,20.1348,20.1348,0,0,1,4.91-.6792l29.58.3651c2.511.0275,2.48-3.39-.0972-3.57-3.9762-.2778-7.2434-1.2643-9.7024-3.6122C91.9342,46.9739,84.9757,46.0144,80.7036,52.593Z"/><path class="e" d="M97.1276,57.9511l8.6938.1074c2.511.0275,2.48-3.39-.0972-3.57a17.7948,17.7948,0,0,1-7.2119-1.8162A10.711,10.711,0,0,1,97.1276,57.9511Z"/><path class="d" d="M18.6705,52.5928H3.8793a52.8378,52.8378,0,0,0,6.54,6.2362Z"/><path class="c" d="M85.088,57.8105l7.052.0944c-2.3666-1.319-4.4195-5.5063-5.9879-4.9675-.6066.2084-1.0641.9862-1.0641,2.4724Z"/><path class="f" d="M36.68,69.3962a42.8485,42.8485,0,0,0,23.7761-6.61c3.2066-2.09,5.1407-3.5991,7.9954-4.4138A6.692,6.692,0,0,0,68,52.593H58.4571C36.4463,37.7916,25.35,19.7792,16.8649,1,3.2285,18.8,8.4287,42.17,35.5143,52.593H1C11.2508,64.1723,23.7959,69.3279,36.68,69.3962Z"/><path class="g" d="M94.2479,57.9511l8.6938.1074c2.5109.0275,2.48-3.39-.0972-3.57a17.7948,17.7948,0,0,1-7.2119-1.8162A10.711,10.711,0,0,1,94.2479,57.9511Z"/><path class="f" d="M82.2083,57.8105l7.052.0944c-2.3667-1.319-4.4195-5.5063-5.9879-4.9675-.6066.2084-1.0641.9862-1.0641,2.4724Z"/><path class="f" d="M77.8239,52.593H68a6.692,6.692,0,0,1,.4515,5.78,20.1336,20.1336,0,0,1,4.91-.6792l29.58.3651c2.5109.0275,2.48-3.39-.0972-3.57-3.9759-.2778-7.2434-1.2643-9.7022-3.6122C89.0545,46.9739,82.096,46.0144,77.8239,52.593Z"/><path class="f" d="M48.5741,45.147c9.9493-10.0091,16.2343-21.0946,21.3925-32.5114,6.9375,10.59,6.4831,25.53-3.8313,36.5638"/><path class="h" d="M89.6858,53.9a1.2211,1.2211,0,1,0-1.2209-1.2212A1.2234,1.2234,0,0,0,89.6858,53.9Z"/><line class="i" x1="11.2276" y1="11.4031" x2="15.8413" y2="11.4031"/><line class="j" x1="9.9614" y1="16.5278" x2="17.7311" y2="16.5278"/><line class="j" x1="9.6076" y1="21.6506" x2="19.9283" y2="21.6506"/><line class="i" x1="10.1884" y1="26.7734" x2="22.4993" y2="26.7734"/><line class="j" x1="11.7787" y1="31.8964" x2="25.5244" y2="31.8964"/><line class="j" x1="14.5336" y1="37.0192" x2="29.0938" y2="37.0192"/><line class="j" x1="18.7564" y1="42.1423" x2="33.3299" y2="42.1423"/><line class="j" x1="25.059" y1="47.265" x2="38.3702" y2="47.265"/><line class="i" x1="68.727" y1="19.7766" x2="66.5443" y2="19.7766"/><line class="j" x1="68.71" y1="23.8869" x2="64.354" y2="23.8869"/><line class="i" x1="67.9619" y1="27.9957" x2="61.9547" y2="27.9957"/><line class="i" x1="66.4638" y1="32.1042" x2="59.3023" y2="32.1042"/><line class="j" x1="64.1564" y1="36.2133" x2="56.3461" y2="36.2133"/><line class="i" x1="60.915" y1="40.3221" x2="53.0276" y2="40.3221"/><line class="j" x1="56.4955" y1="44.4307" x2="49.2776" y2="44.4307"/><path class="f" d="M25.6114,56.0346c-2.5475,7.45,10.7884,7.28,11.0838,13.3616"/><line class="j" x1="7.5394" y1="58.829" x2="11.2834" y2="55.9994"/></svg>