<svg xmlns="http://www.w3.org/2000/svg" viewBox="0 0 45.6595 81.1998"><defs><style>.a{fill:#fcda51;}.a,.b,.c,.d,.e{fill-rule:evenodd;}.b{fill:#d3966c;}.c{fill:#efac3b;}.d,.e{fill:none;stroke:#231f20;stroke-linecap:round;stroke-linejoin:round;}.d{stroke-width:2.0001px;}.e{stroke-width:2.0364px;}</style></defs><path class="a" d="M4.0523,60.8135c.9307-7.0628,5.0208-12.4922,6.488-20.3091.9323-4.9674,1.1151-8.8667,1.3195-15.7762.4742-15.9806,25.3454-15.9749,25.82,0,.2041,6.9095.387,10.8088,1.32,15.7762,1.4669,7.8169,5.5573,13.2463,6.4879,20.3091C48.8919,86.6479.6437,86.6757,4.0523,60.8135Z"/><path class="b" d="M20.8913,13.26A27.5445,27.5445,0,0,1,24.2846,1l3.5921.72a31.8085,31.8085,0,0,0,.8507,11.5617A14.9176,14.9176,0,0,0,20.8913,13.26Z"/><path class="c" d="M11.3646,60.8135c.6021-7.0628,3.2488-12.4922,4.1981-20.3091a143.53,143.53,0,0,0,.8538-15.7762c.3067-15.9806,16.4-15.9749,16.7066,0a143.5085,143.5085,0,0,0,.8537,15.7762c.9494,7.8169,3.5961,13.2463,4.1982,20.3091C40.378,86.6479,9.1592,86.6757,11.3646,60.8135Z"/><path class="a" d="M19.1148,60.8135c.254-7.0628,1.37-12.4922,1.7708-20.3091.2546-4.9674.3044-8.8667.36-15.7762.13-15.9806,6.9182-15.9749,7.0478,0,.0558,6.9095.1057,10.8088.36,15.7762.4,7.8169,1.5169,13.2463,1.7709,20.3091C31.3542,86.6479,18.1842,86.6757,19.1148,60.8135Z"/><path class="d" d="M1.1726,60.8135c.9306-7.0628,5.0207-12.4922,6.488-20.3091.9323-4.9674,1.1151-8.8667,1.32-15.7762.4742-15.9806,25.3454-15.9749,25.82,0,.2041,6.9095.387,10.8088,1.32,15.7762,1.4669,7.8169,5.5573,13.2463,6.4879,20.3091C46.0122,86.6479-2.236,86.6757,1.1726,60.8135Z"/><path class="d" d="M18.4305,9.5776A25.1953,25.1953,0,0,1,21.4049,1l3.5921.72a31.4968,31.4968,0,0,0,.1049,7.8024"/><path class="e" d="M11.1905,73.6494c-2.05-3.128-3.192-7.4928-2.7051-13.0958.6021-6.9355,3.2485-12.2672,4.1973-19.9431a138.2178,138.2178,0,0,0,.8538-15.4922,17.233,17.233,0,0,1,1.0984-5.9973m14.51.0014a17.235,17.235,0,0,1,1.0987,5.9959,138.2812,138.2812,0,0,0,.8541,15.4922c.9488,7.6759,3.5952,13.0076,4.197,19.9431.4864,5.5993-.6571,9.9615-2.7079,13.091"/><path class="d" d="M17.8919,75.7825c-1.1792-3.2233-1.9-8.2109-1.6568-14.969.254-7.0628,1.3711-12.4922,1.7708-20.3091.2543-4.9674.3039-8.8667.36-15.7762a35.7933,35.7933,0,0,1,.7506-7.5818m5.5463.0006a35.72,35.72,0,0,1,.7514,7.5812c.0559,6.9095.1055,10.8088.36,15.7762.4,7.8169,1.5169,13.2463,1.7706,20.3091.2432,6.755-.4788,11.742-1.6595,14.9664"/></svg>