<svg xmlns="http://www.w3.org/2000/svg" viewBox="0 0 64.872 88.3986"><defs><style>.a{fill:#ffd543;}.a,.b,.c,.d,.e,.f,.h{fill-rule:evenodd;}.b{fill:#fee693;}.c{fill:#d47531;}.d{fill:#8ac054;}.e{fill:#609c42;}.f,.g{fill:none;stroke:#231f20;stroke-linecap:round;stroke-linejoin:round;stroke-width:1.9996px;}.h{fill:#231f20;}</style></defs><path class="a" d="M30.5461,14.4012C28.3518,9.5874,29.8443,4.8544,34.5055,1c4.6574,3.85,6.2065,8.6009,4.0128,13.4042a17.5714,17.5714,0,0,0-7.9722-.0028Z"/><path class="b" d="M39.0841,14.5472c.7047-4.9442,4.314-8.0947,10.0644-9.0661,2.0146,5.4122,1.1588,10.1177-2.6759,13.197A17.4156,17.4156,0,0,0,39.0841,14.5472Z"/><path class="a" d="M47.207,19.41c3.0838-3.85,7.7516-4.7438,13.1738-2.7258-.9686,5.7351-4.1,9.3946-9.0213,10.1078A17.4274,17.4274,0,0,0,47.207,19.41Z"/><path class="b" d="M51.5126,27.3941c4.799-2.1677,9.5156-.6687,13.3594,3.9792-3.8387,4.6429-8.5745,6.1957-13.3631,4.03a17.56,17.56,0,0,0,.0037-8.0095Z"/><path class="b" d="M29.93,14.5571c-.7021-4.95-4.3112-8.104-10.0652-9.076-2.018,5.4216-1.1566,10.1339,2.6957,13.2134A17.4188,17.4188,0,0,1,29.93,14.5571Z"/><path class="a" d="M21.8239,19.4318c-3.0835-3.8684-7.7593-4.77-13.1913-2.7476.9714,5.7492,4.1153,9.413,9.0584,10.1129A17.43,17.43,0,0,1,21.8239,19.4318Z"/><path class="b" d="M17.5348,27.41c-4.811-2.19-9.54-.6956-13.3934,3.9637,3.848,4.6542,8.5966,6.2037,13.3971,4.0147a17.5816,17.5816,0,0,1-.0037-7.9784Z"/><path class="a" d="M30.5441,48.3832c-2.1917,4.8115-.6984,9.5425,3.9614,13.3962,4.656-3.8494,6.2051-8.598,4.0148-13.4a17.5832,17.5832,0,0,1-7.9762.0037Z"/><path class="b" d="M39.0849,48.2364c.7067,4.9413,4.3152,8.0912,10.0636,9.0618,2.0137-5.4108,1.1593-10.1155-2.6731-13.195A17.4208,17.4208,0,0,1,39.0849,48.2364Z"/><path class="a" d="M47.2093,43.3721c3.0838,3.848,7.7508,4.741,13.1715,2.7227-.9686-5.7348-4.0989-9.3935-9.02-10.1069A17.4172,17.4172,0,0,1,47.2093,43.3721Z"/><path class="b" d="M29.93,48.227c-.7035,4.9473-4.3126,8.1-10.0652,9.0712-2.0174-5.42-1.1566-10.1319,2.6929-13.2115A17.4276,17.4276,0,0,0,29.93,48.227Z"/><path class="a" d="M21.8219,43.35c-3.0838,3.8667-7.7578,4.7665-13.1893,2.7448.9706-5.749,4.1148-9.4119,9.057-10.1126A17.4309,17.4309,0,0,0,21.8219,43.35Z"/><path class="c" d="M34.5262,48.84A17.448,17.448,0,1,0,17.0781,31.392,17.4816,17.4816,0,0,0,34.5262,48.84Z"/><path class="d" d="M37.152,59.0766V85.4439c0,2.793-5.2529,2.4205-5.2529-.0235V59.1211a16.8555,16.8555,0,0,0,2.6064,2.6583A16.9593,16.9593,0,0,0,37.152,59.0766Z"/><path class="e" d="M7.3712,60.8973c14.394.7466,21.8171,5.0607,24.5279,9.2591v6.9423C28.3892,80.8149,17.8767,79.2508,7.3712,60.8973Z"/><path class="e" d="M61.68,60.8973c-14.3935.7461-21.8172,5.0613-24.5279,9.2577v6.9437C40.6624,80.8149,51.1735,79.2516,61.68,60.8973Z"/><path class="f" d="M27.4048,14.4012C25.21,9.5874,26.7026,4.8544,31.3639,1,36.0212,4.85,37.57,9.6007,35.3766,14.404a17.57,17.57,0,0,0-7.9718-.0028Z"/><path class="f" d="M35.9424,14.5472c.705-4.9442,4.3141-8.0947,10.0644-9.0661,2.0146,5.4122,1.1588,10.1177-2.6759,13.197A17.415,17.415,0,0,0,35.9424,14.5472Z"/><path class="f" d="M44.0654,19.41c3.0838-3.85,7.7516-4.7438,13.1737-2.7258-.9686,5.7351-4.1,9.3946-9.0212,10.1078A17.4284,17.4284,0,0,0,44.0654,19.41Z"/><path class="f" d="M48.3709,27.3941c4.7991-2.1677,9.5157-.6687,13.3594,3.9792-3.8386,4.6429-8.5745,6.1957-13.3628,4.03a17.566,17.566,0,0,0,.0034-8.0095Z"/><path class="f" d="M26.7885,14.5571c-.7021-4.95-4.3112-8.104-10.0653-9.076-2.0179,5.4216-1.1565,10.1339,2.6961,13.2134A17.4153,17.4153,0,0,1,26.7885,14.5571Z"/><path class="f" d="M18.6826,19.4318c-3.0839-3.8684-7.7593-4.77-13.1916-2.7476.9714,5.7492,4.1153,9.413,9.0584,10.1129A17.4261,17.4261,0,0,1,18.6826,19.4318Z"/><path class="f" d="M14.3932,27.41c-4.811-2.19-9.54-.6956-13.3934,3.9637,3.848,4.6542,8.5966,6.2037,13.3971,4.0147a17.5928,17.5928,0,0,1-.0037-7.9784Z"/><path class="f" d="M27.4025,48.3832c-2.1918,4.8115-.6985,9.5425,3.9614,13.3962,4.6559-3.8494,6.205-8.598,4.015-13.4a17.5841,17.5841,0,0,1-7.9764.0037Z"/><path class="f" d="M35.9433,48.2364c.7069,4.9413,4.3152,8.0912,10.0635,9.0618,2.0138-5.4108,1.1594-10.1155-2.673-13.195A17.4214,17.4214,0,0,1,35.9433,48.2364Z"/><path class="f" d="M44.0677,43.3721c3.0838,3.848,7.7507,4.741,13.1714,2.7227-.9686-5.7348-4.0989-9.3935-9.02-10.1069A17.4172,17.4172,0,0,1,44.0677,43.3721Z"/><path class="f" d="M26.7885,48.227c-.7036,4.9473-4.3126,8.1-10.0653,9.0712-2.0171-5.42-1.1565-10.1319,2.6932-13.2115A17.4251,17.4251,0,0,0,26.7885,48.227Z"/><path class="f" d="M18.68,43.35c-3.0838,3.8667-7.7579,4.7665-13.1893,2.7448.9708-5.749,4.1147-9.4119,9.0569-10.1126A17.431,17.431,0,0,0,18.68,43.35Z"/><path class="f" d="M31.3849,48.84A17.448,17.448,0,1,0,13.9368,31.392,17.4816,17.4816,0,0,0,31.3849,48.84Z"/><path class="f" d="M34.01,59.0766V85.4439c0,2.793-5.2528,2.4205-5.2528-.0235V59.1211a16.8555,16.8555,0,0,0,2.6064,2.6583A16.9456,16.9456,0,0,0,34.01,59.0766Z"/><path class="f" d="M24.8527,78.7184c-4.9337.224-12.78-4.119-20.6232-17.8211,9.9667.517,16.5907,2.7442,20.6232,5.46"/><line class="g" x1="24.8527" y1="73.6209" x2="11.8179" y2="65.549"/><path class="f" d="M37.9151,78.7184c4.9345.224,12.7794-4.1184,20.6231-17.8211-9.9674.5162-16.5906,2.7448-20.6231,5.46"/><line class="g" x1="37.9151" y1="73.62" x2="50.9499" y2="65.5495"/><path class="h" d="M42.16,40.8371a1.36,1.36,0,1,1,1.36-1.3578A1.3583,1.3583,0,0,1,42.16,40.8371Z"/><path class="h" d="M42.16,35.4481a1.36,1.36,0,1,1,1.36-1.3606A1.36,1.36,0,0,1,42.16,35.4481Z"/><path class="h" d="M42.16,30.0583a1.36,1.36,0,1,1,1.36-1.3617A1.36,1.36,0,0,1,42.16,30.0583Z"/><path class="h" d="M42.16,24.668a1.36,1.36,0,1,1,1.36-1.36A1.36,1.36,0,0,1,42.16,24.668Z"/><path class="h" d="M36.7716,43.3764a1.36,1.36,0,1,1,1.36-1.361A1.3584,1.3584,0,0,1,36.7716,43.3764Z"/><path class="h" d="M36.7716,37.986a1.36,1.36,0,1,1,1.36-1.3584A1.3586,1.3586,0,0,1,36.7716,37.986Z"/><path class="h" d="M36.7716,32.5965a1.36,1.36,0,1,1,1.36-1.36A1.36,1.36,0,0,1,36.7716,32.5965Z"/><path class="h" d="M36.7716,27.2061a1.36,1.36,0,1,1,1.36-1.3617A1.36,1.36,0,0,1,36.7716,27.2061Z"/><path class="h" d="M36.7716,21.8152a1.36,1.36,0,1,1,1.36-1.36A1.3582,1.3582,0,0,1,36.7716,21.8152Z"/><path class="h" d="M31.3826,46.2286a1.36,1.36,0,1,1,1.36-1.36A1.36,1.36,0,0,1,31.3826,46.2286Z"/><path class="h" d="M31.3826,40.8371a1.36,1.36,0,1,1,1.36-1.3578A1.3591,1.3591,0,0,1,31.3826,40.8371Z"/><path class="h" d="M31.3826,35.4481a1.36,1.36,0,1,1,1.36-1.3606A1.3606,1.3606,0,0,1,31.3826,35.4481Z"/><path class="h" d="M31.3826,30.0583a1.36,1.36,0,1,1,1.36-1.3617A1.3608,1.3608,0,0,1,31.3826,30.0583Z"/><path class="h" d="M31.3826,24.668a1.36,1.36,0,1,1,1.36-1.36A1.36,1.36,0,0,1,31.3826,24.668Z"/><path class="h" d="M31.3826,19.2765a1.36,1.36,0,1,1,1.36-1.3584A1.36,1.36,0,0,1,31.3826,19.2765Z"/><path class="h" d="M25.9948,43.3764a1.36,1.36,0,1,1,1.3592-1.361A1.36,1.36,0,0,1,25.9948,43.3764Z"/><path class="h" d="M25.9948,37.986a1.36,1.36,0,1,1,1.3592-1.3584A1.36,1.36,0,0,1,25.9948,37.986Z"/><path class="h" d="M25.9948,32.5965a1.36,1.36,0,1,1,1.3592-1.36A1.3623,1.3623,0,0,1,25.9948,32.5965Z"/><path class="h" d="M25.9948,27.2061a1.36,1.36,0,1,1,1.3592-1.3617A1.3616,1.3616,0,0,1,25.9948,27.2061Z"/><path class="h" d="M25.9948,21.8152a1.36,1.36,0,1,1,1.3592-1.36A1.36,1.36,0,0,1,25.9948,21.8152Z"/><path class="h" d="M20.6059,40.8371a1.36,1.36,0,1,1,1.3606-1.3578A1.3573,1.3573,0,0,1,20.6059,40.8371Z"/><path class="h" d="M20.6059,35.4481a1.36,1.36,0,1,1,1.3606-1.3606A1.3588,1.3588,0,0,1,20.6059,35.4481Z"/><path class="h" d="M20.6059,30.0583a1.36,1.36,0,1,1,1.3606-1.3617A1.3591,1.3591,0,0,1,20.6059,30.0583Z"/><path class="h" d="M20.6059,24.668a1.36,1.36,0,1,1,1.3606-1.36A1.3587,1.3587,0,0,1,20.6059,24.668Z"/></svg>