<svg xmlns="http://www.w3.org/2000/svg" viewBox="0 0 64.0628 70.3994"><defs><style>.a{fill:#ffd597;}.a,.b,.c,.d,.e,.f,.i,.j,.k,.l,.m,.n{fill-rule:evenodd;}.b{fill:#f69e1d;}.c{fill:#7372b5;}.d,.e{fill:#231f20;}.d,.e,.f,.g,.h,.i,.j,.k,.l,.m,.n,.o,.p{stroke:#231f20;}.d,.e,.j,.k,.l,.m,.n{stroke-miterlimit:2.6131;}.d{stroke-width:0.2163px;}.e{stroke-width:0.216px;}.f,.g,.h,.i,.j,.k,.l,.m,.n,.o,.p{fill:none;stroke-linecap:round;}.f,.g,.h,.i,.o,.p{stroke-linejoin:round;}.f{stroke-width:1.9996px;}.g{stroke-width:1.9998px;}.h{stroke-width:2.4114px;}.i{stroke-width:1.9993px;}.j{stroke-width:1.999px;}.k,.p{stroke-width:2.0004px;}.l{stroke-width:1.9981px;}.m{stroke-width:1.9987px;}.n{stroke-width:2.001px;}.o{stroke-width:2.0001px;}</style></defs><path class="a" d="M57.356,38.0915,53.2447,69.4H14.5537L10.4426,38.0915c1.0491.4147,12.7044-5.7929,24.2377-5.7657C45.3485,32.3513,55.9376,38.6522,57.356,38.0915Z"/><path class="b" d="M58.4944,20.6264a9.7026,9.7026,0,0,1,5.5684,8.4727c0,5.4644-5.1576,9.8952-11.5194,9.8952a12.1882,12.1882,0,0,1-9.3221-4.081,12.1881,12.1881,0,0,1-9.322,4.081,12.1885,12.1885,0,0,1-9.322-4.081,12.1878,12.1878,0,0,1-9.322,4.081c-6.3618,0-11.52-4.4308-11.52-9.8952a9.7028,9.7028,0,0,1,5.5686-8.4727C10.49,9.6146,21.0479,1,33.8993,1S57.3084,9.6146,58.4944,20.6264Z"/><path class="c" d="M24.4143,15.3789a4.0611,4.0611,0,1,0-4.0609-4.0609A4.0688,4.0688,0,0,0,24.4143,15.3789Z"/><path class="c" d="M43.0408,14.3958a2.861,2.861,0,1,0-2.8607-2.861A2.8665,2.8665,0,0,0,43.0408,14.3958Z"/><path class="c" d="M33.162,27.7858a3.7633,3.7633,0,1,0-3.7632-3.7632A3.7706,3.7706,0,0,0,33.162,27.7858Z"/><path class="c" d="M15.9328,29.7406a2.92,2.92,0,1,0-2.92-2.9194A2.9251,2.9251,0,0,0,15.9328,29.7406Z"/><path class="c" d="M51.6261,28.3057a3.5024,3.5024,0,1,0-3.5022-3.5022A3.5092,3.5092,0,0,0,51.6261,28.3057Z"/><path class="d" d="M12.9377,17.8405a1.4235,1.4235,0,1,0-1.4236-1.4233A1.4261,1.4261,0,0,0,12.9377,17.8405Z"/><path class="d" d="M32.7768,7.9033A1.4234,1.4234,0,1,0,31.3535,6.48,1.4261,1.4261,0,0,0,32.7768,7.9033Z"/><path class="d" d="M29.5825,35.2662a1.4236,1.4236,0,1,0-1.4236-1.4236A1.4263,1.4263,0,0,0,29.5825,35.2662Z"/><path class="d" d="M42.5867,32.1455a1.4236,1.4236,0,1,0-1.4233-1.4235A1.4263,1.4263,0,0,0,42.5867,32.1455Z"/><path class="d" d="M48.8286,16.54a1.4236,1.4236,0,1,0-1.4236-1.4235A1.4263,1.4263,0,0,0,48.8286,16.54Z"/><path class="d" d="M54.03,33.1847a1.4234,1.4234,0,1,0-1.4236-1.4233A1.4261,1.4261,0,0,0,54.03,33.1847Z"/><path class="e" d="M39.2052,22.7818a1.4234,1.4234,0,1,0-1.4233-1.4232A1.4261,1.4261,0,0,0,39.2052,22.7818Z"/><path class="d" d="M21.26,24.6028a1.4236,1.4236,0,1,0-1.4235-1.4235A1.4263,1.4263,0,0,0,21.26,24.6028Z"/><path class="d" d="M5.6552,31.3649a1.4235,1.4235,0,1,0-1.4236-1.4233A1.4261,1.4261,0,0,0,5.6552,31.3649Z"/><path class="d" d="M16.5782,35.0057a1.4236,1.4236,0,1,0-1.4235-1.4236A1.4263,1.4263,0,0,0,16.5782,35.0057Z"/><path class="d" d="M30.5091,16.28a1.4236,1.4236,0,1,0-1.4236-1.4236A1.4263,1.4263,0,0,0,30.5091,16.28Z"/><polyline class="f" points="54.031 42.58 50.509 69.4 11.818 69.4 8.296 42.58"/><line class="g" x1="31.163" y1="64.7669" x2="31.163" y2="44.7486"/><line class="h" x1="18.0786" y1="64.7669" x2="15.291" y2="44.7486"/><line class="h" x1="44.2472" y1="64.7669" x2="47.0356" y2="44.7486"/><path class="i" d="M55.7581,20.6264a9.7027,9.7027,0,0,1,5.5687,8.4727c0,5.4644-5.1576,9.8952-11.5194,9.8952a12.1882,12.1882,0,0,1-9.3221-4.081,12.1886,12.1886,0,0,1-9.322,4.081,12.1891,12.1891,0,0,1-9.3223-4.081,12.1869,12.1869,0,0,1-9.322,4.081C6.1572,38.9943,1,34.5635,1,29.0991a9.7028,9.7028,0,0,1,5.5686-8.4727C7.7543,9.6146,18.3119,1,31.1633,1S54.5724,9.6146,55.7581,20.6264Z"/><path class="j" d="M21.6783,15.3789a4.0611,4.0611,0,1,0-4.0609-4.0609A4.0688,4.0688,0,0,0,21.6783,15.3789Z"/><path class="k" d="M40.3048,14.3958a2.861,2.861,0,1,0-2.8607-2.861A2.8665,2.8665,0,0,0,40.3048,14.3958Z"/><path class="l" d="M30.426,27.7858a3.7633,3.7633,0,1,0-3.7632-3.7632A3.7706,3.7706,0,0,0,30.426,27.7858Z"/><path class="m" d="M13.1965,29.7406a2.92,2.92,0,1,0-2.92-2.9194A2.9251,2.9251,0,0,0,13.1965,29.7406Z"/><path class="n" d="M48.89,28.3057a3.5024,3.5024,0,1,0-3.5022-3.5022A3.5092,3.5092,0,0,0,48.89,28.3057Z"/><line class="o" x1="24.433" y1="64.7669" x2="22.9993" y2="44.7486"/><line class="p" x1="37.8928" y1="64.7669" x2="39.3271" y2="44.7486"/></svg>