<svg xmlns="http://www.w3.org/2000/svg" viewBox="0 0 48.5199 70.6209"><defs><style>.a{fill:#f29da8;}.a,.b,.d,.e,.g{fill-rule:evenodd;}.b{fill:#d6255f;}.c,.d{fill:#fffcd5;}.e,.f,.g{fill:none;stroke:#231f20;stroke-linecap:round;stroke-linejoin:round;}.e{stroke-width:1.9998px;}.f{stroke-width:2.442px;}.g{stroke-width:2.0001px;}</style></defs><polygon class="a" points="42.345 7.764 42.345 12.253 42.248 12.13 10.151 12.13 10.055 12.253 10.055 7.764 42.345 7.764"/><path class="b" d="M44.8632,19.5c2.0285,2.554,3.6159,6.1249,3.6159,8.2211v35.48a6.4391,6.4391,0,0,1-6.42,6.42H10.3418a6.4389,6.4389,0,0,1-6.42-6.42V27.7213c0-2.1019,1.5928-5.6821,3.627-8.2364,1.2.9366,1.9426,2.2978,4.4878,2.2978,3.8863,0,3.6385-3.1609,7.0823-3.1635,3.5091,0,3.1992,3.1635,7.08,3.1635,3.8863,0,3.6385-3.1609,7.0829-3.1635,3.5084,0,3.1986,3.1635,7.0792,3.1635C42.8974,21.7827,43.6727,20.4359,44.8632,19.5Z"/><path class="c" d="M9.2652,1.221h33.87A1.1421,1.1421,0,0,1,44.277,2.3631V6.6222a1.142,1.142,0,0,1-1.142,1.142H9.2652A1.1421,1.1421,0,0,1,8.1231,6.6221V2.3631A1.1421,1.1421,0,0,1,9.2652,1.221Z"/><path class="d" d="M42.3443,12.13a11.4413,11.4413,0,0,1,5.099,6.49c-3.4438.0029-3.1964,3.1632-7.0826,3.1632-3.88,0-3.5706-3.1632-7.079-3.1632-3.4447.0029-3.1964,3.1632-7.0829,3.1632-3.88,0-3.5706-3.1632-7.08-3.1632-3.4441.0029-3.1963,3.1632-7.0829,3.1632-3.88,0-3.5705-3.1632-7.079-3.1632a10.9276,10.9276,0,0,1,5.0984-6.49Z"/><rect class="c" x="3.8796" y="33.7426" width="44.6403" height="23.2458"/><path class="e" d="M43.9516,22.6229a12.4388,12.4388,0,0,1,1.6055,5.0984v35.48a6.439,6.439,0,0,1-6.42,6.42H7.42A6.4391,6.4391,0,0,1,1,63.2008V27.7213a12.4389,12.4389,0,0,1,1.6044-5.0984"/><path class="f" d="M6.3435,1.221H40.213a1.142,1.142,0,0,1,1.142,1.142V6.6222a1.142,1.142,0,0,1-1.142,1.142H6.3435A1.1421,1.1421,0,0,1,5.2014,6.6221V2.3631A1.1421,1.1421,0,0,1,6.3435,1.221Z"/><path class="e" d="M39.4224,12.13a11.4408,11.4408,0,0,1,5.0992,6.49c-3.4438.0029-3.1963,3.1632-7.0826,3.1632-3.8806,0-3.5708-3.1632-7.0793-3.1632-3.4443.0029-3.1963,3.1632-7.0826,3.1632-3.88,0-3.5708-3.1632-7.08-3.1632-3.4438.0029-3.1964,3.1632-7.0827,3.1632-3.88,0-3.5708-3.1632-7.0792-3.1632a10.9267,10.9267,0,0,1,5.0987-6.49Z"/><path class="e" d="M5.1617,33.7426h36.233m0,23.2458H5.1617"/><polygon class="g" points="39.52 7.764 39.52 12.253 39.423 12.13 7.134 12.13 7.037 12.253 7.037 7.764 39.52 7.764"/></svg>