<svg xmlns="http://www.w3.org/2000/svg" viewBox="0 0 68.7257 88.4897"><defs><style>.a{fill:#d67944;}.a,.b,.c,.d,.e,.f,.g,.h,.i{fill-rule:evenodd;}.b{fill:#b0bec7;}.c{fill:#929ca4;}.d,.e,.f,.g,.h,.i{fill:none;stroke:#231f20;stroke-linecap:round;stroke-linejoin:round;}.d{stroke-width:2.1779px;}.e{stroke-width:1.9996px;}.f{stroke-width:1.9993px;}.g{stroke-width:2.0001px;}.h{stroke-width:1.9998px;}.i{stroke-width:2.7731px;}</style></defs><path class="a" d="M67.4918,1.4213l.0009.0006A3.0682,3.0682,0,0,1,68.21,5.6492L45.254,45.41a8.91,8.91,0,0,1-4.7279-2.7519L63.4723,2.914A3.0678,3.0678,0,0,1,67.4918,1.4213Z"/><path class="b" d="M42.3185,53.5589l.7137,4.3555,1.804,11.0046c-10.7031-1.0667-18.7844-5.8853-24.4695-14.1276l10.432-3.94,4.1287-1.56Z"/><path class="c" d="M46.9316,44.9484,42.05,53.4039a7.1986,7.1986,0,0,1-6.8539-3.9572l4.8816-8.4555A9.1423,9.1423,0,0,0,46.9316,44.9484Z"/><path class="d" d="M40.4669,38.5713,61.1881,2.6807A2.9035,2.9035,0,0,1,65.073,1.4219l.0006,0a2.9038,2.9038,0,0,1,.8523,3.9938L45.1956,41.322"/><path class="e" d="M40.4569,56.9591l.1565.9558L42.4171,68.92C31.7143,67.8529,23.633,63.034,17.9476,54.792l10.432-3.94.9063-.3424"/><path class="e" d="M20.4151,53.8622,2.0189,60.8105,1,62.5757m40.9887,3.742L45.17,85.7234,44.15,87.49"/><path class="f" d="M43.3987,76.5536A37.2209,37.2209,0,0,1,10.8454,57.759"/><path class="g" d="M10.2969,74.1467l1.1421-1.978L23.1163,61.1229m11.247,6.429-3.74,15.6926L29.4764,85.23"/><path class="h" d="M16.0373,78.9953l1.1052-1.9142L26.51,63.8889m3.7627,2.1337L23.5168,80.7613l-1.1052,1.9143"/><path class="h" d="M44.5125,44.949l-4.8816,8.4554a7.199,7.199,0,0,1-6.8541-3.9571l4.8818-8.4558A9.1414,9.1414,0,0,0,44.5125,44.949Z"/><path class="i" d="M5.2869,68.224l.9975-1.728L19.607,58.6508M38.2456,69.3556l-.1329,15.5165-1.0012,1.7345"/></svg>