<svg xmlns="http://www.w3.org/2000/svg" viewBox="0 0 67.4655 84.8678"><defs><style>.a{fill:#b06336;}.a,.b,.c,.d,.f,.h,.i,.j{fill-rule:evenodd;}.b{fill:#d8b08b;}.c{fill:#f58220;}.d,.e,.f,.g,.h,.i,.j{fill:none;stroke:#231f20;stroke-linecap:round;stroke-linejoin:round;}.d,.e{stroke-width:1.9998px;}.f{stroke-width:2.6609px;}.g{stroke-width:2.1195px;}.h{stroke-width:2.0577px;}.i{stroke-width:2.0832px;}.j{stroke-width:2.0829px;}</style></defs><path class="a" d="M13.3889,56.6106l22.51,6.0313L31.085,69.6338c-.2336.3393-22.1961.2829-22.5593.45a7.2133,7.2133,0,0,1-3.94-8.39h0a7.2077,7.2077,0,0,1,8.8027-5.0828ZM63.2715,70.0837c-.3634.1669-15.2067-3.1215-15.5182-2.8514L35.8988,77.524l22.5088,6.0313a7.2087,7.2087,0,0,0,8.8035-5.0819h0A7.2123,7.2123,0,0,0,63.2715,70.0837Z"/><path class="b" d="M63.2262,70.5341c3.1493.8436,4.9337,4.3979,3.9844,7.94-.9482,3.54-4.27,5.726-7.42,4.8824s-4.9343-4.3985-3.9855-7.9384a7.0876,7.0876,0,0,1,2.68-3.9458l3.6431-.976q.18-.048.3558-.1052A5.2441,5.2441,0,0,1,63.2262,70.5341Z"/><path class="a" d="M58.4079,56.6106,9.6687,69.67a7.2087,7.2087,0,0,0-5.0825,8.8027h0a7.209,7.209,0,0,0,8.8029,5.0825l48.74-13.06a7.2085,7.2085,0,0,0,5.0822-8.803h0A7.2088,7.2088,0,0,0,58.4079,56.6106Z"/><path class="b" d="M8.581,70.5338c-3.149.8439-4.9334,4.3985-3.9846,7.9393S8.8679,84.2,12.0169,83.3563s4.9337-4.3982,3.9849-7.9392S11.73,69.69,8.581,70.5338Z"/><path class="c" d="M41.1925,10.44C49.7452,34.364,24.2827,25.0828,36.8583,1,27.41,5.13,17.7046,12.2277,20.9449,27.7431c.49,2.3426,2.465,5.97,3.6609,8.0453A10.049,10.049,0,0,1,16.22,26.372c-6.6367,9.73,2.7236,23.9956,13.9768,26.81,4.7838,1.1948,11.5934.1157,15.9577-1.9366C58.97,45.2193,58.5932,29.8181,57.0019,26.3176,54.44,32.23,52.5294,33.6755,49.9062,35.09,51.6138,22.7689,48.3242,14.11,41.1925,10.44Z"/><path class="d" d="M10.3776,56.6106l22.51,6.0313L6.6574,69.67a7.1753,7.1753,0,0,0-1.1429.4133,7.2134,7.2134,0,0,1-3.94-8.39h0a7.2078,7.2078,0,0,1,8.8027-5.0828ZM60.26,70.0837a7.2124,7.2124,0,0,1,3.94,8.39h0a7.2089,7.2089,0,0,1-8.8036,5.0819L32.8878,77.524l26.23-7.0279A7.193,7.193,0,0,0,60.26,70.0837Z"/><path class="d" d="M60.2149,70.5341c3.1493.8436,4.9337,4.3979,3.9844,7.94-.9482,3.54-4.27,5.726-7.42,4.8824s-4.9345-4.3985-3.9858-7.9384a7.0882,7.0882,0,0,1,2.6805-3.9458l3.6431-.976q.18-.048.3557-.1052A5.2414,5.2414,0,0,1,60.2149,70.5341Z"/><line class="e" x1="3.3882" y1="59.7301" x2="23.5712" y2="65.1381"/><path class="d" d="M2.1642,64.299l12.27,3.2879m27.7705,7.441L47.22,76.3718"/><path class="d" d="M55.3969,56.6106,6.6574,69.67a7.2084,7.2084,0,0,0-5.0822,8.8027h0a7.2086,7.2086,0,0,0,8.8027,5.0825l48.74-13.06A7.2086,7.2086,0,0,0,64.2,61.6928h0A7.2087,7.2087,0,0,0,55.3969,56.6106Z"/><path class="f" d="M5.57,70.5338c-3.149.8439-4.9334,4.3985-3.9847,7.9393S5.8566,84.2,9.0057,83.3563s4.9337-4.3982,3.9849-7.9392S8.7191,69.69,5.57,70.5338Z"/><line class="g" x1="62.3965" y1="59.7304" x2="17.3401" y2="71.8032"/><line class="g" x1="63.6208" y1="64.2993" x2="18.5641" y2="76.372"/><path class="d" d="M38.1812,10.44C46.7339,34.364,21.2714,25.0828,33.8471,1,24.3989,5.13,14.6934,12.2277,17.9337,27.7431c.49,2.3426,2.465,5.97,3.6612,8.0453a10.049,10.049,0,0,1-8.3866-9.4164C5.7906,37.2471,18.3554,53.7873,31.2131,53.6733c24.8565-.2208,24.7575-23,22.7775-27.3557-2.5619,5.9128-4.4725,7.3579-7.0957,8.7721C48.6028,22.7689,45.3129,14.11,38.1812,10.44Z"/><path class="h" d="M32.4428,53.39c6.7949-5.1888,8.8889-19.1072,5.1729-25.5036"/><path class="d" d="M28.1517,52.675c5.1457-5.7906,5.2923-12.8126,2.876-19.54-2.5288-7.0373-7.7184-9.77-6.7186-17.744"/><path class="i" d="M25.3565,51.73c.5428-1.9817.2466-8.6207-1.42-12.4574"/><path class="j" d="M38.8729,52.5381c2.0866-1.6166,6.5891-8.1635,7.185-13.5454"/></svg>