<svg xmlns="http://www.w3.org/2000/svg" viewBox="0 0 76.9083 66.7995"><defs><style>.a{fill:#faa74a;}.a,.b,.c,.d,.e{fill-rule:evenodd;}.b{fill:#adbc72;}.c{fill:#f68a35;}.d,.e{fill:none;stroke:#231f20;stroke-linecap:round;stroke-linejoin:round;}.d{stroke-width:1.9998px;}.e{stroke-width:2.0001px;}</style></defs><path class="a" d="M22.8576,15.1368a14.498,14.498,0,0,1,4.2429.6358c-6.8942,2.5727-2.8871,13.0754-2.8871,25.119s-4.0071,21.7,2.8871,24.2722a14.498,14.498,0,0,1-4.2429.6358C12.3753,65.8,3.88,54.4587,3.88,40.4683S12.3753,15.1368,22.8576,15.1368Z"/><path class="a" d="M57.93,15.1368a14.497,14.497,0,0,0-4.2429.6358c6.8941,2.5727,2.21,11.5506,2.21,23.5942s4.6845,23.2245-2.21,25.797A14.497,14.497,0,0,0,57.93,65.8c10.4822,0,18.9779-11.3409,18.9779-25.3313S68.4126,15.1368,57.93,15.1368Z"/><path class="b" d="M34.6508,17.2078C34.4983,10.5745,35.9482,5.2,38.8923,1l4.39.7319a27.81,27.81,0,0,0,2.2811,15.067A19.8656,19.8656,0,0,1,34.6508,17.2078Z"/><path class="c" d="M30.567,15.1368a10.2343,10.2343,0,0,1,5.08,1.393c-5.67,3.437.3421,13.4487.3421,24.5315S29.9776,60.97,35.6472,64.4069A10.2339,10.2339,0,0,1,30.567,65.8c-8.5629,0-15.5039-11.3409-15.5039-25.3313S22.0041,15.1368,30.567,15.1368Z"/><path class="c" d="M50.221,15.1368a10.2346,10.2346,0,0,0-5.08,1.393c5.67,3.437-3.3916,10.6526-3.3916,21.7355S50.81,60.97,45.1407,64.4069A10.2343,10.2343,0,0,0,50.221,65.8c8.5629,0,15.5038-11.3409,15.5038-25.3313S58.7839,15.1368,50.221,15.1368Z"/><path class="a" d="M40.395,65.7993c7.9792,0,14.4873-11.3791,14.4873-25.3312S48.3742,15.1365,40.395,15.1365,25.9076,26.5159,25.9076,40.4681,32.4157,65.7993,40.395,65.7993Z"/><path class="d" d="M31.9925,12.1372A23.8957,23.8957,0,0,1,36.0123,1l4.39.7319a26.81,26.81,0,0,0,.5474,9.9717"/><path class="e" d="M43.8521,11.8112c2.1467-6.17,8.7658-11.033,14.2594-6.4145,6.9548,5.8464-7.7239,9.9374-5.1131,1.2784C54.1954,2.7032,60.536-.2933,67.0111,2.312"/><path class="d" d="M24.2205,65.1638a14.4965,14.4965,0,0,1-4.2429.6358C9.4953,65.8,1,54.4587,1,40.4683S9.4953,15.1368,19.9776,15.1368a14.4965,14.4965,0,0,1,4.2429.6358,9.1572,9.1572,0,0,1,3.4665-.6358,11.1831,11.1831,0,0,1,5.08,1.393,9.8194,9.8194,0,0,1,4.7475-1.393,9.8136,9.8136,0,0,1,4.746,1.393,11.1835,11.1835,0,0,1,5.08-1.393,9.1575,9.1575,0,0,1,3.4667.6358,14.4946,14.4946,0,0,1,4.2427-.6358c10.4822,0,18.9779,11.3411,18.9779,25.3315S65.5326,65.8,55.05,65.8a14.4946,14.4946,0,0,1-4.2427-.6358m-18.04-.7569A10.2339,10.2339,0,0,1,27.687,65.8c-8.5629,0-15.5039-11.3409-15.5039-25.3313,0-9.08,2.9248-17.0447,7.3188-21.5158m26.2741.7056c3.7624,4.5751,6.226,12.189,6.226,20.81,0,13.99-6.4854,25.3313-14.4873,25.3313S23.0274,54.4587,23.0274,40.4683c0-8.6212,2.4636-16.2351,6.226-20.81M42.2607,64.4069A10.2343,10.2343,0,0,0,47.341,65.8c8.5629,0,15.5038-11.3409,15.5038-25.3313,0-9.08-2.9248-17.0447-7.3185-21.5158"/></svg>