<svg xmlns="http://www.w3.org/2000/svg" viewBox="0 0 70.4942 63.2005"><defs><style>.a{fill:#939598;}.a,.b,.d,.e,.g{fill-rule:evenodd;}.b{fill:#d3966c;}.c{fill:#fffcd5;}.d{fill:#ffcb05;}.e,.f,.g,.h,.i{fill:none;stroke:#231f20;stroke-linecap:round;stroke-linejoin:round;}.e,.f{stroke-width:1.9998px;}.g,.h{stroke-width:2.0001px;}.i{stroke-width:2.101px;}</style></defs><polygon class="a" points="3.963 49.934 70.354 52.295 70.494 53.306 70.494 57.96 70.494 62.2 64.888 62.2 64.888 57.96 60.324 57.96 60.324 62.2 54.718 62.2 54.718 57.96 50.156 57.96 50.156 62.2 44.55 62.2 44.55 57.96 39.989 57.96 39.989 62.2 34.383 62.2 34.383 57.96 29.821 57.96 29.821 62.2 24.215 62.2 24.215 57.96 19.654 57.96 19.654 62.2 14.048 62.2 14.048 57.96 9.486 57.96 9.486 62.2 3.88 62.2 3.88 53.306 3.963 49.934"/><path class="b" d="M7.6037,9.67v23.599C3.9841,38.51,3.88,46.44,3.88,53.025H70.4942c-1.62-11.98-7-16.4917-18.4159-17.7534-9.1434-1.01-18.0654-5.9216-18.0654-16.38V9.67Z"/><path class="c" d="M6.8627,1H34.99a2.312,2.312,0,0,1,2.312,2.312V7.3577A2.3119,2.3119,0,0,1,34.99,9.67H6.8629A2.3122,2.3122,0,0,1,4.5508,7.3574V3.3118A2.3119,2.3119,0,0,1,6.8627,1Z"/><path class="d" d="M25.3476,21.2191a2.8966,2.8966,0,1,0-2.8967-2.8967A2.9023,2.9023,0,0,0,25.3476,21.2191Z"/><path class="d" d="M26.8979,30.0952a2.8966,2.8966,0,1,0-2.8965-2.8967A2.9023,2.9023,0,0,0,26.8979,30.0952Z"/><path class="d" d="M31.3477,37.8517a2.8966,2.8966,0,1,0-2.8967-2.8968A2.9022,2.9022,0,0,0,31.3477,37.8517Z"/><path class="d" d="M38.8987,43.168a2.8966,2.8966,0,1,0-2.8965-2.8967A2.9021,2.9021,0,0,0,38.8987,43.168Z"/><path class="d" d="M47.7342,45.36a2.8966,2.8966,0,1,0-2.8964-2.8967A2.9023,2.9023,0,0,0,47.7342,45.36Z"/><path class="e" d="M4.7239,13.2172V33.2689C1.104,38.51,1,46.44,1,53.025H67.6144c-1.62-11.98-7-16.4917-18.4161-17.7534-9.143-1.01-18.0652-5.9216-18.0652-16.38V13.2172"/><path class="f" d="M3.9827,1H32.11a2.3123,2.3123,0,0,1,2.3123,2.3123V7.3577A2.3119,2.3119,0,0,1,32.11,9.67H3.9829A2.3122,2.3122,0,0,1,1.6708,7.3574V3.3118A2.3119,2.3119,0,0,1,3.9827,1Z"/><path class="e" d="M22.468,21.2191a2.8966,2.8966,0,1,0-2.8966-2.8967A2.9021,2.9021,0,0,0,22.468,21.2191Z"/><path class="g" d="M24.0179,30.0952a2.8966,2.8966,0,1,0-2.8968-2.8967A2.9022,2.9022,0,0,0,24.0179,30.0952Z"/><path class="g" d="M28.468,37.8517a2.8966,2.8966,0,1,0-2.8965-2.8968A2.9023,2.9023,0,0,0,28.468,37.8517Z"/><path class="g" d="M36.0186,43.168a2.8966,2.8966,0,1,0-2.8963-2.8967A2.9021,2.9021,0,0,0,36.0186,43.168Z"/><path class="g" d="M44.8543,45.36a2.8966,2.8966,0,1,0-2.8967-2.8967A2.9023,2.9023,0,0,0,44.8543,45.36Z"/><polyline class="g" points="67.614 56.564 67.614 57.96 67.614 62.2 62.008 62.2 62.008 57.96 57.444 57.96 57.444 62.2 51.838 62.2 51.838 57.96 47.276 57.96 47.276 62.2 41.67 62.2 41.67 57.96 37.109 57.96 37.109 62.2 31.504 62.2 31.504 57.96 26.941 57.96 26.941 62.2 21.335 62.2 21.335 57.96 16.774 57.96 16.774 62.2 11.168 62.2 11.168 57.96 6.606 57.96 6.606 62.2 1 62.2 1 56.564"/><line class="h" x1="25.4111" y1="18.3224" x2="30.893" y2="18.3224"/><line class="h" x1="31.6168" y1="23.2765" x2="26.6519" y2="25.7591"/><line class="h" x1="34.3278" y1="29.153" x2="30.5648" y2="32.9035"/><line class="i" x1="39.6406" y1="32.7082" x2="37.2566" y2="37.4667"/><line class="f" x1="44.8537" y1="34.7891" x2="44.8537" y2="39.0816"/><path class="g" d="M8.7509,33.5722c8.0319.9122,14.8291,6.8315,13.5307,19.1418"/></svg>