<svg xmlns="http://www.w3.org/2000/svg" viewBox="0 0 57.1897 88.3993"><defs><style>.a{fill:#37a8a6;}.b{fill:#d1d3d4;}.b,.e,.f,.g,.h{fill-rule:evenodd;}.c,.d,.e,.f,.g,.h{fill:none;stroke:#231f20;}.c,.f,.g,.h{stroke-miterlimit:2.6131;}.c,.f{stroke-width:1.9996px;}.d,.e,.g{stroke-linecap:round;}.d,.e{stroke-linejoin:round;}.d,.g,.h{stroke-width:1.9998px;}.e{stroke-width:2.0001px;}</style></defs><circle class="a" cx="30.1194" cy="49.2599" r="26.2395" transform="translate(-26.9466 58.0455) rotate(-67.309)"/><path class="b" d="M31.3231,1.1029a4.1256,4.1256,0,1,1-3.1113,4.9357A4.1259,4.1259,0,0,1,31.3231,1.1029Z"/><path class="b" d="M54.38,7.0335A4.1256,4.1256,0,1,1,49.153,9.6258,4.1258,4.1258,0,0,1,54.38,7.0335Z"/><circle class="c" cx="27.2394" cy="49.2599" r="26.2395" transform="translate(-28.7156 55.3884) rotate(-67.309)"/><line class="d" x1="50.0814" y1="51.2897" x2="14.0573" y2="30.4922"/><line class="d" x1="48.3261" y1="58.2871" x2="8.8812" y2="35.5129"/><line class="d" x1="44.6558" y1="64.1786" x2="5.6066" y2="41.6324"/><line class="d" x1="39.0223" y1="68.9368" x2="4.3101" y2="48.8956"/><path class="e" d="M11.2235,52.9372v12.735m6.0443-37.07v3.73m0,24.1886V69.9176m6.0437-43.2547v9.108m0,24.2008V71.8568m6.0443-45.4323V39.2989m0,24.2589v8.5374m6.0435-44.2721V42.7373m0,24.3485v3.6111m6.0472-39.44V46.1077"/><path class="e" d="M45.7427,35.7117l-4.2512,1.1395m7.2134,4.3245-7.1944,1.9276m-32.37,8.6734L4.6091,52.9908m45.4578-5.9236L45.2423,48.36m-34.0477,9.123L6.3683,58.7766"/><path class="f" d="M28.4431,1.1029a4.1256,4.1256,0,1,1-3.1113,4.9357A4.1256,4.1256,0,0,1,28.4431,1.1029Z"/><path class="g" d="M29.3558,9.3917V39.1472m0,24.4506V87.3994"/><path class="h" d="M51.5,7.0335A4.1256,4.1256,0,1,1,46.273,9.6258,4.1257,4.1257,0,0,1,51.5,7.0335Z"/><path class="g" d="M47.961,14.5845,32.0754,40.6153M20.8352,59.034,7.3253,81.172"/></svg>