<svg xmlns="http://www.w3.org/2000/svg" viewBox="0 0 75.8797 48.3927"><defs><style>.a{fill:#c66e58;}.a,.b,.c{fill-rule:evenodd;}.b{fill:#fffcd5;}.c,.d{fill:none;stroke:#231f20;stroke-linecap:round;stroke-linejoin:round;stroke-width:1.9998px;}</style></defs><path class="a" d="M39.872,1c-12.86.0266-25.7287,6.9962-35.1607,20.4973a4.797,4.797,0,0,0,0,5.3983C14.1433,40.3963,27.012,47.3662,39.872,47.3928c12.86-.0266,25.7442-6.9965,35.1762-20.4973a4.7966,4.7966,0,0,0,0-5.3983C65.6162,7.9961,52.7319,1.0265,39.872,1Z"/><path class="b" d="M22.75,5.2524V43.14a44.2606,44.2606,0,0,1-6.8743-4.3756V9.628A44.2606,44.2606,0,0,1,22.75,5.2524Z"/><path class="b" d="M63.884,9.6314v29.13A44.2588,44.2588,0,0,1,57.01,43.136V5.2567A44.2514,44.2514,0,0,1,63.884,9.6314Z"/><path class="c" d="M36.992,1c-12.86.0266-25.7287,6.9964-35.1607,20.4973a4.797,4.797,0,0,0,0,5.3983C11.2633,40.3966,24.132,47.3662,36.992,47.3928c12.86-.0266,25.7442-6.9962,35.1762-20.4973a4.7966,4.7966,0,0,0,0-5.3983C62.7362,7.9963,49.8519,1.0265,36.992,1Z"/><path class="c" d="M19.87,9.0763V39.3169M12.9953,34.481V13.9117"/><path class="c" d="M61.004,13.9134V34.4793M54.13,39.3132V9.08"/><line class="d" x1="0.9999" y1="24.1969" x2="8.7912" y2="24.1969"/><line class="d" x1="65.2083" y1="24.1969" x2="72.9999" y2="24.1969"/><line class="d" x1="23.8843" y1="24.1969" x2="49.7802" y2="24.1969"/><line class="d" x1="26.3776" y1="19.7561" x2="26.3776" y2="28.6365"/><line class="d" x1="31.6047" y1="19.7561" x2="31.6047" y2="28.6365"/><line class="d" x1="36.8318" y1="19.7561" x2="36.8318" y2="28.6365"/><line class="d" x1="42.0589" y1="19.7561" x2="42.0589" y2="28.6365"/><line class="d" x1="47.2874" y1="19.7561" x2="47.2874" y2="28.6365"/></svg>