<svg xmlns="http://www.w3.org/2000/svg" viewBox="0 0 45.8166 73.9997"><defs><style>.a{fill:#c0d34d;}.a,.b,.c,.d,.f{fill-rule:evenodd;}.b{fill:#538d3f;}.c,.d,.e,.f{fill:none;stroke:#231f20;stroke-linecap:round;stroke-linejoin:round;}.c{stroke-width:2.0001px;}.d{stroke-width:1.9996px;}.e,.f{stroke-width:1.9998px;}</style></defs><path class="a" d="M4.9617,61.3389C2.692,55.5627,4.0243,48.8749,8.6785,43.5c2.4525-2.8332,4.9819-5.2988,5.5667-9.2237.4317-2.9009.0238-5.8926,1.0777-9.0425,3.3636-8.085,15.6875-8.085,19.0508,0,1.0539,3.15.6463,6.1416,1.078,9.0425.5845,3.9249,3.1139,6.3905,5.5664,9.2237,4.6542,5.3753,5.9865,12.0631,3.7171,17.8393C38.6336,76.8637,11.0814,76.9093,4.9617,61.3389Z"/><path class="b" d="M24.8833,18.86C24.6925,6.4383,31.3157,1.6778,43.0605,2.6773,42.6823,14.4587,37.1973,20.4993,24.8833,18.86Z"/><path class="c" d="M2.0814,61.3389C-.188,55.5627,1.1443,48.8749,5.7985,43.5c2.4525-2.8332,4.9819-5.2988,5.5664-9.2237.432-2.9009.0241-5.8926,1.078-9.0425,3.3636-8.085,15.6872-8.085,19.0508,0,1.0539,3.15.646,6.1416,1.078,9.0425.5845,3.9249,3.1139,6.3905,5.5664,9.2237,4.6542,5.3753,5.9865,12.0631,3.7171,17.8393C35.7536,76.8637,8.2014,76.9093,2.0814,61.3389Z"/><path class="d" d="M12.0585,1c5.3,3.5838,8.7971,8.37,9.777,14.8317"/><path class="d" d="M22.1045,15.8227C22.99,5.6633,29.4465,1.7643,40.1808,2.6776c-.2767,8.6179-3.2871,14.1627-9.7033,15.878"/><line class="e" x1="34.0341" y1="8.0229" x2="25.4488" y2="15.9848"/><path class="f" d="M6.9139,52.3247c-.426,5.7169.7759,9.305,5.6067,12.5887"/></svg>