<svg xmlns="http://www.w3.org/2000/svg" viewBox="0 0 82.0198 66.7994"><defs><style>.a{fill:#bcbec0;}.a,.b,.c,.d{fill-rule:evenodd;}.b{fill:#939598;}.c{fill:#231f20;}.d{fill:none;stroke:#231f20;stroke-linecap:round;stroke-linejoin:round;stroke-width:1.9998px;}</style></defs><path class="a" d="M40.4654,62.9a40.0556,40.0556,0,0,1-4.0088-5.3478c-8.3749-12.0773-.3872-33.6271,18.2018-28.7844,2.1983.5255,3.3251-1.1,4.4609-3.1516a10.94,10.94,0,0,1,4.6514-4.6556c-.466-4.047,1.2506-7.7825,2.5353-7.7825s3.7619,2.8134,3.5688,6.7765c6.5738.1939,9.6764,5.8277,10.9049,10.7407.9386,3.7548-2.9648,5.1262-9.0952,4.5193-7.3934-.7322-5.749,9.4779.2814,4.8541,2.3021-1.766,6.5982-.9057,8.896.9756,3.37,2.759-1.4312,6.1926-4.0379,5.076-1.8312-.7846-.8323-2.6214-2.9458-1.8362-3.4455,1.2815-7.6819,8.778-14.0766,5.3552.3425,2.7728-1.4318,7.1841-3.7451,9.5519l5.9442-.0173c5.1719.4,4.5973,4.6661,4.5437,6.6257l-15.2838-.0028C47.27,65.7955,43.8865,65.2737,40.4654,62.9Z"/><path class="b" d="M40.4654,62.9,37.114,64.343a15.6445,15.6445,0,0,1-13.106-1.0485c-11.03-5.6551-14.3447-19.9485-5.5772-33.06,10.7119-16.0208-8.3551-14.0918-6.77-5.1984C3.8627,22.51,2.4329,15.931,5.1375,10.3768,13.6972-7.1994,56.6336.7982,36.5136,27.138c-3.8565,5.0488-9.04,11.8953-8.78,17.9878.2826,6.6155,4.09,8.7265,8.7233,12.4263C37.7923,59.5029,39.1288,61.3,40.4654,62.9Z"/><path class="c" d="M69.4663,28.7518A1.7062,1.7062,0,1,0,67.76,27.0456,1.71,1.71,0,0,0,69.4663,28.7518Z"/><path class="d" d="M34.234,64.343a15.6445,15.6445,0,0,1-13.106-1.0485c-11.03-5.6551-14.3447-19.9485-5.5772-33.06,10.7119-16.0208-8.3551-14.0918-6.77-5.1984C.9827,22.51-.4471,15.931,2.2575,10.3768,10.8172-7.1994,53.7536.7982,33.6336,27.138c-3.8565,5.0488-9.04,11.8953-8.78,17.9878a11.075,11.075,0,0,0,2.4619,6.9169M37.5854,62.9c3.4211,2.3738,6.8043,2.8956,10.7952,2.8968L63.6644,65.8c.0536-1.96.6282-6.2257-4.5437-6.6257l-5.9442.0173c2.3133-2.3678,4.0876-6.7791,3.7451-9.5519,6.3947,3.4228,10.6311-4.0737,14.0766-5.3552,2.1135-.7852,1.1149,1.0516,2.9458,1.8362,2.6067,1.1166,7.4077-2.317,4.0379-5.076-2.2978-1.8813-6.5939-2.7416-8.896-.9756-6.03,4.6238-7.6748-5.5863-.2814-4.8541,6.13.6069,10.0338-.7645,9.0952-4.5193-1.2285-4.913-4.3311-10.5468-10.9049-10.7407.1931-3.9631-2.2839-6.7765-3.5688-6.7765s-3.0013,3.7355-2.5353,7.7825a10.94,10.94,0,0,0-4.6514,4.6556c-1.1358,2.0514-2.2626,3.6771-4.4609,3.1516C33.1894,23.925,25.2017,45.4748,33.5766,57.5521"/><path class="d" d="M45.1658,39.6981c7.0081.0637,10.7237,2.2382,11.7723,9.8458"/><path class="d" d="M68.5323,35.2032a7.8335,7.8335,0,0,1-5.0354-2.6266"/><path class="d" d="M60.8431,20.6229a6.0139,6.0139,0,0,0,1.2591,3.153"/></svg>