<svg xmlns="http://www.w3.org/2000/svg" viewBox="0 0 61.0198 84.8481"><defs><style>.a{fill:#93c13e;}.a,.b,.c,.d,.e,.f,.g{fill-rule:evenodd;}.b{fill:#fff685;}.c{fill:#73a942;}.d,.e,.f,.g{fill:none;stroke:#231f20;stroke-linecap:round;stroke-linejoin:round;}.d{stroke-width:2.0968px;}.e{stroke-width:2.0001px;}.f{stroke-width:1.9996px;}.g{stroke-width:1.9998px;}</style></defs><path class="a" d="M32.56,75.332c1.241-.02,2.4355-.0527,3.5767-.1295a1.5851,1.5851,0,0,1,.0153.2182v6.8412a1.5929,1.5929,0,0,1-1.5862,1.5862h-4.1a1.5917,1.5917,0,0,1-1.5863-1.5862V75.4207a1.5822,1.5822,0,0,1,.015-.2182c1.1412.0768,2.3358.11,3.5768.1295Z"/><path class="b" d="M32.5146,1.0484c6.321,0,11.634,14.4,13.1709,33.9211a36.8357,36.8357,0,0,0-7.3293,9.42,46.904,46.904,0,0,0-4.8472,15.755c-.3487.9382-.6361,13.6142-.9334,15.228h-.12c-.2971-1.6158-.586-14.2929-.9343-15.2334a46.9141,46.9141,0,0,0-4.847-15.75,36.8485,36.8485,0,0,0-7.33-9.42C20.8812,15.4484,26.1956,1.0484,32.5146,1.0484Z"/><path class="c" d="M4.0105,28.5737c15.5322,19.57,9.3221,22.02,11.943,35.4611,2.0514,10.5236,8.2593,11.2261,16.5172,11.3579,0-7.198-.3133-21.1193-5.7963-31.0037C21.0833,34.31,12.4005,28.3262,4.0105,28.5737Z"/><path class="c" d="M61.02,28.5737c-15.5322,19.57-9.3217,22.02-11.9429,35.4611C47.0254,74.5584,40.8179,75.2609,32.56,75.3927c0-7.198.3129-21.1193,5.7962-31.0037C43.9473,34.31,52.63,28.3262,61.02,28.5737Z"/><path class="d" d="M16.71,30.9517C18.6178,13.5039,23.6266,1.0484,29.5039,1.0484c5.8791,0,10.8868,12.4555,12.7948,29.9033"/><path class="e" d="M31.0414,6.4062c1.5979,5.5327,2.7434,19.4318,2.7936,35.8313a39.0755,39.0755,0,0,1-.1721,5.68m-8.4486-.3266c-.0582-1.5981-.0757-3.3735-.0417-5.356C25.2239,25.8366,26.37,11.9389,27.967,6.4062"/><path class="f" d="M24.1473,12.1058a15.7274,15.7274,0,0,0,10.7161.0074"/><path class="g" d="M22.6651,17.4792a16.0182,16.0182,0,0,0,13.68.0073"/><path class="g" d="M21.6474,22.9514a16.2622,16.2622,0,0,0,15.7147.0063"/><path class="f" d="M20.9379,28.5314a16.4516,16.4516,0,0,0,17.1337.0054"/><path class="g" d="M20.4781,34.2285c6.018,3.5535,12.0342,3.5742,18.0525.004"/><path class="e" d="M33.1411,78.8549v3.407a1.5937,1.5937,0,0,1-1.5866,1.5862h-4.1a1.5921,1.5921,0,0,1-1.5863-1.5862v-3.407"/><path class="g" d="M1,28.5737c15.5321,19.57,9.3217,22.02,11.9429,35.4611,2.0514,10.5236,8.259,11.2261,16.5169,11.3579,0-7.198-.3132-21.1193-5.7963-31.0037C18.0724,34.31,9.39,28.3262,1,28.5737Z"/><path class="g" d="M58.0091,28.5737c-15.5324,19.57-9.322,22.02-11.9429,35.4611C44.0148,74.5584,37.8069,75.2609,29.549,75.3927c0-7.198.3132-21.1193,5.7963-31.0037C40.9363,34.31,49.6191,28.3262,58.0091,28.5737Z"/><path class="e" d="M25.2967,42.2353a14.1939,14.1939,0,0,0,8.2684.0507"/><path class="e" d="M25.4784,48.245a14.1731,14.1731,0,0,0,8.0482.0079"/></svg>