<svg xmlns="http://www.w3.org/2000/svg" viewBox="0 0 88.1083 71.932"><defs><style>.a{fill:#d67944;}.a,.b,.c,.d,.e,.f{fill-rule:evenodd;}.b{fill:#939a9a;}.c{fill:#e2e3e4;}.d,.e,.f{fill:none;stroke:#231f20;stroke-linecap:round;stroke-linejoin:round;}.d{stroke-width:1.9996px;}.e{stroke-width:2.162px;}.f{stroke-width:1.9998px;}</style></defs><path class="a" d="M55.5816,12.68A99.0561,99.0561,0,0,1,42.2035,27.1081C32.4928,35.455,9.4307,53.6155,4.3357,61.5369c-2.7,4.1987,7.403,12.327,8.7764,8.3106,8.6646-25.3545,33.7768-32.06,48.793-50.7027a5.7915,5.7915,0,0,0-1.4306-5.3343C59.4568,12.7952,57.3116,12.9857,55.5816,12.68Z"/><path class="b" d="M88.1083,16.6231A65.958,65.958,0,0,1,61.7038,1.081l-8.3449,9.5153c6.3683,6.0531,12.81,10.9664,17.5629,25.6233C79.741,32.6527,85.73,26.372,88.1083,16.6231Z"/><path class="c" d="M88.1083,16.6236q-2.4029-.756-4.701-1.6574l-.0025.004c-2.4132,8.1476-6.757,12.9472-14.0545,16.4072l-.1145.2016c.5825,1.432,1.1449,2.9724,1.6863,4.6408C79.741,32.6527,85.73,26.3717,88.1083,16.6236Z"/><path class="d" d="M50.1855,15.8237A91.3891,91.3891,0,0,1,39.3243,27.1081C29.6131,35.455,6.5513,53.6155,1.4563,61.5372c-2.7,4.1984,7.4029,12.3276,8.7761,8.31,8.1714-23.91,30.9693-31.2378,46.1338-47.63"/><path class="e" d="M85.2286,16.6231A65.9594,65.9594,0,0,1,58.8241,1.081L50.48,10.5963C56.8478,16.6494,63.2887,21.5627,68.0424,36.22,76.8615,32.6527,82.85,26.372,85.2286,16.6231Z"/><path class="f" d="M79.4079,18.17a23.09,23.09,0,0,1-9.8626,11.5616"/></svg>