<svg xmlns="http://www.w3.org/2000/svg" viewBox="0 0 107.6767 67.1138"><defs><style>.a{fill:#ffcb05;}.a,.b,.c,.d,.e{fill-rule:evenodd;}.b{fill:#e64e53;}.c,.d,.e,.f,.g,.h,.i{fill:none;stroke:#231f20;stroke-linecap:round;stroke-linejoin:round;}.c,.f{stroke-width:1.9998px;}.d{stroke-width:2.3698px;}.e{stroke-width:2.3703px;}.g{stroke-width:2.6266px;}.h{stroke-width:2.2686px;}.i{stroke-width:4.2126px;}</style></defs><path class="a" d="M4.4818,26.8921l7.4891,1.9763c-1.8045-3.6618-2.2875-11.5614.3121-15.0817l6.137,1.872c.658-6.0321,4.08-11.6487,8.4133-13.73,4.3336,2.0809,7.7629,7.6975,8.4206,13.73l6.137-1.872c2.6,3.52,2.1166,11.42.3121,15.0817l7.4891-1.9763C56.2991,62.3881-2.6595,62.5605,4.4818,26.8921Z"/><path class="b" d="M92.4185,23.5084C93.3752,14.831,92.65,8.7969,83.8233,1c-8.8543,7.8216-9.5922,13.8186-8.6366,22.5068-3.5581-3.3435-7.6845-5.0434-15.18-4.58-.6774,10.9324,3.1873,14.69,10.0789,19.9647-3.6774,1.4131-6.584,4.0051-9.3492,9.5619,9.3217,6.18,14.1817,3.8522,23.068.1082,8.8841,3.744,13.7458,6.0707,23.0664-.1082-2.7658-5.5579-5.6718-8.15-9.35-9.5624,6.8922-5.2747,10.7561-9.0318,10.0792-19.9642C100.104,18.4627,95.9771,20.1638,92.4185,23.5084Z"/><path class="c" d="M20.3368,53.353C8.7153,51.869-1.6368,43.0655,1.6012,26.8924l7.49,1.9757c-1.8049-3.6618-2.2879-11.5611.3115-15.0814L15.54,15.6584c.6582-6.0316,4.08-11.6487,8.4132-13.7293,4.3336,2.0806,7.763,7.6977,8.4209,13.7293L38.51,13.7867c2.6,3.52,2.1164,11.42.3121,15.0814l7.4894-1.9757C49.5323,42.9784,39.1852,51.81,27.57,53.3391"/><polyline class="d" points="15.582 23.384 23.953 29.292 32.324 23.384"/><polyline class="e" points="11.529 37.95 23.953 46.719 36.377 37.95"/><line class="f" x1="23.9533" y1="65.4266" x2="23.9533" y2="16.7534"/><path class="c" d="M84.54,50.0707c6.7621,2.7292,11.473,3.6715,19.45-1.6171-2.7652-5.5577-5.6718-8.15-9.35-9.5624,6.8925-5.2747,10.7564-9.0318,10.08-19.9639-7.4962-.4643-11.6234,1.2362-15.1818,4.5811C90.4954,14.831,89.77,8.7969,80.9433,1c-8.8543,7.8216-9.5919,13.8183-8.6364,22.5068-3.5586-3.3438-7.6844-5.0431-15.18-4.5794-.6777,10.9321,3.1873,14.69,10.0792,19.9644-3.6774,1.4134-6.584,4.0054-9.3492,9.5619,7.9778,5.2891,12.6873,4.3463,19.45,1.6177"/><line class="g" x1="80.8888" y1="15.9541" x2="80.958" y2="65.8005"/><line class="h" x1="65.419" y1="27.3995" x2="80.5807" y2="40.0726"/><line class="h" x1="96.4278" y1="27.3995" x2="81.2661" y2="40.0726"/><line class="i" x1="69.7583" y1="44.8462" x2="80.6765" y2="39.9312"/><line class="i" x1="92.0885" y1="44.8462" x2="81.1703" y2="39.9312"/></svg>