<svg xmlns="http://www.w3.org/2000/svg" viewBox="0 0 47.0464 81.1997"><defs><style>.a{fill:#d27947;}.a,.b,.c,.d{fill-rule:evenodd;}.b{fill:#b06336;}.c,.d{fill:none;stroke:#231f20;stroke-linecap:round;stroke-linejoin:round;}.c{stroke-width:1.9998px;}.d{stroke-width:1.9996px;}</style></defs><path class="a" d="M19.1621,9.1642A21.6618,21.6618,0,0,1,25.4519,1a21.7106,21.7106,0,0,1,6.2725,8.1164,77.469,77.469,0,0,1-6.275,9.184C23.8872,16.252,20.9494,12.16,19.1621,9.1642Z"/><path class="b" d="M12.543,21.4065A20.0869,20.0869,0,0,1,14.4371,7.3033,20.58,20.58,0,0,1,25.4494,14.372,20.6017,20.6017,0,0,1,36.3605,7.2505a20.0388,20.0388,0,0,1,1.993,14.1974c-4.4008,3.9673-9.8563,8.62-12.8968,12.0648C22.4183,30.0539,16.9571,26.944,12.543,21.4065Z"/><path class="a" d="M9.0589,37.39a25.8889,25.8889,0,0,1,.3679-16.545c6.8514.8836,12.4285,3.8271,16.03,7.9266,3.6176-4.0984,9.2149-7.0308,16.0835-7.8889a25.8916,25.8916,0,0,1,.3085,16.5306c-5.694,4.66-11.8389,9.6573-16.3931,11.28C21.5721,44.9964,14.485,42.29,9.0589,37.39Z"/><polygon class="a" points="27.606 63.47 29.128 80.2 25.464 80.2 21.798 80.2 23.329 63.47 27.606 63.47"/><path class="b" d="M25.304,44.764l.2911.0056c4.5955-4.2888,11.6115-7.2119,20.0945-7.7933,3.5861,11.25-.1678,21.5054-8.5323,26.4938-.0811.0473-.16.0966-.2415.1431a22.6752,22.6752,0,0,1-8.1329,2.7655,26.81,26.81,0,0,1-6.6744.0122,22.6558,22.6558,0,0,1-8.2613-2.8531C5.4064,58.56,1.6264,48.25,5.2585,36.9511,13.725,37.55,20.72,40.4788,25.304,44.764Z"/><path class="c" d="M16.2818,9.1642A21.6618,21.6618,0,0,1,22.5716,1a21.7106,21.7106,0,0,1,6.2725,8.1164,19.0248,19.0248,0,0,0-6.275,5.2557A18.9729,18.9729,0,0,0,16.2818,9.1642Z"/><path class="c" d="M9.6627,21.4065A20.0869,20.0869,0,0,1,11.5568,7.3033,20.58,20.58,0,0,1,22.5691,14.372,20.6017,20.6017,0,0,1,33.48,7.2505a20.04,20.04,0,0,1,1.9931,14.1974,24.3644,24.3644,0,0,0-12.8968,7.3236A24.3906,24.3906,0,0,0,9.6627,21.4065Z"/><path class="c" d="M16.7025,20.2664a27.649,27.649,0,0,1,5.868-5.9644,27.7107,27.7107,0,0,1,5.87,5.9644"/><path class="c" d="M6.1786,37.39a25.89,25.89,0,0,1,.3679-16.545c6.8514.8836,12.4285,3.8271,16.03,7.9266,3.6175-4.0984,9.2148-7.0308,16.0835-7.8889a25.8922,25.8922,0,0,1,.3084,16.5306c-6.8434,1.0984-12.5065,3.7973-16.3931,7.4874C18.6919,41.2039,13.0268,38.4968,6.1786,37.39Z"/><path class="d" d="M14.9782,36.69a32.7921,32.7921,0,0,1,7.5909-7.86,32.8216,32.8216,0,0,1,7.5943,7.86"/><path class="c" d="M22.4237,44.764l.2911.0056c4.5955-4.2888,11.6116-7.2119,20.0945-7.7933,3.5861,11.25-.1678,21.5054-8.5323,26.4938-.081.0473-.16.0966-.2415.1431a22.6752,22.6752,0,0,1-8.1329,2.7655,26.81,26.81,0,0,1-6.6744.0122,22.6558,22.6558,0,0,1-8.2613-2.8531C2.5262,58.56-1.2538,48.25,2.3782,36.9511,10.8447,37.55,17.84,40.4788,22.4237,44.764Z"/><path class="c" d="M11.3238,59.1591c1.1931-5.6667,5.1939-10.7192,11.2453-14.4867,5.9187,3.9124,9.8932,8.9286,11.1736,14.4867"/><polyline class="d" points="25.299 69.971 26.248 80.2 22.583 80.2 18.918 80.2 19.866 69.984"/><path class="c" d="M22.4237,44.764l.2911.0056c4.5955-4.2888,11.6116-7.2119,20.0945-7.7933,3.5861,11.25-.1678,21.5054-8.5323,26.4938-.081.0473-.16.0966-.2415.1431a22.6752,22.6752,0,0,1-8.1329,2.7655,26.81,26.81,0,0,1-6.6744.0122,22.6558,22.6558,0,0,1-8.2613-2.8531C2.5262,58.56-1.2538,48.25,2.3782,36.9511,10.8447,37.55,17.84,40.4788,22.4237,44.764Z"/></svg>