<svg xmlns="http://www.w3.org/2000/svg" viewBox="0 0 55.4879 81.5858"><defs><style>.a{fill:#98532a;}.a,.b,.c,.d,.e{fill-rule:evenodd;}.b{fill:#73a942;}.c,.d,.e{fill:none;stroke:#231f20;stroke-linecap:round;stroke-linejoin:round;}.c{stroke-width:2.3134px;}.d{stroke-width:2.0001px;}.e{stroke-width:2.4588px;}</style></defs><polygon class="a" points="35.452 59.47 35.452 80.356 23.916 80.356 23.916 59.47 29.684 59.47 35.452 59.47"/><polygon class="b" points="29.685 1.157 36.136 10.815 42.587 20.475 35.447 20.475 39.361 26.334 49.037 40.823 40.012 40.823 42.586 44.678 55.488 63.997 29.684 63.997 3.88 63.997 16.782 44.68 19.358 40.823 10.332 40.823 20.008 26.335 23.922 20.475 16.782 20.475 23.234 10.816 29.685 1.157"/><polygon class="c" points="26.779 1.157 33.224 10.806 39.669 20.456 26.779 20.456 13.89 20.456 20.334 10.807 26.779 1.157"/><polyline class="d" points="39.184 43.91 39.669 44.637 52.559 63.938 26.779 63.938 1 63.938 13.89 44.638 14.376 43.91"/><polyline class="d" points="34.512 23.415 36.446 26.31 46.113 40.786 26.779 40.786 7.445 40.786 17.112 26.311 19.046 23.415"/><polyline class="e" points="32.547 67 32.547 80.356 21.012 80.356 21.012 67"/></svg>