<svg xmlns="http://www.w3.org/2000/svg" viewBox="0 0 23.9195 92.2713"><defs><style>.a{fill:#fffcd5;}.a,.b,.c,.d,.e{fill-rule:evenodd;}.b{fill:#dfdab3;}.c{fill:#b06336;}.d,.e{fill:none;stroke:#231f20;stroke-linecap:round;stroke-linejoin:round;}.d{stroke-width:2.0001px;}.e{stroke-width:2.543px;}</style></defs><path class="a" d="M3.8805,29.9269V16.86c0-2.5608,3.2621-4.7257,7.6278-5.315v2.3981a2.1588,2.1588,0,0,0,2.2858,1.8808l.0463.0017h.0076l.0544.0006.0542-.0006h.0076l.0462-.0017a2.1593,2.1593,0,0,0,2.2867-1.8808V11.5451C20.66,12.1361,23.92,14.3,23.92,16.86V29.9269c0,3.01-4.5088,5.4746-10.0191,5.4746h-.0017C8.389,35.4015,3.8805,32.9376,3.8805,29.9269Z"/><path class="b" d="M4.6476,15.809c0-2.0475,2.91-3.77,6.8607-4.2744v2.408a2.1588,2.1588,0,0,0,2.2858,1.8808l.0463.0017h.0076l.0544.0006.0542-.0006h.0076l.0462-.0017a2.1593,2.1593,0,0,0,2.2867-1.8808V11.5352c3.9481.5057,6.8553,2.2274,6.8553,4.2738,0,2.4426-4.1425,4.4237-9.2525,4.4237S4.6476,18.2516,4.6476,15.809Z"/><path class="c" d="M16.2969,13.9426a2.1859,2.1859,0,0,1-2.3945,1.8831,2.1855,2.1855,0,0,1-2.3941-1.8831V8.7257l2.3941-7.4542,2.3945,7.4542Z"/><path class="c" d="M16.294,88.8881a2.3944,2.3944,0,0,1-4.7888,0V61.5392a17.8553,17.8553,0,0,0,2.3935.16H13.9a17.85,17.85,0,0,0,2.3936-.16V88.8881Zm0-53.6462V40.334l-.0034.0451v.0017l-.0048.0434-.0006.0028-.0056.0414-.0006.0048-.0071.04-.0011.0059-.0077.038-.0017.0077-.0082.0363-.0023.0085-.0093.0345-.0026.01-.01.0329-.0034.011-.0105.0315-.0042.0124-.0111.03-.0045.0133-.0119.0287-.0057.0147-.0111.0264-.0076.0156-.0111.0252-.0082.017-.0116.0232-.0094.0182-.0119.0224-.0105.0192-.0116.02-.0116.02-.0113.0187-.0134.021-.011.0176-.0148.0223-.01.0156-.0165.0236-.01.0139-.0176.0241-.01.0133-.0193.0246-.0093.0117-.021.0258-.0088.01-.0221.0263-.0082.0094-.0241.0269-.0074.0074-.0258.0275-.0065.0071-.0281.028-.0051.0054-.03.0287-.0046.0039-.0317.0292-.0034.0037-.034.03-.0023.0017-.0363.03-.0011.0012-.0374.0306h-.0006l-.0385.03-.0012.0006-.0385.0281-.0023.0022-.0383.0264-.0039.0023-.0369.0252-.0059.0034-.036.0235-.0071.004-.0363.0215-.0082.0054-.0352.02-.01.006-.0343.0187-.0119.0065-.0332.0173-.0136.0065-.0326.0165-.0147.0076-.0315.0145-.017.0076-.03.0142-.0182.0079-.03.0125-.02.0088-.0286.0111-.0224.0087-.0269.01-.0238.0088-.0258.0093-.05.017-.0281.0094-.0229.0068-.03.0093-.0221.0065-.0317.0088-.02.0054-.0528.0133-.0354.0088-.0176.004-.038.0088-.0158.0031-.04.0079-.0142.0026-.0425.0076-.0125.0023-.0442.0071-.01.0017-.0468.0062-.0088.0015-.0487.0056-.0074.0012-.051.0053h-.0051l-.0533.0046h-.0043l-.0547.0037-.0019.0005-.0579.0023-.0462.0017h-.0076l-.0542.0006-.0544-.0006H13.84l-.0463-.0017A2.1588,2.1588,0,0,1,11.5083,40.24V35.2424a17.8958,17.8958,0,0,0,2.39.1591H13.9A17.85,17.85,0,0,0,16.294,35.2419Z"/><path class="a" d="M3.8805,56.2242V43.1568c0-2.5609,3.2621-4.7257,7.6278-5.315V40.24a2.1588,2.1588,0,0,0,2.2858,1.8808l.0463.0017h.0076l.0544.0006.0542-.0006h.0076l.0462-.0017A2.1594,2.1594,0,0,0,16.2971,40.24V37.8424c4.3631.591,7.6224,2.7547,7.6224,5.3144V56.2242c0,3.01-4.5088,5.4745-10.0191,5.4745h-.0017C8.389,61.6987,3.8805,59.2349,3.8805,56.2242Z"/><path class="b" d="M4.6476,42.106c0-2.0472,2.91-3.77,6.8607-4.2741V40.24a2.1588,2.1588,0,0,0,2.2858,1.8808l.0463.0017h.0076l.0544.0006.0542-.0006h.0076l.0462-.0017A2.1594,2.1594,0,0,0,16.2971,40.24V37.8324c3.9481.5057,6.8553,2.2275,6.8553,4.2736,0,2.4429-4.1425,4.424-9.2525,4.424S4.6476,44.5489,4.6476,42.106Z"/><path class="d" d="M1,29.9269V16.86c0-2.5608,3.2624-4.7257,7.6277-5.315v2.3981a2.1591,2.1591,0,0,0,2.2862,1.8808l.0462.0017h.0073l.0545.0006.0544-.0006h.0076l.0462-.0017a2.1591,2.1591,0,0,0,2.2865-1.8808V11.5451c4.3631.591,7.6226,2.7547,7.6226,5.3144V29.9269c0,3.01-4.5088,5.4746-10.019,5.4746h-.0017C5.5088,35.4015,1,32.9376,1,29.9269Z"/><path class="e" d="M13.4163,13.9426a2.1855,2.1855,0,0,1-2.3942,1.8831,2.1858,2.1858,0,0,1-2.3944-1.8831V8.7257l2.3944-7.4542,2.3942,7.4542Z"/><path class="d" d="M13.4137,65.02v23.868a2.3944,2.3944,0,0,1-4.7888,0V65.02m4.7888-29.7782V40.334l-.0036.0451v.0017l-.0046.0434-.0006.0028-.0059.0414-.0006.0048-.0071.04-.0011.0059-.0074.038-.0019.0077-.0083.0363-.0022.0085-.0094.0345-.0023.01-.01.0329-.0034.011-.0108.0315-.0039.0124-.0111.03-.0048.0133-.0116.0287-.006.0147-.011.0264-.0077.0156-.011.0252-.0083.017-.0116.0232-.0093.0182-.0117.0224-.01.0192-.0119.02-.0117.02-.011.0187-.0133.021-.0114.0176-.0144.0223-.0105.0156-.0165.0236-.01.0139-.0176.0241-.01.0133-.0193.0246-.0093.0117-.021.0258-.0088.01-.0224.0263-.0079.0094-.0241.0269-.0077.0074-.0258.0275-.0062.0071-.0281.028-.0053.0054-.03.0287-.0048.0039-.0315.0292-.0034.0037-.034.03-.0023.0017-.0363.03-.0011.0012-.0374.0306H12.711l-.0385.03-.0012.0006-.0388.0281-.0023.0022-.0379.0264-.004.0023-.0369.0252-.0059.0034-.0363.0235-.0071.004-.036.0215-.0082.0054-.0352.02-.01.006-.0346.0187-.0116.0065-.0334.0173-.0134.0065-.0328.0165-.0145.0076-.0315.0145-.017.0076-.0306.0142-.0178.0079-.03.0125-.02.0088-.0287.0111-.0221.0087-.0269.01-.0241.0088-.0255.0093-.05.017-.028.0094-.0227.0068-.03.0093-.0224.0065-.0314.0088-.02.0054-.0528.0133-.0357.0088-.0175.004-.038.0088-.0156.0031-.04.0079-.0139.0026-.0428.0076-.0122.0023-.0445.0071L11.47,42.09l-.0467.0062-.0088.0015-.0485.0056-.0076.0012-.0508.0053h-.0054l-.0533.0046h-.0039l-.055.0037-.0017.0005-.0579.0023-.0462.0017h-.0076l-.0544.0006-.0545-.0006H10.96l-.0462-.0017A2.1592,2.1592,0,0,1,8.6277,40.24V35.2424a17.9019,17.9019,0,0,0,2.3908.1591H11.02A17.8517,17.8517,0,0,0,13.4137,35.2419Z"/><path class="d" d="M1,56.2242V43.1568c0-2.5609,3.2624-4.7257,7.6277-5.315V40.24a2.1592,2.1592,0,0,0,2.2862,1.8808l.0462.0017h.0073l.0545.0006.0544-.0006h.0076l.0462-.0017A2.1591,2.1591,0,0,0,13.4166,40.24V37.8424c4.3631.591,7.6226,2.7547,7.6226,5.3144V56.2242c0,3.01-4.5088,5.4745-10.019,5.4745h-.0017C5.5088,61.6987,1,59.2349,1,56.2242Z"/><path class="d" d="M17.8939,18.77A15.14,15.14,0,0,1,11.02,20.2327a15.1365,15.1365,0,0,1-6.8749-1.4638"/><path class="d" d="M17.8939,45.0667A15.139,15.139,0,0,1,11.02,46.53a15.1365,15.1365,0,0,1-6.8749-1.4638"/></svg>