<svg xmlns="http://www.w3.org/2000/svg" viewBox="0 0 34.5729 81.1992"><defs><style>.a{fill:#fffcd5;}.a,.b,.e,.f{fill-rule:evenodd;}.b{fill:#e64e53;}.c,.d,.e,.f,.g,.h{fill:none;stroke:#231f20;stroke-linecap:round;stroke-linejoin:round;}.c{stroke-width:1.9996px;}.d{stroke-width:2.071px;}.e,.h{stroke-width:1.9998px;}.f{stroke-width:2.0001px;}.g{stroke-width:2.2839px;}</style></defs><path class="a" d="M9.9629,1H24.9482a4.8778,4.8778,0,0,1,4.8637,4.8606V18.04a1.3844,1.3844,0,0,1,1.1841,1.3652v2.7008a1.3834,1.3834,0,0,1-1.3794,1.3794H5.2948a1.3833,1.3833,0,0,1-1.3793-1.3794V19.4047A1.3835,1.3835,0,0,1,5.0992,18.04V5.8605A4.878,4.878,0,0,1,9.9629,1Z"/><path class="b" d="M29.8119,23.4707V75.3388c0,1.9794-24.7127,2.87-24.7127,0V23.4707a1.34,1.34,0,0,0,.1956.0142H29.6166A1.3351,1.3351,0,0,0,29.8119,23.4707Z"/><path class="a" d="M5.0992,74.4538H29.8119v.885a4.8778,4.8778,0,0,1-4.8637,4.86H9.9629a4.878,4.878,0,0,1-4.8637-4.86Z"/><line class="c" x1="5.5749" y1="5.4466" x2="23.6545" y2="5.4466"/><path class="d" d="M2.4148,18.0254H26.7369a1.3788,1.3788,0,0,1,1.3788,1.3788v2.7019a1.3788,1.3788,0,0,1-1.3788,1.3788H2.4142a1.3787,1.3787,0,0,1-1.3787-1.3787V19.4047A1.3793,1.3793,0,0,1,2.4148,18.0254Z"/><path class="e" d="M7.0829,1H22.0682a4.878,4.878,0,0,1,4.8637,4.8606V18.04a1.3963,1.3963,0,0,0-.1953-.0141H2.4145a1.3974,1.3974,0,0,0-.1953.0141V5.8605A4.878,4.878,0,0,1,7.0829,1Zm19.849,22.4708V75.3388a4.878,4.878,0,0,1-4.8637,4.86H7.0829a4.878,4.878,0,0,1-4.8637-4.86V23.4707a1.3392,1.3392,0,0,0,.1953.0142H26.7366A1.3381,1.3381,0,0,0,26.9319,23.4707Z"/><path class="e" d="M2.2192,74.4538H26.9319v.885a4.878,4.878,0,0,1-4.8637,4.86H7.0829a4.878,4.878,0,0,1-4.8637-4.86Z"/><path class="f" d="M26.9319,5.9223h.93a5.7271,5.7271,0,0,1,5.7106,5.71h0a5.7271,5.7271,0,0,1-5.7106,5.7112h-.93Z"/><line class="g" x1="10.4088" y1="26.7535" x2="10.4088" y2="71.2866"/><line class="g" x1="18.7418" y1="26.6909" x2="18.7418" y2="71.2237"/><line class="h" x1="5.2642" y1="32.1079" x2="23.8864" y2="32.1079"/><line class="h" x1="5.2642" y1="40.6206" x2="23.8864" y2="40.6206"/><line class="h" x1="5.2642" y1="49.1328" x2="23.8864" y2="49.1328"/><line class="h" x1="5.2642" y1="66.1571" x2="23.8864" y2="66.1571"/><line class="h" x1="5.2642" y1="57.6449" x2="23.8864" y2="57.6449"/></svg>