<svg xmlns="http://www.w3.org/2000/svg" viewBox="0 0 68.1025 70.3993"><defs><style>.a{fill:#fffcd5;}.a,.b,.c,.d,.e,.f{fill-rule:evenodd;}.b{fill:#e64e53;}.c{fill:#fff;}.d,.e,.f{fill:none;stroke:#231f20;stroke-linecap:round;stroke-linejoin:round;}.d{stroke-width:1.9998px;}.e{stroke-width:2.0001px;}.f{stroke-width:2.0854px;}</style></defs><path class="a" d="M45.5849,39.77,49.3173,57.508c.7934,5.578-2.6459,11.8914-8.8353,11.8914H31.48c-6.1889,0-9.6287-6.3134-8.8359-11.8914L26.3776,39.77l8.9121-4.523Z"/><path class="b" d="M35.9808,1C68.3136,1,75.3617,39.77,61.0555,39.77H10.7984c-10.4258,0-9.3606-21.4129,5.1868-32.4114A13.9269,13.9269,0,0,0,21.79,6.3812c1.6931-.8379,4.0935-2.2824,4.5059-4.1031A35.8675,35.8675,0,0,1,35.9808,1Z"/><path class="c" d="M15.9841,7.3657A30.6394,30.6394,0,0,1,26.288,2.28l.0712.0451A6.6772,6.6772,0,1,1,15.9645,7.8717C15.9645,7.7019,15.9716,7.5329,15.9841,7.3657Z"/><path class="c" d="M41.6671,14.5473A3.8771,3.8771,0,1,0,37.79,10.67,3.885,3.885,0,0,0,41.6671,14.5473Z"/><path class="c" d="M17.5449,33.7883a5.6,5.6,0,1,0-5.6-5.6A5.6111,5.6111,0,0,0,17.5449,33.7883Z"/><path class="c" d="M54.304,31.2051a6.462,6.462,0,1,0-6.4619-6.4622A6.4747,6.4747,0,0,0,54.304,31.2051Z"/><path class="c" d="M36.21,28.9062a3.8771,3.8771,0,1,0-3.877-3.8773A3.885,3.885,0,0,0,36.21,28.9062Z"/><path class="d" d="M33.1011,1C65.4339,1,72.4823,39.77,58.1758,39.77H7.919C-6.11,39.77.6657,1,33.1011,1Z"/><path class="e" d="M25.7968,5.0115a6.6783,6.6783,0,0,1-11.9495,5.961"/><path class="d" d="M43.4306,43.216l3.007,14.292c.7934,5.578-2.6456,11.8914-8.8354,11.8914H28.6005c-6.1891,0-9.6287-6.3134-8.8358-11.8914l3.0081-14.292"/><path class="d" d="M38.7874,14.5473A3.8771,3.8771,0,1,0,34.9105,10.67,3.885,3.885,0,0,0,38.7874,14.5473Z"/><path class="d" d="M14.6651,33.7883a5.6,5.6,0,1,0-5.6-5.6A5.6112,5.6112,0,0,0,14.6651,33.7883Z"/><path class="d" d="M51.4245,31.2051a6.462,6.462,0,1,0-6.4618-6.4622A6.4748,6.4748,0,0,0,51.4245,31.2051Z"/><path class="d" d="M33.33,28.9062a3.8771,3.8771,0,1,0-3.8769-3.8773A3.885,3.885,0,0,0,33.33,28.9062Z"/><path class="f" d="M30.9006,65.1743c-4.4034,0-6.85-4.3075-6.2864-8.113"/></svg>