<svg xmlns="http://www.w3.org/2000/svg" viewBox="0 0 90.7612 41.4981"><defs><style>.a{fill:#b06336;}.a,.b,.c,.d,.e,.f,.g{fill-rule:evenodd;}.b{fill:#d8b08b;}.c{fill:#8e7258;}.d,.e,.f,.g,.h,.i,.j,.k{fill:none;stroke:#231f20;stroke-linecap:round;stroke-linejoin:round;}.d,.j{stroke-width:2.0001px;}.e{stroke-width:2.6161px;}.f,.k{stroke-width:2.6167px;}.g,.i{stroke-width:1.9998px;}.h{stroke-width:1.9996px;}</style></defs><path class="a" d="M22.6886,1H71.7847a9.9032,9.9032,0,0,1,9.8742,9.8745v.0014a9.9036,9.9036,0,0,1-9.7225,9.8722h8.95a9.9032,9.9032,0,0,1,9.8744,9.8745v.0014a9.9032,9.9032,0,0,1-9.8744,9.8742H13.7544A9.9031,9.9031,0,0,1,3.88,30.6239v-.0014a9.9032,9.9032,0,0,1,9.8742-9.8745h8.7823a9.9038,9.9038,0,0,1-9.7225-9.8722v-.0014A9.9033,9.9033,0,0,1,22.6886,1Z"/><path class="b" d="M82.7857,21.504c4.4042,0,7.9755,4.0825,7.9755,9.1191s-3.5713,9.1193-7.9755,9.1193S74.81,35.66,74.81,30.6231,78.3815,21.504,82.7857,21.504Z"/><path class="c" d="M82.7857,27.1348a3.2918,3.2918,0,0,1,3.0509,3.4883,3.0782,3.0782,0,1,1-6.1016,0A3.2917,3.2917,0,0,1,82.7857,27.1348Z"/><path class="b" d="M73.6833,1.7559c4.4042,0,7.9756,4.0825,7.9756,9.1191s-3.5714,9.1193-7.9756,9.1193-7.9755-4.0827-7.9755-9.1193S69.2792,1.7559,73.6833,1.7559Z"/><path class="c" d="M73.6833,7.3866a3.2918,3.2918,0,0,1,3.051,3.4884,3.0782,3.0782,0,1,1-6.1016,0A3.2918,3.2918,0,0,1,73.6833,7.3866Z"/><path class="b" d="M64.7494,21.504c4.4042,0,7.9756,4.0825,7.9756,9.1191s-3.5714,9.1193-7.9756,9.1193-7.9756-4.0827-7.9756-9.1193S60.3452,21.504,64.7494,21.504Z"/><path class="c" d="M64.7494,27.1348A3.2916,3.2916,0,0,1,67.8,30.6231a3.0782,3.0782,0,1,1-6.1015,0A3.2916,3.2916,0,0,1,64.7494,27.1348Z"/><path class="d" d="M59.97,20.748H78.0068a9.9032,9.9032,0,0,1,9.8742,9.8745v.0014a9.9032,9.9032,0,0,1-9.8742,9.8742H59.97a9.9034,9.9034,0,0,0,9.8745-9.8742v-.0014A9.9034,9.9034,0,0,0,59.97,20.748Z"/><path class="e" d="M79.9054,21.504c4.4045,0,7.9756,4.0825,7.9756,9.1191s-3.5711,9.1193-7.9756,9.1193S71.93,35.66,71.93,30.6231,75.5012,21.504,79.9054,21.504Z"/><path class="f" d="M79.9054,27.1348a3.2916,3.2916,0,0,1,3.0509,3.4883,3.0782,3.0782,0,1,1-6.1015,0A3.2916,3.2916,0,0,1,79.9054,27.1348Z"/><path class="g" d="M19.8092,1H68.9036a9.9041,9.9041,0,0,1,9.8753,9.8751h0a9.9041,9.9041,0,0,1-9.8753,9.875H19.8092a9.9038,9.9038,0,0,1-9.875-9.875h0A9.9039,9.9039,0,0,1,19.8092,1Z"/><path class="e" d="M70.8033,1.7559c4.4042,0,7.9756,4.0825,7.9756,9.1191s-3.5714,9.1193-7.9756,9.1193-7.9755-4.0827-7.9755-9.1193S66.3992,1.7559,70.8033,1.7559Z"/><line class="h" x1="11.2545" y1="6.0155" x2="57.7804" y2="6.0155"/><line class="i" x1="11.2545" y1="10.8758" x2="56.4513" y2="10.8758"/><line class="h" x1="11.2545" y1="15.7352" x2="57.7804" y2="15.7352"/><path class="f" d="M70.8033,7.3866A3.2918,3.2918,0,0,1,73.854,10.875a3.0782,3.0782,0,1,1-6.1016,0A3.2918,3.2918,0,0,1,70.8033,7.3866Z"/><path class="g" d="M10.875,20.748H59.97a9.9041,9.9041,0,0,1,9.8751,9.8751h0a9.904,9.904,0,0,1-9.8751,9.875H10.875A9.9038,9.9038,0,0,1,1,30.6231H1A9.9039,9.9039,0,0,1,10.875,20.748Z"/><path class="e" d="M61.8691,21.504c4.4042,0,7.9756,4.0825,7.9756,9.1191s-3.5714,9.1193-7.9756,9.1193-7.9755-4.0827-7.9755-9.1193S57.4649,21.504,61.8691,21.504Z"/><line class="i" x1="2.3203" y1="25.7637" x2="48.8462" y2="25.7637"/><line class="j" x1="2.3203" y1="30.6239" x2="47.517" y2="30.6239"/><line class="i" x1="2.3203" y1="35.4834" x2="48.8462" y2="35.4834"/><ellipse class="k" cx="61.8691" cy="30.6231" rx="3.0509" ry="3.4883"/></svg>