<svg xmlns="http://www.w3.org/2000/svg" viewBox="0 0 91.4423 68.3695"><defs><style>.a{fill:#f78f3f;}.a,.b,.e,.f,.g{fill-rule:evenodd;}.b,.c,.d,.f,.g,.h{fill:none;stroke:#231f20;stroke-linecap:round;stroke-linejoin:round;}.b,.h{stroke-width:1.9998px;}.c{stroke-width:2.3837px;}.d{stroke-width:2.2229px;}.e{fill:#cd8c5d;}.f{stroke-width:2.0001px;}.g{stroke-width:2.0004px;}</style></defs><path class="a" d="M21.5553,1h0C24.869,1,27.5794,3.4386,27.5794,6.42V8.7841a6.54,6.54,0,0,1,8.2931.1928h0a5.0561,5.0561,0,0,1,0,7.6635l-5.3348,4.8a6.5575,6.5575,0,0,1,6.9361,1.0213h0a5.0564,5.0564,0,0,1,0,7.6638l-6.2212,5.5967a6.39,6.39,0,0,1,4.4937,1.5766h0a5.0563,5.0563,0,0,1,0,7.6638L26.25,53.5055a6.4146,6.4146,0,0,1-4.6939,1.5676,6.4161,6.4161,0,0,1-4.6945-1.5676L7.365,44.9622a5.0564,5.0564,0,0,1,0-7.6638h0a6.3907,6.3907,0,0,1,4.4938-1.5766L5.6379,30.1251a5.0563,5.0563,0,0,1,0-7.6638h0A6.5574,6.5574,0,0,1,12.574,21.44l-5.3351-4.8a5.0561,5.0561,0,0,1,0-7.6635h0a6.54,6.54,0,0,1,8.2924-.1936V6.42C15.5313,3.4386,18.2418,1,21.5553,1Z"/><path class="b" d="M15.4038,54.4537a5.9808,5.9808,0,0,1-1.4227-.9479L4.4844,44.9619a5.0557,5.0557,0,0,1,0-7.6635h0a6.392,6.392,0,0,1,4.4935-1.5769L2.757,30.1251a5.0569,5.0569,0,0,1,0-7.6638h0A6.5581,6.5581,0,0,1,9.6934,21.44L4.3583,16.6406a5.0559,5.0559,0,0,1,0-7.6637h0a6.5406,6.5406,0,0,1,8.2922-.1939V6.42c0-2.9812,2.7108-5.42,6.0239-5.42h0c3.3137,0,6.0239,2.4384,6.0239,5.42V8.7841a6.54,6.54,0,0,1,8.293.1928h0a5.0555,5.0555,0,0,1,0,7.6637L27.6565,21.44a6.5582,6.5582,0,0,1,6.9364,1.0213h0a5.0567,5.0567,0,0,1,0,7.6638l-6.2212,5.5964a6.3919,6.3919,0,0,1,4.4938,1.5769h0a5.0557,5.0557,0,0,1,0,7.6635l-9.4966,8.5439a5.9938,5.9938,0,0,1-1.4225.9479"/><line class="c" x1="18.6398" y1="11.7869" x2="18.7095" y2="67.1776"/><line class="d" x1="12.4495" y1="42.0096" x2="18.5369" y2="47.2032"/><line class="d" x1="24.8996" y1="42.0096" x2="18.8122" y2="47.2032"/><line class="d" x1="12.4495" y1="28.3262" x2="18.5369" y2="33.5195"/><line class="d" x1="24.8996" y1="28.3262" x2="18.8122" y2="33.5195"/><line class="d" x1="12.4495" y1="15.0258" x2="18.5369" y2="20.2191"/><line class="d" x1="24.8996" y1="15.0258" x2="18.8122" y2="20.2191"/><path class="e" d="M69.6847,46.3951c-4.47,9.17-21.7576,5.4669-21.7576-6.425,0-11.1586,10.8782-22.3172,21.7576-33.4749C80.5638,17.6529,91.4423,28.8115,91.4423,39.97,91.4423,51.862,74.1541,55.5652,69.6847,46.3951Z"/><path class="f" d="M63.5335,49.9965c-6.61,4.0606-18.4864-.17-18.4864-10.0262,0-11.1588,10.8785-22.3174,21.7579-33.4754C77.6835,17.6529,88.5623,28.8115,88.5623,39.97c0,9.8558-11.8757,14.0874-18.4861,10.0256"/><polyline class="g" points="54.122 32.703 66.805 45.803 79.487 32.703"/><line class="h" x1="66.8047" y1="61.6832" x2="66.8047" y2="18.7153"/><polyline class="g" points="59.403 23.818 66.805 31.463 74.207 23.818"/></svg>