<svg xmlns="http://www.w3.org/2000/svg" viewBox="0 0 98.7913 47.2991"><defs><style>.a{fill:#adbc72;}.a,.b,.c,.d,.e{fill-rule:evenodd;}.b{fill:#d2e288;}.c{fill:#bcbec0;}.d,.e,.f,.g{fill:none;stroke:#231f20;stroke-linecap:round;stroke-linejoin:round;}.d{stroke-width:1.9998px;}.e,.f{stroke-width:2.0001px;}.g{stroke-width:2.1305px;}</style></defs><polygon class="a" points="75.191 1.052 86.992 23.675 98.791 46.299 75.191 46.299 51.591 46.299 54.308 21.701 75.191 1.052"/><polygon class="b" points="29.019 1 75.09 1 75.192 1.053 63.39 23.675 51.634 46.216 51.366 46.299 5.295 46.299 29.019 1"/><polygon class="c" points="75.191 20.329 81.29 33.314 87.388 46.299 75.191 46.299 62.994 46.299 69.092 33.314 75.191 20.329"/><polygon class="d" points="26.099 1 72.17 1 72.202 1.185 60.47 23.675 48.714 46.216 48.446 46.299 2.375 46.299 26.099 1"/><polygon class="e" points="72.271 1.051 84.072 23.674 95.871 46.299 72.271 46.299 48.671 46.299 60.47 23.674 72.271 1.051"/><line class="f" x1="13.9592" y1="45.8372" x2="34.7176" y2="6.2001"/><line class="f" x1="25.0106" y1="45.8372" x2="45.769" y2="6.2001"/><line class="f" x1="36.0621" y1="45.8372" x2="56.8205" y2="6.2001"/><line class="g" x1="2.3808" y1="45.9365" x2="1.0652" y2="35.5387"/><polyline class="d" points="61.67 42.901 66.172 33.314 72.271 20.329 78.37 33.314 82.872 42.901"/><line class="g" x1="48.3165" y1="45.9365" x2="47.001" y2="35.5387"/><line class="g" x1="95.8983" y1="45.9365" x2="97.2139" y2="35.5387"/></svg>