<svg xmlns="http://www.w3.org/2000/svg" viewBox="0 0 50.4789 73.9996"><defs><style>.a{fill:#e64e53;}.a,.b,.c,.e,.f,.h{fill-rule:evenodd;}.b{fill:#b93940;}.c{fill:#fffcd5;}.d,.e{fill:#ffcb05;}.f,.g,.h,.i{fill:none;stroke:#231f20;stroke-linecap:round;stroke-linejoin:round;}.f,.i{stroke-width:1.9996px;}.g{stroke-width:2.393px;}.h{stroke-width:1.9998px;}</style></defs><path class="a" d="M8.7241,1H50.4789V51.6356l-.0617.182.0617-.0992v-.0828H8.7241A4.8581,4.8581,0,0,0,3.88,56.4817V5.8459A4.858,4.858,0,0,1,8.7241,1Z"/><path class="b" d="M8.7241,1h3.0622V51.6356H8.7241A4.8581,4.8581,0,0,0,3.88,56.4817V5.8459A4.858,4.858,0,0,1,8.7241,1Z"/><path class="c" d="M50.4789,51.6356a17.5517,17.5517,0,0,0,0,10.7677H21.415V57.0177H12.0769v5.3856H8.7241A4.8581,4.8581,0,0,1,3.88,57.5569V56.4817a4.8581,4.8581,0,0,1,4.8442-4.8461Z"/><rect class="d" x="18.6813" y="15.1313" width="22.8787" height="7.7386"/><polygon class="e" points="12.077 57.018 21.415 57.018 21.415 73 16.746 68.155 12.077 73 12.077 57.018"/><path class="f" d="M5.8443,1H47.5989V51.6356H5.8443A4.8581,4.8581,0,0,0,1,56.4817V5.8459A4.8581,4.8581,0,0,1,5.8443,1Z"/><line class="g" x1="8.9063" y1="5.1613" x2="8.9063" y2="47.4741"/><path class="h" d="M9.1969,62.4033H5.8443A4.8582,4.8582,0,0,1,1,57.5569V56.4817a4.8581,4.8581,0,0,1,4.8444-4.8461H47.5989m-.7954,3.8659a19.8289,19.8289,0,0,0,.7954,6.9018H18.535"/><rect class="i" x="15.8016" y="15.1313" width="22.8787" height="7.7386"/><line class="i" x1="5.2159" y1="57.0192" x2="42.9569" y2="57.0192"/><polyline class="f" points="18.535 60.38 18.535 73 13.866 68.155 9.197 73 9.197 60.38"/></svg>