<svg xmlns="http://www.w3.org/2000/svg" viewBox="0 0 59.609 73.9999"><defs><style>.a{fill:#ca6c38;}.a,.b,.c,.d{fill-rule:evenodd;}.b{fill:#fed09e;}.c,.d,.e,.f{fill:none;stroke:#231f20;stroke-linecap:round;stroke-linejoin:round;}.c,.e{stroke-width:1.9998px;}.d,.f{stroke-width:2.0001px;}</style></defs><path class="a" d="M54.62,34.7393q.0387.9675.04,1.9483c0,16.7238-8.5125,30.5615-19.5945,32.8964a3.3228,3.3228,0,1,1-6.643,0C17.341,67.2491,8.8286,53.4114,8.8286,36.6876q0-.9813.04-1.9483Z"/><path class="b" d="M30.21,14.8493a19.6433,19.6433,0,0,1,1.4462-6.6849A27.0383,27.0383,0,0,1,35.722,1L39.25,3.8139a21.09,21.09,0,0,0-3.1419,5.5866,16.1618,16.1618,0,0,0-1.0511,5.4488H45.7788c7.6065,0,13.83,6.8643,13.83,15.2532v.0017a16.5717,16.5717,0,0,1-.6573,4.6351H4.5372A16.5717,16.5717,0,0,1,3.88,30.1042v-.0017c0-8.3889,6.2234-15.2532,13.83-15.2532Z"/><path class="c" d="M14.83,14.8493H42.8988c7.6065,0,13.83,6.864,13.83,15.2535v.0014a16.5618,16.5618,0,0,1-.6576,4.6351H1.6572A16.5727,16.5727,0,0,1,1,30.1042v-.0014C1,21.7133,7.2233,14.8493,14.83,14.8493Z"/><path class="c" d="M51.7361,38.7353c-.6619,15.7953-8.9241,28.61-19.55,30.8487a3.3228,3.3228,0,1,1-6.643,0C14.9169,67.3454,6.6544,54.5306,5.9928,38.7353"/><path class="d" d="M27.8012,11.2725a24.4289,24.4289,0,0,1,.9745-3.1081A27.0383,27.0383,0,0,1,32.842,1L36.37,3.8139a21.09,21.09,0,0,0-3.1419,5.5866,15.6863,15.6863,0,0,0-.5806,1.872"/><path class="c" d="M22.999,62.7034c-6.8525-4.5343-10.2362-12.24-10.9264-20.5189"/><line class="e" x1="20.9915" y1="18.7001" x2="5.8902" y2="30.4979"/><line class="e" x1="33.6445" y1="18.6785" x2="17.7549" y2="31.0931"/><line class="f" x1="45.5166" y1="19.2653" x2="30.3864" y2="31.0864"/><line class="e" x1="51.3214" y1="24.5953" x2="43.0034" y2="31.0921"/><line class="e" x1="51.8387" y1="30.4979" x2="36.6954" y2="18.6676"/><line class="e" x1="39.9524" y1="31.0759" x2="24.0424" y2="18.646"/><line class="f" x1="27.3354" y1="31.081" x2="12.212" y2="19.2653"/><line class="f" x1="14.704" y1="31.0754" x2="6.4072" y2="24.5953"/></svg>