<svg xmlns="http://www.w3.org/2000/svg" viewBox="0 0 123.0067 70.399"><defs><style>.a{fill:#b06336;}.a,.b{fill-rule:evenodd;}.b{fill:none;stroke:#231f20;stroke-linecap:round;stroke-linejoin:round;stroke-width:1.9998px;}</style></defs><path class="a" d="M35.0657,46.1119c-4.504,1.4284-13.4564,4.2659-19.986-4.2936a2.5076,2.5076,0,0,1,3.9861-3.0436c2.9687,3.892,7.0084,4.1732,10.3572,3.6156a33.39,33.39,0,0,1-9.2971-9.2149,21.42,21.42,0,0,1-10.0037-4.2236A17.2066,17.2066,0,0,1,3.9665,19.746,2.51,2.51,0,1,1,8.8154,18.45a12.2635,12.2635,0,0,0,4.3889,6.5557,15.6065,15.6065,0,0,0,3.6587,2.1161A36.6558,36.6558,0,0,1,15.5715,2.8073a2.504,2.504,0,0,1,4.81,1.3941,31.54,31.54,0,0,0,1.711,22.3152q.19.4.3926.7931-.0552-.6262-.0938-1.2645A21.1891,21.1891,0,0,1,24.3929,15.89a12.8433,12.8433,0,0,1,6.4848-6.4086,2.5122,2.5122,0,1,1,1.9435,4.6332,7.95,7.95,0,0,0-3.9328,3.9935,15.9558,15.9558,0,0,0-1.491,7.6433,20.12,20.12,0,0,0,1.4658,7.06,12.314,12.314,0,0,0,3.0469,4.14,21.6873,21.6873,0,0,1-.0184-3.4316l.0006-.01h-.0006c.3-4.0314,1.741-8.0716,4.4586-10.4065.23-.1985.4626-.379.6911-.54a2.5084,2.5084,0,0,1,2.8862,4.1034c-.1179.0825-.2256.1658-.3186.2455-1.6169,1.3895-2.499,4.1249-2.711,6.97h-.0006c-.21,2.8479.2523,5.6542,1.3192,7.2725l.0743.1.0046.0068a58.4356,58.4356,0,0,1,8.3554,3.9025,25.0385,25.0385,0,0,1-.2274-3.4606c.0159-4.329,1.1758-8.4531,3.1774-11.1259a2.5031,2.5031,0,0,1,4.0053,3.0033c-1.37,1.83-2.1645,4.8421-2.1764,8.1226a18.0965,18.0965,0,0,0,1.9553,8.4649A22.9272,22.9272,0,0,1,55.03,51.9728a17.0989,17.0989,0,0,1,3.9563,9.16,3.0918,3.0918,0,0,0,1.2288,2.2339c3.1088,2.6108-.1338,5.6263-2.9078,5.9763-2.6682.3374-5.2659-.9011-5.5485-2.624-.5046-3.0736,2.5036-2.2564,2.247-4.9116a12.2852,12.2852,0,0,0-2.8627-6.6742,27.439,27.439,0,0,0-2.4089-2.4471c-2.8462-2.4457-6.9525-4.771-12.6226-6.8973Z"/><path class="a" d="M91.8218,46.1119c4.5042,1.4284,13.4563,4.2659,19.9859-4.2936a2.5076,2.5076,0,0,0-3.986-3.0436c-2.9688,3.892-7.0081,4.1732-10.357,3.6156a33.3891,33.3891,0,0,0,9.2971-9.2149,21.4212,21.4212,0,0,0,10.0037-4.2236,17.2072,17.2072,0,0,0,6.1557-9.2058,2.51,2.51,0,1,0-4.8489-1.296,12.2646,12.2646,0,0,1-4.3889,6.5557,15.61,15.61,0,0,1-3.6589,2.1161,36.6534,36.6534,0,0,0,1.2914-24.3145,2.504,2.504,0,0,0-4.81,1.3941,31.5393,31.5393,0,0,1-1.711,22.3152q-.1905.4-.3926.7931.0558-.6262.0941-1.2645A21.195,21.195,0,0,0,102.4948,15.89,12.8435,12.8435,0,0,0,96.01,9.4812a2.5121,2.5121,0,1,0-1.9434,4.6332,7.95,7.95,0,0,1,3.933,3.9935A15.9567,15.9567,0,0,1,99.49,25.7512a20.1224,20.1224,0,0,1-1.4658,7.06,12.316,12.316,0,0,1-3.0467,4.14,21.6518,21.6518,0,0,0,.0181-3.4316l-.0005-.01h.0005c-.3-4.0314-1.741-8.0716-4.4583-10.4065-.2305-.1985-.4629-.379-.6914-.54A2.5083,2.5083,0,1,0,86.96,26.6671c.1179.0825.2256.1658.3183.2455,1.6169,1.3895,2.4993,4.1249,2.7113,6.97H89.99c.2095,2.8479-.2526,5.6542-1.32,7.2725l-.074.1-.0045.0068a58.42,58.42,0,0,0-8.3557,3.9025,25.0072,25.0072,0,0,0,.2273-3.4606c-.0159-4.329-1.1755-8.4531-3.177-11.1259a2.5032,2.5032,0,0,0-4.0054,3.0033c1.37,1.83,2.1645,4.8421,2.1764,8.1226a18.0989,18.0989,0,0,1-1.9553,8.4649,22.9112,22.9112,0,0,0-1.6449,1.8042,17.1006,17.1006,0,0,0-3.9564,9.16,3.09,3.09,0,0,1-1.2288,2.2339c-3.1087,2.6108.1341,5.6263,2.9078,5.9763,2.6685.3374,5.2662-.9011,5.5488-2.624.5043-3.0736-2.5038-2.2564-2.2473-4.9116a12.2881,12.2881,0,0,1,2.8627-6.6742,27.4569,27.4569,0,0,1,2.4092-2.4471c2.846-2.4457,6.9522-4.771,12.6224-6.8973Z"/><path class="b" d="M26.5419,42.39a33.3891,33.3891,0,0,1-9.2971-9.2149A21.4212,21.4212,0,0,1,7.2411,28.9518,17.2079,17.2079,0,0,1,1.0853,19.746a2.51,2.51,0,0,1,4.849-1.296,12.263,12.263,0,0,0,4.3889,6.5557m3.6589,2.1161A36.6534,36.6534,0,0,1,12.6907,2.8073a2.504,2.504,0,0,1,4.81,1.3941,31.8853,31.8853,0,0,0-.5244,15.8176m2.628,7.2907q-.0558-.6262-.0941-1.2645A21.1938,21.1938,0,0,1,21.5118,15.89a12.8435,12.8435,0,0,1,6.4851-6.4086A2.5121,2.5121,0,1,1,29.94,14.1144a7.95,7.95,0,0,0-3.933,3.9935,15.9567,15.9567,0,0,0-1.4908,7.6433,20.1112,20.1112,0,0,0,1.4658,7.06q.1458.3274.3132.648m2.7335,3.492a21.6518,21.6518,0,0,1-.0181-3.4316l0-.01h0c.3-4.0314,1.741-8.0716,4.4583-10.4065.23-.1985.4629-.379.6914-.54a2.5083,2.5083,0,1,1,2.8859,4.1034c-.1179.0825-.2256.1658-.3186.2455-1.6166,1.3895-2.499,4.1249-2.7111,6.97h-.0005c-.21,2.8479.2525,5.6542,1.3195,7.2725l.074.1.0045.0068q2.9373,1.1217,5.396,2.33m2.96,1.5724a25.0389,25.0389,0,0,1-.2276-3.4606c.0161-4.329,1.1758-8.4531,3.1773-11.1259a2.5032,2.5032,0,0,1,4.0054,3.0033c-1.37,1.83-2.1645,4.8421-2.1765,8.1226a18.1,18.1,0,0,0,1.9554,8.4649,22.99,22.99,0,0,1,1.6449,1.8042,17.1,17.1,0,0,1,3.9563,9.16,3.091,3.091,0,0,0,1.2286,2.2339c3.109,2.6108-.1338,5.6263-2.9075,5.9763-2.6686.3374-5.2662-.9011-5.5488-2.624-.5043-3.0736,2.5035-2.2564,2.2473-4.9116a12.2881,12.2881,0,0,0-2.8627-6.6742,27.4569,27.4569,0,0,0-2.4092-2.4471c-2.846-2.4457-6.9523-4.771-12.6224-6.8973l-1.046.3226c-4.5039,1.4284-13.456,4.2659-19.9856-4.2936a2.5076,2.5076,0,0,1,3.986-3.0436,9.2208,9.2208,0,0,0,5.9562,3.6777"/><path class="b" d="M94.5836,42.39a33.3887,33.3887,0,0,0,9.297-9.2149,21.4207,21.4207,0,0,0,10.0038-4.2236A17.2066,17.2066,0,0,0,120.04,19.746a2.51,2.51,0,1,0-4.8489-1.296,12.2635,12.2635,0,0,1-4.3889,6.5557m-3.6587,2.1161a36.654,36.654,0,0,0,1.2912-24.3145,2.504,2.504,0,0,0-4.81,1.3941,31.8853,31.8853,0,0,1,.5244,15.8176M101.5214,27.31q.0552-.6262.0938-1.2645A21.1891,21.1891,0,0,0,99.6137,15.89a12.8431,12.8431,0,0,0-6.4851-6.4086,2.5122,2.5122,0,0,0-1.9435,4.6332,7.9489,7.9489,0,0,1,3.9331,3.9935,15.9582,15.9582,0,0,1,1.491,7.6433,20.12,20.12,0,0,1-1.4658,7.06q-.1462.3274-.3135.648m-2.7334,3.492a21.7112,21.7112,0,0,0,.0184-3.4316l-.0006-.01h.0006c-.3-4.0314-1.7413-8.0716-4.4586-10.4065-.23-.1985-.4626-.379-.6914-.54a2.5083,2.5083,0,0,0-2.886,4.1034c.118.0825.2257.1658.3187.2455,1.6168,1.3895,2.499,4.1249,2.711,6.97h.0006c.21,2.8479-.2526,5.6542-1.3193,7.2725l-.0742.1-.0046.0068q-2.9372,1.1217-5.396,2.33m-2.9594,1.5724a25.0385,25.0385,0,0,0,.2274-3.4606c-.0159-4.329-1.1758-8.4531-3.1774-11.1259A2.5031,2.5031,0,1,0,70.4,33.5811c1.37,1.83,2.1645,4.8421,2.1764,8.1226a18.0965,18.0965,0,0,1-1.9553,8.4649,22.9272,22.9272,0,0,0-1.6447,1.8042,17.0974,17.0974,0,0,0-3.9563,9.16,3.0918,3.0918,0,0,1-1.2288,2.2339c-3.1091,2.6108.1338,5.6263,2.9078,5.9763,2.6682.3374,5.2659-.9011,5.5485-2.624.5046-3.0736-2.5036-2.2564-2.247-4.9116a12.2844,12.2844,0,0,1,2.8627-6.6742,27.4254,27.4254,0,0,1,2.4089-2.4471c2.8462-2.4457,6.9525-4.771,12.6226-6.8973l1.0457.3226c4.504,1.4284,13.4564,4.2659,19.986-4.2936a2.5076,2.5076,0,0,0-3.9861-3.0436,9.2208,9.2208,0,0,1-5.9562,3.6777"/></svg>