<svg xmlns="http://www.w3.org/2000/svg" viewBox="0 0 35.9374 88.3995"><defs><style>.a{fill:#fcda51;}.a,.b,.c{fill-rule:evenodd;}.b{fill:#f2b54c;}.c,.d{fill:none;stroke:#231f20;stroke-linecap:round;stroke-linejoin:round;stroke-width:1.9998px;}</style></defs><path class="a" d="M20.0186,23.13C12.3846,15.4209,12.883,7.2378,20.0178,1,27.1526,7.2378,27.7643,15.4748,20.0186,23.13Z"/><path class="b" d="M19.8412,38.6848C8.9918,38.6313,3.5578,32.4926,4.1922,23.0367,13.648,22.4026,19.9049,27.7947,19.8412,38.6848Z"/><path class="b" d="M20.2386,38.6848c10.8493-.0535,16.2833-6.1922,15.6489-15.6481C26.4317,22.4026,20.1748,27.7947,20.2386,38.6848Z"/><path class="a" d="M19.8412,57.0536C8.9918,57,3.5578,50.8616,4.1922,41.4055,13.648,40.7714,19.9049,46.1635,19.8412,57.0536Z"/><path class="a" d="M20.2386,57.0536C31.0879,57,36.5219,50.8616,35.8875,41.4055,26.4317,40.7714,20.1748,46.1635,20.2386,57.0536Z"/><path class="b" d="M19.8412,75.4224C8.9918,75.3691,3.5578,69.23,4.1922,59.7743,13.648,59.14,19.9049,64.5323,19.8412,75.4224Z"/><path class="b" d="M20.2386,75.4224c10.8493-.0533,16.2833-6.192,15.6489-15.6481C26.4317,59.14,20.1748,64.5323,20.2386,75.4224Z"/><path class="c" d="M16.8764,23.13C9.2424,15.4209,9.7408,7.2378,16.8756,1,24.01,7.2378,24.6218,15.4748,16.8764,23.13Z"/><path class="c" d="M12.9258,38.3912C4.5993,37.0637.4936,31.3241,1.05,23.0367,6.0628,22.7,10.1764,24.0581,12.9258,27.03"/><path class="c" d="M20.87,38.3912c8.3265-1.3275,12.4319-7.0671,11.8757-15.3545C27.7325,22.7,23.6186,24.0581,20.87,27.03"/><path class="c" d="M12.9258,56.76C4.5993,55.4325.4936,49.6929,1.05,41.4055c5.0131-.3362,9.1267,1.0214,11.8761,3.9938"/><path class="c" d="M20.87,56.76c8.3265-1.3277,12.4319-7.0673,11.8757-15.3547-5.0128-.3362-9.1267,1.0214-11.8757,3.9938"/><path class="c" d="M12.9258,75.129C4.5993,73.8013.4936,68.0617,1.05,59.7743c5.0131-.3362,9.1267,1.0216,11.8761,3.9938"/><path class="c" d="M20.87,75.129c8.3265-1.3277,12.4319-7.0673,11.8757-15.3547-5.0128-.3362-9.1267,1.0216-11.8757,3.9938"/><line class="d" x1="16.8977" y1="22.9812" x2="16.8977" y2="87.3996"/><line class="d" x1="1.001" y1="18.471" x2="1.001" y2="1.2363"/><line class="d" x1="32.7941" y1="18.471" x2="32.7941" y2="1.2363"/><line class="d" x1="16.8977" y1="1.0413" x2="16.8977" y2="12.3609"/><line class="d" x1="31.9207" y1="23.8231" x2="23.9165" y2="31.8273"/><line class="d" x1="1.7746" y1="23.8231" x2="9.7787" y2="31.8273"/><line class="d" x1="31.9207" y1="42.1919" x2="23.9165" y2="50.1961"/><line class="d" x1="1.7746" y1="42.1919" x2="9.7787" y2="50.1961"/><line class="d" x1="31.9207" y1="60.6604" x2="23.9165" y2="68.6646"/><line class="d" x1="1.7746" y1="60.6604" x2="9.7787" y2="68.6646"/><line class="d" x1="16.8977" y1="22.9812" x2="16.8977" y2="87.3996"/></svg>